G04 EAGLE Gerber RS-274X export*
G75*
%MOMM*%
%FSLAX34Y34*%
%LPD*%
%INTop Copper*%
%IPPOS*%
%AMOC8*
5,1,8,0,0,1.08239X$1,22.5*%
G01*
%ADD10C,0.355600*%
%ADD11C,1.524000*%
%ADD12P,1.649562X8X22.500000*%
%ADD13P,1.199288X8X22.500000*%
%ADD14R,1.508000X1.508000*%
%ADD15P,1.632244X8X22.500000*%
%ADD16C,1.006400*%
%ADD17C,1.016000*%


D10*
X689906Y611778D02*
X681778Y611778D01*
X681778Y630066D01*
X689906Y630066D01*
X687874Y621938D02*
X681778Y621938D01*
X697845Y630066D02*
X697845Y611778D01*
X705973Y611778D01*
X714006Y611778D02*
X714006Y630066D01*
X719086Y630066D01*
X719227Y630064D01*
X719368Y630058D01*
X719509Y630048D01*
X719650Y630035D01*
X719790Y630017D01*
X719929Y629995D01*
X720068Y629970D01*
X720207Y629941D01*
X720344Y629908D01*
X720480Y629871D01*
X720615Y629830D01*
X720750Y629786D01*
X720882Y629738D01*
X721014Y629686D01*
X721144Y629631D01*
X721272Y629572D01*
X721399Y629509D01*
X721523Y629443D01*
X721646Y629374D01*
X721767Y629301D01*
X721886Y629225D01*
X722003Y629145D01*
X722117Y629062D01*
X722230Y628977D01*
X722339Y628888D01*
X722447Y628796D01*
X722551Y628701D01*
X722653Y628603D01*
X722752Y628502D01*
X722849Y628399D01*
X722942Y628293D01*
X723032Y628185D01*
X723120Y628074D01*
X723204Y627961D01*
X723285Y627845D01*
X723363Y627727D01*
X723438Y627607D01*
X723509Y627485D01*
X723577Y627361D01*
X723641Y627235D01*
X723702Y627108D01*
X723759Y626979D01*
X723812Y626848D01*
X723862Y626716D01*
X723909Y626583D01*
X723951Y626448D01*
X723990Y626312D01*
X724025Y626175D01*
X724056Y626038D01*
X724083Y625899D01*
X724107Y625760D01*
X724126Y625620D01*
X724142Y625480D01*
X724154Y625339D01*
X724162Y625198D01*
X724166Y625057D01*
X724166Y624915D01*
X724162Y624774D01*
X724154Y624633D01*
X724142Y624492D01*
X724126Y624352D01*
X724107Y624212D01*
X724083Y624073D01*
X724056Y623934D01*
X724025Y623797D01*
X723990Y623660D01*
X723951Y623524D01*
X723909Y623389D01*
X723862Y623256D01*
X723812Y623124D01*
X723759Y622993D01*
X723702Y622864D01*
X723641Y622737D01*
X723577Y622611D01*
X723509Y622487D01*
X723438Y622365D01*
X723363Y622245D01*
X723285Y622127D01*
X723204Y622011D01*
X723120Y621898D01*
X723032Y621787D01*
X722942Y621679D01*
X722849Y621573D01*
X722752Y621470D01*
X722653Y621369D01*
X722551Y621271D01*
X722447Y621176D01*
X722339Y621084D01*
X722230Y620995D01*
X722117Y620910D01*
X722003Y620827D01*
X721886Y620747D01*
X721767Y620671D01*
X721646Y620598D01*
X721523Y620529D01*
X721399Y620463D01*
X721272Y620400D01*
X721144Y620341D01*
X721014Y620286D01*
X720882Y620234D01*
X720750Y620186D01*
X720615Y620142D01*
X720480Y620101D01*
X720344Y620064D01*
X720207Y620031D01*
X720068Y620002D01*
X719929Y619977D01*
X719790Y619955D01*
X719650Y619937D01*
X719509Y619924D01*
X719368Y619914D01*
X719227Y619908D01*
X719086Y619906D01*
X714006Y619906D01*
X720102Y619906D02*
X724166Y611778D01*
X733770Y611778D02*
X733770Y630066D01*
X731738Y611778D02*
X735802Y611778D01*
X735802Y630066D02*
X731738Y630066D01*
X747525Y611778D02*
X751589Y611778D01*
X747525Y611778D02*
X747400Y611780D01*
X747275Y611786D01*
X747150Y611795D01*
X747026Y611809D01*
X746902Y611826D01*
X746778Y611847D01*
X746656Y611872D01*
X746534Y611901D01*
X746413Y611933D01*
X746293Y611969D01*
X746174Y612009D01*
X746057Y612052D01*
X745941Y612099D01*
X745826Y612150D01*
X745714Y612204D01*
X745602Y612262D01*
X745493Y612322D01*
X745386Y612387D01*
X745280Y612454D01*
X745177Y612525D01*
X745076Y612599D01*
X744977Y612676D01*
X744881Y612756D01*
X744787Y612839D01*
X744696Y612924D01*
X744607Y613013D01*
X744522Y613104D01*
X744439Y613198D01*
X744359Y613294D01*
X744282Y613393D01*
X744208Y613494D01*
X744137Y613597D01*
X744070Y613703D01*
X744005Y613810D01*
X743945Y613919D01*
X743887Y614031D01*
X743833Y614143D01*
X743782Y614258D01*
X743735Y614374D01*
X743692Y614491D01*
X743652Y614610D01*
X743616Y614730D01*
X743584Y614851D01*
X743555Y614973D01*
X743530Y615095D01*
X743509Y615219D01*
X743492Y615343D01*
X743478Y615467D01*
X743469Y615592D01*
X743463Y615717D01*
X743461Y615842D01*
X743461Y626002D01*
X743463Y626127D01*
X743469Y626252D01*
X743478Y626377D01*
X743492Y626501D01*
X743509Y626625D01*
X743530Y626749D01*
X743555Y626871D01*
X743584Y626993D01*
X743616Y627114D01*
X743652Y627234D01*
X743692Y627353D01*
X743735Y627470D01*
X743782Y627586D01*
X743833Y627701D01*
X743887Y627813D01*
X743945Y627925D01*
X744005Y628034D01*
X744070Y628141D01*
X744137Y628247D01*
X744208Y628350D01*
X744282Y628451D01*
X744359Y628550D01*
X744439Y628646D01*
X744522Y628740D01*
X744607Y628831D01*
X744696Y628920D01*
X744787Y629005D01*
X744881Y629088D01*
X744977Y629168D01*
X745076Y629245D01*
X745177Y629319D01*
X745280Y629390D01*
X745386Y629457D01*
X745493Y629522D01*
X745602Y629582D01*
X745714Y629640D01*
X745826Y629694D01*
X745941Y629745D01*
X746057Y629792D01*
X746174Y629835D01*
X746293Y629875D01*
X746413Y629911D01*
X746534Y629943D01*
X746656Y629972D01*
X746778Y629997D01*
X746902Y630018D01*
X747026Y630035D01*
X747150Y630049D01*
X747275Y630058D01*
X747400Y630064D01*
X747525Y630066D01*
X751589Y630066D01*
X764557Y630066D02*
X764690Y630064D01*
X764823Y630058D01*
X764955Y630049D01*
X765088Y630035D01*
X765220Y630018D01*
X765351Y629997D01*
X765482Y629972D01*
X765611Y629943D01*
X765740Y629910D01*
X765868Y629874D01*
X765995Y629834D01*
X766121Y629790D01*
X766245Y629743D01*
X766368Y629692D01*
X766489Y629638D01*
X766609Y629580D01*
X766727Y629518D01*
X766843Y629453D01*
X766957Y629385D01*
X767069Y629314D01*
X767179Y629239D01*
X767287Y629161D01*
X767393Y629080D01*
X767496Y628996D01*
X767596Y628909D01*
X767694Y628820D01*
X767790Y628727D01*
X767883Y628631D01*
X767972Y628533D01*
X768059Y628433D01*
X768143Y628330D01*
X768224Y628224D01*
X768302Y628116D01*
X768377Y628006D01*
X768448Y627894D01*
X768516Y627780D01*
X768581Y627664D01*
X768643Y627546D01*
X768701Y627426D01*
X768755Y627305D01*
X768806Y627182D01*
X768853Y627058D01*
X768897Y626932D01*
X768937Y626805D01*
X768973Y626677D01*
X769006Y626548D01*
X769035Y626419D01*
X769060Y626288D01*
X769081Y626157D01*
X769098Y626025D01*
X769112Y625892D01*
X769121Y625760D01*
X769127Y625627D01*
X769129Y625494D01*
X764557Y630066D02*
X764406Y630064D01*
X764256Y630058D01*
X764105Y630049D01*
X763955Y630035D01*
X763805Y630018D01*
X763656Y629996D01*
X763507Y629971D01*
X763359Y629943D01*
X763212Y629910D01*
X763066Y629874D01*
X762921Y629833D01*
X762776Y629790D01*
X762633Y629742D01*
X762492Y629691D01*
X762351Y629636D01*
X762212Y629578D01*
X762075Y629516D01*
X761939Y629450D01*
X761805Y629381D01*
X761673Y629309D01*
X761542Y629233D01*
X761414Y629154D01*
X761287Y629072D01*
X761163Y628986D01*
X761041Y628898D01*
X760922Y628806D01*
X760805Y628711D01*
X760690Y628613D01*
X760578Y628513D01*
X760468Y628409D01*
X760361Y628303D01*
X760257Y628194D01*
X760156Y628082D01*
X760057Y627968D01*
X759962Y627851D01*
X759870Y627732D01*
X759780Y627611D01*
X759694Y627487D01*
X759611Y627361D01*
X759532Y627233D01*
X759455Y627103D01*
X759382Y626971D01*
X759312Y626838D01*
X759246Y626702D01*
X759184Y626565D01*
X759125Y626426D01*
X759069Y626286D01*
X759017Y626145D01*
X758969Y626002D01*
X767605Y621938D02*
X767703Y622034D01*
X767798Y622132D01*
X767891Y622234D01*
X767980Y622337D01*
X768067Y622444D01*
X768151Y622552D01*
X768231Y622663D01*
X768309Y622776D01*
X768383Y622892D01*
X768454Y623009D01*
X768522Y623128D01*
X768586Y623249D01*
X768647Y623372D01*
X768704Y623497D01*
X768758Y623623D01*
X768809Y623750D01*
X768856Y623879D01*
X768899Y624009D01*
X768939Y624140D01*
X768975Y624273D01*
X769007Y624406D01*
X769035Y624540D01*
X769060Y624675D01*
X769081Y624811D01*
X769098Y624947D01*
X769112Y625083D01*
X769121Y625220D01*
X769127Y625357D01*
X769129Y625494D01*
X767605Y621938D02*
X758969Y611778D01*
X769129Y611778D01*
X777507Y620922D02*
X777511Y621282D01*
X777524Y621641D01*
X777546Y622000D01*
X777576Y622359D01*
X777614Y622717D01*
X777661Y623073D01*
X777717Y623429D01*
X777781Y623783D01*
X777854Y624135D01*
X777934Y624486D01*
X778024Y624834D01*
X778121Y625181D01*
X778227Y625525D01*
X778341Y625866D01*
X778463Y626204D01*
X778593Y626540D01*
X778731Y626872D01*
X778877Y627201D01*
X779031Y627526D01*
X779072Y627639D01*
X779116Y627750D01*
X779164Y627859D01*
X779215Y627967D01*
X779269Y628074D01*
X779327Y628178D01*
X779388Y628281D01*
X779453Y628382D01*
X779520Y628481D01*
X779591Y628577D01*
X779665Y628671D01*
X779741Y628763D01*
X779821Y628852D01*
X779903Y628939D01*
X779988Y629023D01*
X780076Y629104D01*
X780166Y629183D01*
X780259Y629258D01*
X780354Y629331D01*
X780451Y629400D01*
X780550Y629467D01*
X780652Y629530D01*
X780755Y629590D01*
X780861Y629646D01*
X780968Y629699D01*
X781077Y629749D01*
X781187Y629795D01*
X781298Y629838D01*
X781411Y629877D01*
X781526Y629913D01*
X781641Y629945D01*
X781757Y629973D01*
X781874Y629998D01*
X781992Y630019D01*
X782110Y630036D01*
X782229Y630049D01*
X782348Y630058D01*
X782467Y630064D01*
X782587Y630066D01*
X782707Y630064D01*
X782826Y630058D01*
X782945Y630049D01*
X783064Y630036D01*
X783182Y630019D01*
X783300Y629998D01*
X783417Y629973D01*
X783533Y629945D01*
X783648Y629913D01*
X783763Y629877D01*
X783876Y629838D01*
X783987Y629795D01*
X784097Y629749D01*
X784206Y629699D01*
X784313Y629646D01*
X784419Y629590D01*
X784522Y629530D01*
X784624Y629467D01*
X784723Y629400D01*
X784820Y629331D01*
X784915Y629258D01*
X785008Y629183D01*
X785098Y629104D01*
X785186Y629023D01*
X785271Y628939D01*
X785353Y628852D01*
X785433Y628763D01*
X785509Y628671D01*
X785583Y628577D01*
X785654Y628481D01*
X785721Y628382D01*
X785786Y628281D01*
X785847Y628178D01*
X785905Y628074D01*
X785959Y627967D01*
X786010Y627859D01*
X786058Y627750D01*
X786102Y627639D01*
X786143Y627526D01*
X786297Y627201D01*
X786443Y626872D01*
X786581Y626540D01*
X786711Y626204D01*
X786833Y625866D01*
X786947Y625525D01*
X787053Y625181D01*
X787150Y624834D01*
X787240Y624486D01*
X787320Y624135D01*
X787393Y623783D01*
X787457Y623429D01*
X787513Y623073D01*
X787560Y622717D01*
X787598Y622359D01*
X787628Y622000D01*
X787650Y621641D01*
X787663Y621282D01*
X787667Y620922D01*
X777507Y620922D02*
X777511Y620562D01*
X777524Y620203D01*
X777546Y619844D01*
X777576Y619485D01*
X777614Y619127D01*
X777661Y618771D01*
X777717Y618415D01*
X777781Y618061D01*
X777854Y617709D01*
X777934Y617358D01*
X778024Y617010D01*
X778121Y616663D01*
X778227Y616319D01*
X778341Y615978D01*
X778463Y615640D01*
X778593Y615304D01*
X778731Y614972D01*
X778877Y614643D01*
X779031Y614318D01*
X779072Y614205D01*
X779116Y614094D01*
X779164Y613985D01*
X779215Y613877D01*
X779269Y613770D01*
X779327Y613666D01*
X779388Y613563D01*
X779453Y613462D01*
X779520Y613363D01*
X779591Y613267D01*
X779665Y613173D01*
X779741Y613081D01*
X779821Y612992D01*
X779903Y612905D01*
X779988Y612821D01*
X780076Y612740D01*
X780166Y612661D01*
X780259Y612586D01*
X780354Y612513D01*
X780451Y612444D01*
X780550Y612377D01*
X780652Y612314D01*
X780755Y612254D01*
X780861Y612198D01*
X780968Y612145D01*
X781077Y612095D01*
X781187Y612049D01*
X781298Y612006D01*
X781411Y611967D01*
X781526Y611931D01*
X781641Y611899D01*
X781757Y611871D01*
X781874Y611846D01*
X781992Y611825D01*
X782110Y611808D01*
X782229Y611795D01*
X782348Y611786D01*
X782467Y611780D01*
X782587Y611778D01*
X786143Y614318D02*
X786297Y614643D01*
X786443Y614972D01*
X786581Y615304D01*
X786711Y615640D01*
X786833Y615978D01*
X786947Y616319D01*
X787053Y616663D01*
X787150Y617010D01*
X787240Y617358D01*
X787320Y617709D01*
X787393Y618061D01*
X787457Y618415D01*
X787513Y618771D01*
X787560Y619127D01*
X787598Y619485D01*
X787628Y619844D01*
X787650Y620203D01*
X787663Y620562D01*
X787667Y620922D01*
X786143Y614318D02*
X786102Y614205D01*
X786058Y614094D01*
X786010Y613985D01*
X785959Y613877D01*
X785905Y613770D01*
X785847Y613666D01*
X785786Y613563D01*
X785721Y613462D01*
X785654Y613363D01*
X785583Y613267D01*
X785509Y613173D01*
X785433Y613081D01*
X785353Y612992D01*
X785271Y612905D01*
X785186Y612821D01*
X785098Y612740D01*
X785008Y612661D01*
X784915Y612586D01*
X784820Y612513D01*
X784723Y612444D01*
X784624Y612377D01*
X784522Y612314D01*
X784419Y612254D01*
X784313Y612198D01*
X784206Y612145D01*
X784097Y612095D01*
X783987Y612049D01*
X783876Y612006D01*
X783763Y611967D01*
X783648Y611931D01*
X783533Y611899D01*
X783417Y611871D01*
X783300Y611846D01*
X783182Y611825D01*
X783064Y611808D01*
X782945Y611795D01*
X782826Y611786D01*
X782707Y611780D01*
X782587Y611778D01*
X778523Y615842D02*
X786651Y626002D01*
X796265Y618890D02*
X808457Y618890D01*
X817055Y620922D02*
X817059Y621282D01*
X817072Y621641D01*
X817094Y622000D01*
X817124Y622359D01*
X817162Y622717D01*
X817209Y623073D01*
X817265Y623429D01*
X817329Y623783D01*
X817402Y624135D01*
X817482Y624486D01*
X817572Y624834D01*
X817669Y625181D01*
X817775Y625525D01*
X817889Y625866D01*
X818011Y626204D01*
X818141Y626540D01*
X818279Y626872D01*
X818425Y627201D01*
X818579Y627526D01*
X818580Y627526D02*
X818621Y627639D01*
X818665Y627750D01*
X818713Y627859D01*
X818764Y627967D01*
X818818Y628074D01*
X818876Y628178D01*
X818937Y628281D01*
X819002Y628382D01*
X819069Y628481D01*
X819140Y628577D01*
X819214Y628671D01*
X819290Y628763D01*
X819370Y628852D01*
X819452Y628939D01*
X819537Y629023D01*
X819625Y629104D01*
X819715Y629183D01*
X819808Y629258D01*
X819903Y629331D01*
X820000Y629400D01*
X820099Y629467D01*
X820201Y629530D01*
X820304Y629590D01*
X820410Y629646D01*
X820517Y629699D01*
X820626Y629749D01*
X820736Y629795D01*
X820847Y629838D01*
X820960Y629877D01*
X821075Y629913D01*
X821190Y629945D01*
X821306Y629973D01*
X821423Y629998D01*
X821541Y630019D01*
X821659Y630036D01*
X821778Y630049D01*
X821897Y630058D01*
X822016Y630064D01*
X822136Y630066D01*
X822256Y630064D01*
X822375Y630058D01*
X822494Y630049D01*
X822613Y630036D01*
X822731Y630019D01*
X822849Y629998D01*
X822966Y629973D01*
X823082Y629945D01*
X823197Y629913D01*
X823312Y629877D01*
X823425Y629838D01*
X823536Y629795D01*
X823646Y629749D01*
X823755Y629699D01*
X823862Y629646D01*
X823968Y629590D01*
X824071Y629530D01*
X824173Y629467D01*
X824272Y629400D01*
X824369Y629331D01*
X824464Y629258D01*
X824557Y629183D01*
X824647Y629104D01*
X824735Y629023D01*
X824820Y628939D01*
X824902Y628852D01*
X824982Y628763D01*
X825058Y628671D01*
X825132Y628577D01*
X825203Y628481D01*
X825270Y628382D01*
X825335Y628281D01*
X825396Y628178D01*
X825454Y628074D01*
X825508Y627967D01*
X825559Y627859D01*
X825607Y627750D01*
X825651Y627639D01*
X825692Y627526D01*
X825846Y627201D01*
X825992Y626872D01*
X826130Y626540D01*
X826260Y626204D01*
X826382Y625866D01*
X826496Y625525D01*
X826602Y625181D01*
X826699Y624834D01*
X826789Y624486D01*
X826869Y624135D01*
X826942Y623783D01*
X827006Y623429D01*
X827062Y623073D01*
X827109Y622717D01*
X827147Y622359D01*
X827177Y622000D01*
X827199Y621641D01*
X827212Y621282D01*
X827216Y620922D01*
X817055Y620922D02*
X817059Y620562D01*
X817072Y620203D01*
X817094Y619844D01*
X817124Y619485D01*
X817162Y619127D01*
X817209Y618771D01*
X817265Y618415D01*
X817329Y618061D01*
X817402Y617709D01*
X817482Y617358D01*
X817572Y617010D01*
X817669Y616663D01*
X817775Y616319D01*
X817889Y615978D01*
X818011Y615640D01*
X818141Y615304D01*
X818279Y614972D01*
X818425Y614643D01*
X818579Y614318D01*
X818580Y614318D02*
X818621Y614205D01*
X818665Y614094D01*
X818713Y613985D01*
X818764Y613877D01*
X818818Y613770D01*
X818876Y613666D01*
X818937Y613563D01*
X819002Y613462D01*
X819069Y613363D01*
X819140Y613267D01*
X819214Y613173D01*
X819290Y613081D01*
X819370Y612992D01*
X819452Y612905D01*
X819537Y612821D01*
X819625Y612740D01*
X819715Y612661D01*
X819808Y612586D01*
X819903Y612513D01*
X820000Y612444D01*
X820099Y612377D01*
X820201Y612314D01*
X820304Y612254D01*
X820410Y612198D01*
X820517Y612145D01*
X820626Y612095D01*
X820736Y612049D01*
X820847Y612006D01*
X820960Y611967D01*
X821075Y611931D01*
X821190Y611899D01*
X821306Y611871D01*
X821423Y611846D01*
X821541Y611825D01*
X821659Y611808D01*
X821778Y611795D01*
X821897Y611786D01*
X822016Y611780D01*
X822136Y611778D01*
X825692Y614318D02*
X825846Y614643D01*
X825992Y614972D01*
X826130Y615304D01*
X826260Y615640D01*
X826382Y615978D01*
X826496Y616319D01*
X826602Y616663D01*
X826699Y617010D01*
X826789Y617358D01*
X826869Y617709D01*
X826942Y618061D01*
X827006Y618415D01*
X827062Y618771D01*
X827109Y619127D01*
X827147Y619485D01*
X827177Y619844D01*
X827199Y620203D01*
X827212Y620562D01*
X827216Y620922D01*
X825692Y614318D02*
X825651Y614205D01*
X825607Y614094D01*
X825559Y613985D01*
X825508Y613877D01*
X825454Y613770D01*
X825396Y613666D01*
X825335Y613563D01*
X825270Y613462D01*
X825203Y613363D01*
X825132Y613267D01*
X825058Y613173D01*
X824982Y613081D01*
X824902Y612992D01*
X824820Y612905D01*
X824735Y612821D01*
X824647Y612740D01*
X824557Y612661D01*
X824464Y612586D01*
X824369Y612513D01*
X824272Y612444D01*
X824173Y612377D01*
X824071Y612314D01*
X823968Y612254D01*
X823862Y612198D01*
X823755Y612145D01*
X823646Y612095D01*
X823536Y612049D01*
X823425Y612006D01*
X823312Y611967D01*
X823197Y611931D01*
X823082Y611899D01*
X822966Y611871D01*
X822849Y611846D01*
X822731Y611825D01*
X822613Y611808D01*
X822494Y611795D01*
X822375Y611786D01*
X822256Y611780D01*
X822136Y611778D01*
X818072Y615842D02*
X826200Y626002D01*
X835594Y626002D02*
X840674Y630066D01*
X840674Y611778D01*
X835594Y611778D02*
X845754Y611778D01*
X853116Y611778D02*
X859212Y630066D01*
X865308Y611778D01*
X863784Y616350D02*
X854640Y616350D01*
X881720Y623970D02*
X885784Y611778D01*
X889848Y623970D01*
X897388Y620922D02*
X897392Y621282D01*
X897405Y621641D01*
X897427Y622000D01*
X897457Y622359D01*
X897495Y622717D01*
X897542Y623073D01*
X897598Y623429D01*
X897662Y623783D01*
X897735Y624135D01*
X897815Y624486D01*
X897905Y624834D01*
X898002Y625181D01*
X898108Y625525D01*
X898222Y625866D01*
X898344Y626204D01*
X898474Y626540D01*
X898612Y626872D01*
X898758Y627201D01*
X898912Y627526D01*
X898953Y627639D01*
X898997Y627750D01*
X899045Y627859D01*
X899096Y627967D01*
X899150Y628074D01*
X899208Y628178D01*
X899269Y628281D01*
X899334Y628382D01*
X899401Y628481D01*
X899472Y628577D01*
X899546Y628671D01*
X899622Y628763D01*
X899702Y628852D01*
X899784Y628939D01*
X899869Y629023D01*
X899957Y629104D01*
X900047Y629183D01*
X900140Y629258D01*
X900235Y629331D01*
X900332Y629400D01*
X900431Y629467D01*
X900533Y629530D01*
X900636Y629590D01*
X900742Y629646D01*
X900849Y629699D01*
X900958Y629749D01*
X901068Y629795D01*
X901179Y629838D01*
X901292Y629877D01*
X901407Y629913D01*
X901522Y629945D01*
X901638Y629973D01*
X901755Y629998D01*
X901873Y630019D01*
X901991Y630036D01*
X902110Y630049D01*
X902229Y630058D01*
X902348Y630064D01*
X902468Y630066D01*
X902588Y630064D01*
X902707Y630058D01*
X902826Y630049D01*
X902945Y630036D01*
X903063Y630019D01*
X903181Y629998D01*
X903298Y629973D01*
X903414Y629945D01*
X903529Y629913D01*
X903644Y629877D01*
X903757Y629838D01*
X903868Y629795D01*
X903978Y629749D01*
X904087Y629699D01*
X904194Y629646D01*
X904300Y629590D01*
X904403Y629530D01*
X904505Y629467D01*
X904604Y629400D01*
X904701Y629331D01*
X904796Y629258D01*
X904889Y629183D01*
X904979Y629104D01*
X905067Y629023D01*
X905152Y628939D01*
X905234Y628852D01*
X905314Y628763D01*
X905390Y628671D01*
X905464Y628577D01*
X905535Y628481D01*
X905602Y628382D01*
X905667Y628281D01*
X905728Y628178D01*
X905786Y628074D01*
X905840Y627967D01*
X905891Y627859D01*
X905939Y627750D01*
X905983Y627639D01*
X906024Y627526D01*
X906025Y627526D02*
X906179Y627201D01*
X906325Y626872D01*
X906463Y626540D01*
X906593Y626204D01*
X906715Y625866D01*
X906829Y625525D01*
X906935Y625181D01*
X907032Y624834D01*
X907122Y624486D01*
X907202Y624135D01*
X907275Y623783D01*
X907339Y623429D01*
X907395Y623073D01*
X907442Y622717D01*
X907480Y622359D01*
X907510Y622000D01*
X907532Y621641D01*
X907545Y621282D01*
X907549Y620922D01*
X897388Y620922D02*
X897392Y620562D01*
X897405Y620203D01*
X897427Y619844D01*
X897457Y619485D01*
X897495Y619127D01*
X897542Y618771D01*
X897598Y618415D01*
X897662Y618061D01*
X897735Y617709D01*
X897815Y617358D01*
X897905Y617010D01*
X898002Y616663D01*
X898108Y616319D01*
X898222Y615978D01*
X898344Y615640D01*
X898474Y615304D01*
X898612Y614972D01*
X898758Y614643D01*
X898912Y614318D01*
X898953Y614205D01*
X898997Y614094D01*
X899045Y613985D01*
X899096Y613877D01*
X899150Y613770D01*
X899208Y613666D01*
X899269Y613563D01*
X899334Y613462D01*
X899401Y613363D01*
X899472Y613267D01*
X899546Y613173D01*
X899622Y613081D01*
X899702Y612992D01*
X899784Y612905D01*
X899869Y612821D01*
X899957Y612740D01*
X900047Y612661D01*
X900140Y612586D01*
X900235Y612513D01*
X900332Y612444D01*
X900431Y612377D01*
X900533Y612314D01*
X900636Y612254D01*
X900742Y612198D01*
X900849Y612145D01*
X900958Y612095D01*
X901068Y612049D01*
X901179Y612006D01*
X901292Y611967D01*
X901407Y611931D01*
X901522Y611899D01*
X901638Y611871D01*
X901755Y611846D01*
X901873Y611825D01*
X901991Y611808D01*
X902110Y611795D01*
X902229Y611786D01*
X902348Y611780D01*
X902468Y611778D01*
X906025Y614318D02*
X906179Y614643D01*
X906325Y614972D01*
X906463Y615304D01*
X906593Y615640D01*
X906715Y615978D01*
X906829Y616319D01*
X906935Y616663D01*
X907032Y617010D01*
X907122Y617358D01*
X907202Y617709D01*
X907275Y618061D01*
X907339Y618415D01*
X907395Y618771D01*
X907442Y619127D01*
X907480Y619485D01*
X907510Y619844D01*
X907532Y620203D01*
X907545Y620562D01*
X907549Y620922D01*
X906024Y614318D02*
X905983Y614205D01*
X905939Y614094D01*
X905891Y613985D01*
X905840Y613877D01*
X905786Y613770D01*
X905728Y613666D01*
X905667Y613563D01*
X905602Y613462D01*
X905535Y613363D01*
X905464Y613267D01*
X905390Y613173D01*
X905314Y613081D01*
X905234Y612992D01*
X905152Y612905D01*
X905067Y612821D01*
X904979Y612740D01*
X904889Y612661D01*
X904796Y612586D01*
X904701Y612513D01*
X904604Y612444D01*
X904505Y612377D01*
X904403Y612314D01*
X904300Y612254D01*
X904194Y612198D01*
X904087Y612145D01*
X903978Y612095D01*
X903868Y612049D01*
X903757Y612006D01*
X903644Y611967D01*
X903529Y611931D01*
X903414Y611899D01*
X903298Y611871D01*
X903181Y611846D01*
X903063Y611825D01*
X902945Y611808D01*
X902826Y611795D01*
X902707Y611786D01*
X902588Y611780D01*
X902468Y611778D01*
X898404Y615842D02*
X906532Y626002D01*
X914937Y612794D02*
X914937Y611778D01*
X914937Y612794D02*
X915953Y612794D01*
X915953Y611778D01*
X914937Y611778D01*
X923342Y626002D02*
X928422Y630066D01*
X928422Y611778D01*
X923342Y611778D02*
X933502Y611778D01*
D11*
X258120Y121600D02*
X242880Y121600D01*
X242880Y96200D02*
X258120Y96200D01*
D12*
X449200Y79900D03*
X449200Y105300D03*
X474600Y79900D03*
X474600Y105300D03*
X500000Y79900D03*
X500000Y105300D03*
X100300Y78900D03*
X100300Y104300D03*
X125700Y78900D03*
X125700Y104300D03*
X151100Y78900D03*
X151100Y104300D03*
D11*
X615100Y134880D02*
X615100Y150120D01*
X589700Y150120D02*
X589700Y134880D01*
X334800Y129380D02*
X334800Y144620D01*
X309400Y144620D02*
X309400Y129380D01*
D12*
X775400Y76900D03*
X775400Y102300D03*
X800800Y76900D03*
X800800Y102300D03*
X826200Y76900D03*
X826200Y102300D03*
D11*
X312300Y107120D02*
X312300Y91880D01*
X337700Y91880D02*
X337700Y107120D01*
X589000Y106120D02*
X589000Y90880D01*
X614400Y90880D02*
X614400Y106120D01*
D13*
X88100Y341100D03*
X163100Y341100D03*
X88100Y316100D03*
X88100Y291100D03*
X88100Y266100D03*
X88100Y241100D03*
X88100Y216100D03*
X88100Y191100D03*
X163100Y316100D03*
X163100Y291100D03*
X163100Y266100D03*
X163100Y241100D03*
X163100Y216100D03*
X163100Y191100D03*
D14*
X768300Y529000D03*
X833300Y529000D03*
D15*
X768300Y504000D03*
X833300Y504000D03*
X768300Y479000D03*
X833300Y479000D03*
X768300Y454000D03*
X833300Y454000D03*
X768300Y429000D03*
X833300Y429000D03*
D13*
X759900Y338100D03*
X834900Y338100D03*
X759900Y313100D03*
X759900Y288100D03*
X759900Y263100D03*
X759900Y238100D03*
X759900Y213100D03*
X759900Y188100D03*
X834900Y313100D03*
X834900Y288100D03*
X834900Y263100D03*
X834900Y238100D03*
X834900Y213100D03*
X834900Y188100D03*
D14*
X946100Y528800D03*
X1011100Y528800D03*
D15*
X946100Y503800D03*
X1011100Y503800D03*
X946100Y478800D03*
X1011100Y478800D03*
X946100Y453800D03*
X1011100Y453800D03*
X946100Y428800D03*
X1011100Y428800D03*
D14*
X580800Y530800D03*
X645800Y530800D03*
D15*
X580800Y505800D03*
X645800Y505800D03*
X580800Y480800D03*
X645800Y480800D03*
X580800Y455800D03*
X645800Y455800D03*
X580800Y430800D03*
X645800Y430800D03*
D14*
X396500Y527800D03*
X461500Y527800D03*
D15*
X396500Y502800D03*
X461500Y502800D03*
X396500Y477800D03*
X461500Y477800D03*
X396500Y452800D03*
X461500Y452800D03*
X396500Y427800D03*
X461500Y427800D03*
D14*
X220200Y526800D03*
X285200Y526800D03*
D15*
X220200Y501800D03*
X285200Y501800D03*
X220200Y476800D03*
X285200Y476800D03*
X220200Y451800D03*
X285200Y451800D03*
X220200Y426800D03*
X285200Y426800D03*
D14*
X59100Y525500D03*
X124100Y525500D03*
D15*
X59100Y500500D03*
X124100Y500500D03*
X59100Y475500D03*
X124100Y475500D03*
X59100Y450500D03*
X124100Y450500D03*
X59100Y425500D03*
X124100Y425500D03*
D13*
X435500Y338100D03*
X510500Y338100D03*
X435500Y313100D03*
X435500Y288100D03*
X435500Y263100D03*
X435500Y238100D03*
X435500Y213100D03*
X435500Y188100D03*
X510500Y313100D03*
X510500Y288100D03*
X510500Y263100D03*
X510500Y238100D03*
X510500Y213100D03*
X510500Y188100D03*
D12*
X550000Y640000D03*
D16*
X216000Y366000D03*
D17*
X215710Y365996D01*
X215420Y365986D01*
X215131Y365968D01*
X214842Y365944D01*
X214554Y365913D01*
X214266Y365874D01*
X213980Y365829D01*
X213694Y365776D01*
X213411Y365717D01*
X213128Y365651D01*
X212848Y365579D01*
X212569Y365499D01*
X212292Y365413D01*
X212017Y365320D01*
X211745Y365220D01*
X211475Y365114D01*
X211208Y365002D01*
X210943Y364882D01*
X210682Y364757D01*
X210423Y364625D01*
X210168Y364488D01*
X209916Y364344D01*
X209668Y364194D01*
X209424Y364038D01*
X209183Y363876D01*
X208947Y363708D01*
X208714Y363535D01*
X208486Y363356D01*
X208262Y363172D01*
X208043Y362982D01*
X207828Y362787D01*
X207618Y362587D01*
X207413Y362382D01*
X207213Y362172D01*
X207018Y361957D01*
X206828Y361738D01*
X206644Y361514D01*
X206465Y361286D01*
X206292Y361053D01*
X206124Y360817D01*
X205962Y360576D01*
X205806Y360332D01*
X205656Y360084D01*
X205512Y359832D01*
X205375Y359577D01*
X205243Y359318D01*
X205118Y359057D01*
X204998Y358792D01*
X204886Y358525D01*
X204780Y358255D01*
X204680Y357983D01*
X204587Y357708D01*
X204501Y357431D01*
X204421Y357152D01*
X204349Y356872D01*
X204283Y356589D01*
X204224Y356306D01*
X204171Y356020D01*
X204126Y355734D01*
X204087Y355446D01*
X204056Y355158D01*
X204032Y354869D01*
X204014Y354580D01*
X204004Y354290D01*
X204000Y354000D01*
X204000Y318400D01*
D16*
X204000Y245000D03*
D17*
X204000Y318400D01*
D16*
X74000Y143000D03*
D17*
X74004Y143314D01*
X74015Y143628D01*
X74034Y143942D01*
X74061Y144255D01*
X74095Y144567D01*
X74136Y144878D01*
X74186Y145189D01*
X74242Y145498D01*
X74306Y145805D01*
X74378Y146111D01*
X74457Y146415D01*
X74543Y146717D01*
X74636Y147017D01*
X74737Y147315D01*
X74845Y147610D01*
X74960Y147902D01*
X75082Y148192D01*
X75211Y148478D01*
X75346Y148761D01*
X75489Y149041D01*
X75638Y149318D01*
X75794Y149590D01*
X75957Y149859D01*
X76126Y150124D01*
X76301Y150385D01*
X76483Y150641D01*
X76670Y150893D01*
X76864Y151140D01*
X77064Y151383D01*
X77269Y151621D01*
X77481Y151853D01*
X77697Y152081D01*
X77919Y152303D01*
X78147Y152519D01*
X78379Y152731D01*
X78617Y152936D01*
X78860Y153136D01*
X79107Y153330D01*
X79359Y153517D01*
X79615Y153699D01*
X79876Y153874D01*
X80141Y154043D01*
X80410Y154206D01*
X80682Y154362D01*
X80959Y154511D01*
X81239Y154654D01*
X81522Y154789D01*
X81808Y154918D01*
X82098Y155040D01*
X82390Y155155D01*
X82685Y155263D01*
X82983Y155364D01*
X83283Y155457D01*
X83585Y155543D01*
X83889Y155622D01*
X84195Y155694D01*
X84502Y155758D01*
X84811Y155814D01*
X85122Y155864D01*
X85433Y155905D01*
X85745Y155939D01*
X86058Y155966D01*
X86372Y155985D01*
X86686Y155996D01*
X87000Y156000D01*
X178600Y156000D02*
X179214Y156007D01*
X179827Y156030D01*
X180440Y156067D01*
X181051Y156119D01*
X181662Y156185D01*
X182270Y156267D01*
X182876Y156363D01*
X183480Y156473D01*
X184081Y156598D01*
X184679Y156738D01*
X185273Y156892D01*
X185863Y157061D01*
X186449Y157243D01*
X187030Y157440D01*
X187607Y157651D01*
X188178Y157875D01*
X188744Y158113D01*
X189304Y158365D01*
X189857Y158631D01*
X190404Y158909D01*
X190944Y159201D01*
X191477Y159506D01*
X192002Y159824D01*
X192520Y160154D01*
X193029Y160496D01*
X193530Y160851D01*
X194022Y161218D01*
X194505Y161596D01*
X194979Y161986D01*
X195443Y162388D01*
X195898Y162800D01*
X196342Y163224D01*
X196776Y163658D01*
X197200Y164102D01*
X197612Y164557D01*
X198014Y165021D01*
X198404Y165495D01*
X198782Y165978D01*
X199149Y166470D01*
X199504Y166971D01*
X199846Y167480D01*
X200176Y167998D01*
X200494Y168523D01*
X200799Y169056D01*
X201091Y169596D01*
X201369Y170143D01*
X201635Y170696D01*
X201887Y171256D01*
X202125Y171822D01*
X202349Y172393D01*
X202560Y172970D01*
X202757Y173551D01*
X202939Y174137D01*
X203108Y174727D01*
X203262Y175321D01*
X203402Y175919D01*
X203527Y176520D01*
X203637Y177124D01*
X203733Y177730D01*
X203815Y178338D01*
X203881Y178949D01*
X203933Y179560D01*
X203970Y180173D01*
X203993Y180786D01*
X204000Y181400D01*
X204000Y245000D01*
X178600Y156000D02*
X87000Y156000D01*
D16*
X430000Y144000D03*
D17*
X430004Y144290D01*
X430014Y144580D01*
X430032Y144869D01*
X430056Y145158D01*
X430087Y145446D01*
X430126Y145734D01*
X430171Y146020D01*
X430224Y146306D01*
X430283Y146589D01*
X430349Y146872D01*
X430421Y147152D01*
X430501Y147431D01*
X430587Y147708D01*
X430680Y147983D01*
X430780Y148255D01*
X430886Y148525D01*
X430998Y148792D01*
X431118Y149057D01*
X431243Y149318D01*
X431375Y149577D01*
X431512Y149832D01*
X431656Y150084D01*
X431806Y150332D01*
X431962Y150576D01*
X432124Y150817D01*
X432292Y151053D01*
X432465Y151286D01*
X432644Y151514D01*
X432828Y151738D01*
X433018Y151957D01*
X433213Y152172D01*
X433413Y152382D01*
X433618Y152587D01*
X433828Y152787D01*
X434043Y152982D01*
X434262Y153172D01*
X434486Y153356D01*
X434714Y153535D01*
X434947Y153708D01*
X435183Y153876D01*
X435424Y154038D01*
X435668Y154194D01*
X435916Y154344D01*
X436168Y154488D01*
X436423Y154625D01*
X436682Y154757D01*
X436943Y154882D01*
X437208Y155002D01*
X437475Y155114D01*
X437745Y155220D01*
X438017Y155320D01*
X438292Y155413D01*
X438569Y155499D01*
X438848Y155579D01*
X439128Y155651D01*
X439411Y155717D01*
X439694Y155776D01*
X439980Y155829D01*
X440266Y155874D01*
X440554Y155913D01*
X440842Y155944D01*
X441131Y155968D01*
X441420Y155986D01*
X441710Y155996D01*
X442000Y156000D01*
X522600Y156000D02*
X523214Y156007D01*
X523827Y156030D01*
X524440Y156067D01*
X525051Y156119D01*
X525662Y156185D01*
X526270Y156267D01*
X526876Y156363D01*
X527480Y156473D01*
X528081Y156598D01*
X528679Y156738D01*
X529273Y156892D01*
X529863Y157061D01*
X530449Y157243D01*
X531030Y157440D01*
X531607Y157651D01*
X532178Y157875D01*
X532744Y158113D01*
X533304Y158365D01*
X533857Y158631D01*
X534404Y158909D01*
X534944Y159201D01*
X535477Y159506D01*
X536002Y159824D01*
X536520Y160154D01*
X537029Y160496D01*
X537530Y160851D01*
X538022Y161218D01*
X538505Y161596D01*
X538979Y161986D01*
X539443Y162388D01*
X539898Y162800D01*
X540342Y163224D01*
X540776Y163658D01*
X541200Y164102D01*
X541612Y164557D01*
X542014Y165021D01*
X542404Y165495D01*
X542782Y165978D01*
X543149Y166470D01*
X543504Y166971D01*
X543846Y167480D01*
X544176Y167998D01*
X544494Y168523D01*
X544799Y169056D01*
X545091Y169596D01*
X545369Y170143D01*
X545635Y170696D01*
X545887Y171256D01*
X546125Y171822D01*
X546349Y172393D01*
X546560Y172970D01*
X546757Y173551D01*
X546939Y174137D01*
X547108Y174727D01*
X547262Y175321D01*
X547402Y175919D01*
X547527Y176520D01*
X547637Y177124D01*
X547733Y177730D01*
X547815Y178338D01*
X547881Y178949D01*
X547933Y179560D01*
X547970Y180173D01*
X547993Y180786D01*
X548000Y181400D01*
X548000Y211000D01*
D16*
X548000Y211000D03*
D17*
X522600Y156000D02*
X442000Y156000D01*
D16*
X542500Y315500D03*
D17*
X542500Y216500D01*
X542502Y216354D01*
X542508Y216207D01*
X542518Y216061D01*
X542531Y215915D01*
X542549Y215770D01*
X542570Y215625D01*
X542595Y215481D01*
X542624Y215337D01*
X542657Y215195D01*
X542694Y215053D01*
X542734Y214912D01*
X542778Y214773D01*
X542826Y214634D01*
X542878Y214497D01*
X542933Y214361D01*
X542992Y214227D01*
X543054Y214095D01*
X543120Y213964D01*
X543189Y213835D01*
X543261Y213708D01*
X543337Y213583D01*
X543417Y213460D01*
X543499Y213339D01*
X543585Y213220D01*
X543674Y213104D01*
X543766Y212990D01*
X543861Y212878D01*
X543959Y212769D01*
X544059Y212663D01*
X544163Y212559D01*
X544269Y212459D01*
X544378Y212361D01*
X544490Y212266D01*
X544604Y212174D01*
X544720Y212085D01*
X544839Y211999D01*
X544960Y211917D01*
X545083Y211837D01*
X545208Y211761D01*
X545335Y211689D01*
X545464Y211620D01*
X545595Y211554D01*
X545727Y211492D01*
X545861Y211433D01*
X545997Y211378D01*
X546134Y211326D01*
X546273Y211278D01*
X546412Y211234D01*
X546553Y211194D01*
X546695Y211157D01*
X546837Y211124D01*
X546981Y211095D01*
X547125Y211070D01*
X547270Y211049D01*
X547415Y211031D01*
X547561Y211018D01*
X547707Y211008D01*
X547854Y211002D01*
X548000Y211000D01*
D16*
X56000Y565000D03*
X899000Y313000D03*
D17*
X899000Y182000D01*
X899004Y181686D01*
X899015Y181372D01*
X899034Y181058D01*
X899061Y180745D01*
X899095Y180433D01*
X899136Y180122D01*
X899186Y179811D01*
X899242Y179502D01*
X899306Y179195D01*
X899378Y178889D01*
X899457Y178585D01*
X899543Y178283D01*
X899636Y177983D01*
X899737Y177685D01*
X899845Y177390D01*
X899960Y177098D01*
X900082Y176808D01*
X900211Y176522D01*
X900346Y176239D01*
X900489Y175959D01*
X900638Y175682D01*
X900794Y175410D01*
X900957Y175141D01*
X901126Y174876D01*
X901301Y174615D01*
X901483Y174359D01*
X901670Y174107D01*
X901864Y173860D01*
X902064Y173617D01*
X902269Y173379D01*
X902481Y173147D01*
X902697Y172919D01*
X902919Y172697D01*
X903147Y172481D01*
X903379Y172269D01*
X903617Y172064D01*
X903860Y171864D01*
X904107Y171670D01*
X904359Y171483D01*
X904615Y171301D01*
X904876Y171126D01*
X905141Y170957D01*
X905410Y170794D01*
X905682Y170638D01*
X905959Y170489D01*
X906239Y170346D01*
X906522Y170211D01*
X906808Y170082D01*
X907098Y169960D01*
X907390Y169845D01*
X907685Y169737D01*
X907983Y169636D01*
X908283Y169543D01*
X908585Y169457D01*
X908889Y169378D01*
X909195Y169306D01*
X909502Y169242D01*
X909811Y169186D01*
X910122Y169136D01*
X910433Y169095D01*
X910745Y169061D01*
X911058Y169034D01*
X911372Y169015D01*
X911686Y169004D01*
X912000Y169000D01*
D16*
X912000Y169000D03*
D17*
X899000Y182000D02*
X898860Y181998D01*
X898720Y181992D01*
X898580Y181982D01*
X898440Y181969D01*
X898301Y181951D01*
X898162Y181929D01*
X898025Y181904D01*
X897887Y181875D01*
X897751Y181842D01*
X897616Y181805D01*
X897482Y181764D01*
X897349Y181719D01*
X897217Y181671D01*
X897087Y181619D01*
X896958Y181564D01*
X896831Y181505D01*
X896705Y181442D01*
X896581Y181376D01*
X896460Y181307D01*
X896340Y181234D01*
X896222Y181157D01*
X896107Y181078D01*
X895993Y180995D01*
X895883Y180909D01*
X895774Y180820D01*
X895668Y180728D01*
X895565Y180633D01*
X895464Y180536D01*
X895367Y180435D01*
X895272Y180332D01*
X895180Y180226D01*
X895091Y180117D01*
X895005Y180007D01*
X894922Y179893D01*
X894843Y179778D01*
X894766Y179660D01*
X894693Y179540D01*
X894624Y179419D01*
X894558Y179295D01*
X894495Y179169D01*
X894436Y179042D01*
X894381Y178913D01*
X894329Y178783D01*
X894281Y178651D01*
X894236Y178518D01*
X894195Y178384D01*
X894158Y178249D01*
X894125Y178113D01*
X894096Y177975D01*
X894071Y177838D01*
X894049Y177699D01*
X894031Y177560D01*
X894018Y177420D01*
X894008Y177280D01*
X894002Y177140D01*
X894000Y177000D01*
X894000Y62400D02*
X893993Y61786D01*
X893970Y61173D01*
X893933Y60560D01*
X893881Y59949D01*
X893815Y59338D01*
X893733Y58730D01*
X893637Y58124D01*
X893527Y57520D01*
X893402Y56919D01*
X893262Y56321D01*
X893108Y55727D01*
X892939Y55137D01*
X892757Y54551D01*
X892560Y53970D01*
X892349Y53393D01*
X892125Y52822D01*
X891887Y52256D01*
X891635Y51696D01*
X891369Y51143D01*
X891091Y50596D01*
X890799Y50056D01*
X890494Y49523D01*
X890176Y48998D01*
X889846Y48480D01*
X889504Y47971D01*
X889149Y47470D01*
X888782Y46978D01*
X888404Y46495D01*
X888014Y46021D01*
X887612Y45557D01*
X887200Y45102D01*
X886776Y44658D01*
X886342Y44224D01*
X885898Y43800D01*
X885443Y43388D01*
X884979Y42986D01*
X884505Y42596D01*
X884022Y42218D01*
X883530Y41851D01*
X883029Y41496D01*
X882520Y41154D01*
X882002Y40824D01*
X881477Y40506D01*
X880944Y40201D01*
X880404Y39909D01*
X879857Y39631D01*
X879304Y39365D01*
X878744Y39113D01*
X878178Y38875D01*
X877607Y38651D01*
X877030Y38440D01*
X876449Y38243D01*
X875863Y38061D01*
X875273Y37892D01*
X874679Y37738D01*
X874081Y37598D01*
X873480Y37473D01*
X872876Y37363D01*
X872270Y37267D01*
X871662Y37185D01*
X871051Y37119D01*
X870440Y37067D01*
X869827Y37030D01*
X869214Y37007D01*
X868600Y37000D01*
X744400Y37000D02*
X743786Y37007D01*
X743173Y37030D01*
X742560Y37067D01*
X741949Y37119D01*
X741338Y37185D01*
X740730Y37267D01*
X740124Y37363D01*
X739520Y37473D01*
X738919Y37598D01*
X738321Y37738D01*
X737727Y37892D01*
X737137Y38061D01*
X736551Y38243D01*
X735970Y38440D01*
X735393Y38651D01*
X734822Y38875D01*
X734256Y39113D01*
X733696Y39365D01*
X733143Y39631D01*
X732596Y39909D01*
X732056Y40201D01*
X731523Y40506D01*
X730998Y40824D01*
X730480Y41154D01*
X729971Y41496D01*
X729470Y41851D01*
X728978Y42218D01*
X728495Y42596D01*
X728021Y42986D01*
X727557Y43388D01*
X727102Y43800D01*
X726658Y44224D01*
X726224Y44658D01*
X725800Y45102D01*
X725388Y45557D01*
X724986Y46021D01*
X724596Y46495D01*
X724218Y46978D01*
X723851Y47470D01*
X723496Y47971D01*
X723154Y48480D01*
X722824Y48998D01*
X722506Y49523D01*
X722201Y50056D01*
X721909Y50596D01*
X721631Y51143D01*
X721365Y51696D01*
X721113Y52256D01*
X720875Y52822D01*
X720651Y53393D01*
X720440Y53970D01*
X720243Y54551D01*
X720061Y55137D01*
X719892Y55727D01*
X719738Y56321D01*
X719598Y56919D01*
X719473Y57520D01*
X719363Y58124D01*
X719267Y58730D01*
X719185Y59338D01*
X719119Y59949D01*
X719067Y60560D01*
X719030Y61173D01*
X719007Y61786D01*
X719000Y62400D01*
X719000Y76000D01*
D16*
X719000Y76000D03*
D17*
X894000Y62400D02*
X894000Y177000D01*
X868600Y37000D02*
X744400Y37000D01*
X655000Y330600D02*
X654993Y331214D01*
X654970Y331827D01*
X654933Y332440D01*
X654881Y333051D01*
X654815Y333662D01*
X654733Y334270D01*
X654637Y334876D01*
X654527Y335480D01*
X654402Y336081D01*
X654262Y336679D01*
X654108Y337273D01*
X653939Y337863D01*
X653757Y338449D01*
X653560Y339030D01*
X653349Y339607D01*
X653125Y340178D01*
X652887Y340744D01*
X652635Y341304D01*
X652369Y341857D01*
X652091Y342404D01*
X651799Y342944D01*
X651494Y343477D01*
X651176Y344002D01*
X650846Y344520D01*
X650504Y345029D01*
X650149Y345530D01*
X649782Y346022D01*
X649404Y346505D01*
X649014Y346979D01*
X648612Y347443D01*
X648200Y347898D01*
X647776Y348342D01*
X647342Y348776D01*
X646898Y349200D01*
X646443Y349612D01*
X645979Y350014D01*
X645505Y350404D01*
X645022Y350782D01*
X644530Y351149D01*
X644029Y351504D01*
X643520Y351846D01*
X643002Y352176D01*
X642477Y352494D01*
X641944Y352799D01*
X641404Y353091D01*
X640857Y353369D01*
X640304Y353635D01*
X639744Y353887D01*
X639178Y354125D01*
X638607Y354349D01*
X638030Y354560D01*
X637449Y354757D01*
X636863Y354939D01*
X636273Y355108D01*
X635679Y355262D01*
X635081Y355402D01*
X634480Y355527D01*
X633876Y355637D01*
X633270Y355733D01*
X632662Y355815D01*
X632051Y355881D01*
X631440Y355933D01*
X630827Y355970D01*
X630214Y355993D01*
X629600Y356000D01*
X655000Y62400D02*
X655007Y61786D01*
X655030Y61173D01*
X655067Y60560D01*
X655119Y59949D01*
X655185Y59338D01*
X655267Y58730D01*
X655363Y58124D01*
X655473Y57520D01*
X655598Y56919D01*
X655738Y56321D01*
X655892Y55727D01*
X656061Y55137D01*
X656243Y54551D01*
X656440Y53970D01*
X656651Y53393D01*
X656875Y52822D01*
X657113Y52256D01*
X657365Y51696D01*
X657631Y51143D01*
X657909Y50596D01*
X658201Y50056D01*
X658506Y49523D01*
X658824Y48998D01*
X659154Y48480D01*
X659496Y47971D01*
X659851Y47470D01*
X660218Y46978D01*
X660596Y46495D01*
X660986Y46021D01*
X661388Y45557D01*
X661800Y45102D01*
X662224Y44658D01*
X662658Y44224D01*
X663102Y43800D01*
X663557Y43388D01*
X664021Y42986D01*
X664495Y42596D01*
X664978Y42218D01*
X665470Y41851D01*
X665971Y41496D01*
X666480Y41154D01*
X666998Y40824D01*
X667523Y40506D01*
X668056Y40201D01*
X668596Y39909D01*
X669143Y39631D01*
X669696Y39365D01*
X670256Y39113D01*
X670822Y38875D01*
X671393Y38651D01*
X671970Y38440D01*
X672551Y38243D01*
X673137Y38061D01*
X673727Y37892D01*
X674321Y37738D01*
X674919Y37598D01*
X675520Y37473D01*
X676124Y37363D01*
X676730Y37267D01*
X677338Y37185D01*
X677949Y37119D01*
X678560Y37067D01*
X679173Y37030D01*
X679786Y37007D01*
X680400Y37000D01*
X744400Y37000D01*
X655000Y62400D02*
X655000Y330600D01*
X629600Y356000D02*
X607000Y356000D01*
X606874Y355998D01*
X606749Y355992D01*
X606624Y355982D01*
X606499Y355968D01*
X606374Y355951D01*
X606250Y355929D01*
X606127Y355904D01*
X606005Y355874D01*
X605884Y355841D01*
X605764Y355804D01*
X605645Y355764D01*
X605528Y355719D01*
X605411Y355671D01*
X605297Y355619D01*
X605184Y355564D01*
X605073Y355505D01*
X604964Y355443D01*
X604857Y355377D01*
X604752Y355308D01*
X604649Y355236D01*
X604548Y355161D01*
X604450Y355082D01*
X604355Y355000D01*
X604262Y354916D01*
X604172Y354828D01*
X604084Y354738D01*
X604000Y354645D01*
X603918Y354550D01*
X603839Y354452D01*
X603764Y354351D01*
X603692Y354248D01*
X603623Y354143D01*
X603557Y354036D01*
X603495Y353927D01*
X603436Y353816D01*
X603381Y353703D01*
X603329Y353589D01*
X603281Y353472D01*
X603236Y353355D01*
X603196Y353236D01*
X603159Y353116D01*
X603126Y352995D01*
X603096Y352873D01*
X603071Y352750D01*
X603049Y352626D01*
X603032Y352501D01*
X603018Y352376D01*
X603008Y352251D01*
X603002Y352126D01*
X603000Y352000D01*
X602924Y352002D01*
X602848Y352008D01*
X602773Y352017D01*
X602698Y352031D01*
X602624Y352048D01*
X602551Y352069D01*
X602479Y352093D01*
X602408Y352122D01*
X602339Y352153D01*
X602272Y352188D01*
X602207Y352227D01*
X602143Y352269D01*
X602082Y352314D01*
X602023Y352362D01*
X601967Y352413D01*
X601913Y352467D01*
X601862Y352523D01*
X601814Y352582D01*
X601769Y352643D01*
X601727Y352707D01*
X601688Y352772D01*
X601653Y352839D01*
X601622Y352908D01*
X601593Y352979D01*
X601569Y353051D01*
X601548Y353124D01*
X601531Y353198D01*
X601517Y353273D01*
X601508Y353348D01*
X601502Y353424D01*
X601500Y353500D01*
D16*
X601500Y353500D03*
D17*
X229400Y293000D02*
X228786Y293007D01*
X228173Y293030D01*
X227560Y293067D01*
X226949Y293119D01*
X226338Y293185D01*
X225730Y293267D01*
X225124Y293363D01*
X224520Y293473D01*
X223919Y293598D01*
X223321Y293738D01*
X222727Y293892D01*
X222137Y294061D01*
X221551Y294243D01*
X220970Y294440D01*
X220393Y294651D01*
X219822Y294875D01*
X219256Y295113D01*
X218696Y295365D01*
X218143Y295631D01*
X217596Y295909D01*
X217056Y296201D01*
X216523Y296506D01*
X215998Y296824D01*
X215480Y297154D01*
X214971Y297496D01*
X214470Y297851D01*
X213978Y298218D01*
X213495Y298596D01*
X213021Y298986D01*
X212557Y299388D01*
X212102Y299800D01*
X211658Y300224D01*
X211224Y300658D01*
X210800Y301102D01*
X210388Y301557D01*
X209986Y302021D01*
X209596Y302495D01*
X209218Y302978D01*
X208851Y303470D01*
X208496Y303971D01*
X208154Y304480D01*
X207824Y304998D01*
X207506Y305523D01*
X207201Y306056D01*
X206909Y306596D01*
X206631Y307143D01*
X206365Y307696D01*
X206113Y308256D01*
X205875Y308822D01*
X205651Y309393D01*
X205440Y309970D01*
X205243Y310551D01*
X205061Y311137D01*
X204892Y311727D01*
X204738Y312321D01*
X204598Y312919D01*
X204473Y313520D01*
X204363Y314124D01*
X204267Y314730D01*
X204185Y315338D01*
X204119Y315949D01*
X204067Y316560D01*
X204030Y317173D01*
X204007Y317786D01*
X204000Y318400D01*
X229400Y293000D02*
X333000Y293000D01*
X333580Y292993D01*
X334160Y292972D01*
X334738Y292937D01*
X335316Y292888D01*
X335893Y292825D01*
X336468Y292748D01*
X337041Y292657D01*
X337611Y292553D01*
X338179Y292435D01*
X338744Y292303D01*
X339305Y292157D01*
X339863Y291998D01*
X340416Y291825D01*
X340966Y291639D01*
X341511Y291440D01*
X342050Y291228D01*
X342585Y291003D01*
X343114Y290765D01*
X343637Y290514D01*
X344153Y290251D01*
X344664Y289975D01*
X345167Y289687D01*
X345663Y289387D01*
X346152Y289075D01*
X346634Y288752D01*
X347107Y288416D01*
X347572Y288070D01*
X348028Y287712D01*
X348476Y287344D01*
X348915Y286964D01*
X349344Y286574D01*
X349764Y286174D01*
X350174Y285764D01*
X350574Y285344D01*
X350964Y284915D01*
X351344Y284476D01*
X351712Y284028D01*
X352070Y283572D01*
X352416Y283107D01*
X352752Y282634D01*
X353075Y282152D01*
X353387Y281663D01*
X353687Y281167D01*
X353975Y280664D01*
X354251Y280153D01*
X354514Y279637D01*
X354765Y279114D01*
X355003Y278585D01*
X355228Y278050D01*
X355440Y277511D01*
X355639Y276966D01*
X355825Y276416D01*
X355998Y275863D01*
X356157Y275305D01*
X356303Y274744D01*
X356435Y274179D01*
X356553Y273611D01*
X356657Y273041D01*
X356748Y272468D01*
X356825Y271893D01*
X356888Y271316D01*
X356937Y270738D01*
X356972Y270160D01*
X356993Y269580D01*
X357000Y269000D01*
X357000Y190400D02*
X357007Y189786D01*
X357030Y189173D01*
X357067Y188560D01*
X357119Y187949D01*
X357185Y187338D01*
X357267Y186730D01*
X357363Y186124D01*
X357473Y185520D01*
X357598Y184919D01*
X357738Y184321D01*
X357892Y183727D01*
X358061Y183137D01*
X358243Y182551D01*
X358440Y181970D01*
X358651Y181393D01*
X358875Y180822D01*
X359113Y180256D01*
X359365Y179696D01*
X359631Y179143D01*
X359909Y178596D01*
X360201Y178056D01*
X360506Y177523D01*
X360824Y176998D01*
X361154Y176480D01*
X361496Y175971D01*
X361851Y175470D01*
X362218Y174978D01*
X362596Y174495D01*
X362986Y174021D01*
X363388Y173557D01*
X363800Y173102D01*
X364224Y172658D01*
X364658Y172224D01*
X365102Y171800D01*
X365557Y171388D01*
X366021Y170986D01*
X366495Y170596D01*
X366978Y170218D01*
X367470Y169851D01*
X367971Y169496D01*
X368480Y169154D01*
X368998Y168824D01*
X369523Y168506D01*
X370056Y168201D01*
X370596Y167909D01*
X371143Y167631D01*
X371696Y167365D01*
X372256Y167113D01*
X372822Y166875D01*
X373393Y166651D01*
X373970Y166440D01*
X374551Y166243D01*
X375137Y166061D01*
X375727Y165892D01*
X376321Y165738D01*
X376919Y165598D01*
X377520Y165473D01*
X378124Y165363D01*
X378730Y165267D01*
X379338Y165185D01*
X379949Y165119D01*
X380560Y165067D01*
X381173Y165030D01*
X381786Y165007D01*
X382400Y165000D01*
X414000Y165000D01*
X414387Y164995D01*
X414773Y164981D01*
X415159Y164958D01*
X415544Y164925D01*
X415929Y164883D01*
X416312Y164832D01*
X416694Y164772D01*
X417074Y164702D01*
X417453Y164623D01*
X417829Y164535D01*
X418203Y164438D01*
X418575Y164332D01*
X418944Y164217D01*
X419311Y164093D01*
X419674Y163960D01*
X420034Y163819D01*
X420390Y163669D01*
X420742Y163510D01*
X421091Y163343D01*
X421436Y163167D01*
X421776Y162983D01*
X422111Y162792D01*
X422442Y162591D01*
X422768Y162384D01*
X423089Y162168D01*
X423405Y161944D01*
X423715Y161713D01*
X424019Y161475D01*
X424317Y161229D01*
X424610Y160976D01*
X424896Y160716D01*
X425176Y160450D01*
X425450Y160176D01*
X425716Y159896D01*
X425976Y159610D01*
X426229Y159317D01*
X426475Y159019D01*
X426713Y158715D01*
X426944Y158405D01*
X427168Y158089D01*
X427384Y157768D01*
X427591Y157442D01*
X427792Y157111D01*
X427983Y156776D01*
X428167Y156436D01*
X428343Y156091D01*
X428510Y155742D01*
X428669Y155390D01*
X428819Y155034D01*
X428960Y154674D01*
X429093Y154311D01*
X429217Y153944D01*
X429332Y153575D01*
X429438Y153203D01*
X429535Y152829D01*
X429623Y152453D01*
X429702Y152074D01*
X429772Y151694D01*
X429832Y151312D01*
X429883Y150929D01*
X429925Y150544D01*
X429958Y150159D01*
X429981Y149773D01*
X429995Y149387D01*
X430000Y149000D01*
X430000Y144000D01*
X357000Y190400D02*
X357000Y269000D01*
X56000Y565000D02*
X56000Y647600D01*
X56007Y648214D01*
X56030Y648827D01*
X56067Y649440D01*
X56119Y650051D01*
X56185Y650662D01*
X56267Y651270D01*
X56363Y651876D01*
X56473Y652480D01*
X56598Y653081D01*
X56738Y653679D01*
X56892Y654273D01*
X57061Y654863D01*
X57243Y655449D01*
X57440Y656030D01*
X57651Y656607D01*
X57875Y657178D01*
X58113Y657744D01*
X58365Y658304D01*
X58631Y658857D01*
X58909Y659404D01*
X59201Y659944D01*
X59506Y660477D01*
X59824Y661002D01*
X60154Y661520D01*
X60496Y662029D01*
X60851Y662530D01*
X61218Y663022D01*
X61596Y663505D01*
X61986Y663979D01*
X62388Y664443D01*
X62800Y664898D01*
X63224Y665342D01*
X63658Y665776D01*
X64102Y666200D01*
X64557Y666612D01*
X65021Y667014D01*
X65495Y667404D01*
X65978Y667782D01*
X66470Y668149D01*
X66971Y668504D01*
X67480Y668846D01*
X67998Y669176D01*
X68523Y669494D01*
X69056Y669799D01*
X69596Y670091D01*
X70143Y670369D01*
X70696Y670635D01*
X71256Y670887D01*
X71822Y671125D01*
X72393Y671349D01*
X72970Y671560D01*
X73551Y671757D01*
X74137Y671939D01*
X74727Y672108D01*
X75321Y672262D01*
X75919Y672402D01*
X76520Y672527D01*
X77124Y672637D01*
X77730Y672733D01*
X78338Y672815D01*
X78949Y672881D01*
X79560Y672933D01*
X80173Y672970D01*
X80786Y672993D01*
X81400Y673000D01*
X197000Y673000D01*
D16*
X197000Y673000D03*
X284000Y198000D03*
D17*
X253000Y198000D01*
X252444Y197993D01*
X251889Y197973D01*
X251334Y197940D01*
X250780Y197893D01*
X250228Y197832D01*
X249677Y197759D01*
X249128Y197672D01*
X248581Y197572D01*
X248037Y197458D01*
X247496Y197332D01*
X246958Y197192D01*
X246423Y197040D01*
X245893Y196874D01*
X245366Y196696D01*
X244844Y196505D01*
X244327Y196302D01*
X243815Y196086D01*
X243308Y195858D01*
X242807Y195618D01*
X242311Y195365D01*
X241822Y195101D01*
X241340Y194825D01*
X240864Y194538D01*
X240396Y194239D01*
X239935Y193929D01*
X239481Y193607D01*
X239035Y193275D01*
X238598Y192933D01*
X238169Y192579D01*
X237748Y192216D01*
X237337Y191842D01*
X236934Y191459D01*
X236541Y191066D01*
X236158Y190663D01*
X235784Y190252D01*
X235421Y189831D01*
X235067Y189402D01*
X234725Y188965D01*
X234393Y188519D01*
X234071Y188065D01*
X233761Y187604D01*
X233462Y187136D01*
X233175Y186660D01*
X232899Y186178D01*
X232635Y185689D01*
X232382Y185193D01*
X232142Y184692D01*
X231914Y184185D01*
X231698Y183673D01*
X231495Y183156D01*
X231304Y182634D01*
X231126Y182107D01*
X230960Y181577D01*
X230808Y181042D01*
X230668Y180504D01*
X230542Y179963D01*
X230428Y179419D01*
X230328Y178872D01*
X230241Y178323D01*
X230168Y177772D01*
X230107Y177220D01*
X230060Y176666D01*
X230027Y176111D01*
X230007Y175556D01*
X230000Y175000D01*
X230000Y158400D02*
X229993Y157786D01*
X229970Y157173D01*
X229933Y156560D01*
X229881Y155949D01*
X229815Y155338D01*
X229733Y154730D01*
X229637Y154124D01*
X229527Y153520D01*
X229402Y152919D01*
X229262Y152321D01*
X229108Y151727D01*
X228939Y151137D01*
X228757Y150551D01*
X228560Y149970D01*
X228349Y149393D01*
X228125Y148822D01*
X227887Y148256D01*
X227635Y147696D01*
X227369Y147143D01*
X227091Y146596D01*
X226799Y146056D01*
X226494Y145523D01*
X226176Y144998D01*
X225846Y144480D01*
X225504Y143971D01*
X225149Y143470D01*
X224782Y142978D01*
X224404Y142495D01*
X224014Y142021D01*
X223612Y141557D01*
X223200Y141102D01*
X222776Y140658D01*
X222342Y140224D01*
X221898Y139800D01*
X221443Y139388D01*
X220979Y138986D01*
X220505Y138596D01*
X220022Y138218D01*
X219530Y137851D01*
X219029Y137496D01*
X218520Y137154D01*
X218002Y136824D01*
X217477Y136506D01*
X216944Y136201D01*
X216404Y135909D01*
X215857Y135631D01*
X215304Y135365D01*
X214744Y135113D01*
X214178Y134875D01*
X213607Y134651D01*
X213030Y134440D01*
X212449Y134243D01*
X211863Y134061D01*
X211273Y133892D01*
X210679Y133738D01*
X210081Y133598D01*
X209480Y133473D01*
X208876Y133363D01*
X208270Y133267D01*
X207662Y133185D01*
X207051Y133119D01*
X206440Y133067D01*
X205827Y133030D01*
X205214Y133007D01*
X204600Y133000D01*
D16*
X198000Y133000D03*
D17*
X230000Y158400D02*
X230000Y175000D01*
X204600Y133000D02*
X198000Y133000D01*
D16*
X549000Y92000D03*
D17*
X549000Y139000D01*
X549002Y139193D01*
X549009Y139387D01*
X549021Y139579D01*
X549037Y139772D01*
X549058Y139964D01*
X549084Y140156D01*
X549114Y140347D01*
X549149Y140537D01*
X549188Y140726D01*
X549232Y140915D01*
X549281Y141102D01*
X549334Y141288D01*
X549392Y141472D01*
X549454Y141655D01*
X549520Y141837D01*
X549591Y142017D01*
X549666Y142195D01*
X549745Y142371D01*
X549829Y142546D01*
X549916Y142718D01*
X550008Y142888D01*
X550104Y143056D01*
X550204Y143221D01*
X550308Y143384D01*
X550416Y143545D01*
X550528Y143702D01*
X550643Y143857D01*
X550763Y144009D01*
X550885Y144159D01*
X551012Y144305D01*
X551142Y144448D01*
X551275Y144588D01*
X551412Y144725D01*
X551552Y144858D01*
X551695Y144988D01*
X551841Y145115D01*
X551991Y145237D01*
X552143Y145357D01*
X552298Y145472D01*
X552455Y145584D01*
X552616Y145692D01*
X552779Y145796D01*
X552944Y145896D01*
X553112Y145992D01*
X553282Y146084D01*
X553454Y146171D01*
X553629Y146255D01*
X553805Y146334D01*
X553983Y146409D01*
X554163Y146480D01*
X554345Y146546D01*
X554528Y146608D01*
X554712Y146666D01*
X554898Y146719D01*
X555085Y146768D01*
X555274Y146812D01*
X555463Y146851D01*
X555653Y146886D01*
X555844Y146916D01*
X556036Y146942D01*
X556228Y146963D01*
X556421Y146979D01*
X556613Y146991D01*
X556807Y146998D01*
X557000Y147000D01*
X557193Y147002D01*
X557387Y147009D01*
X557579Y147021D01*
X557772Y147037D01*
X557964Y147058D01*
X558156Y147084D01*
X558347Y147114D01*
X558537Y147149D01*
X558726Y147188D01*
X558915Y147232D01*
X559102Y147281D01*
X559288Y147334D01*
X559472Y147392D01*
X559655Y147454D01*
X559837Y147520D01*
X560017Y147591D01*
X560195Y147666D01*
X560371Y147745D01*
X560546Y147829D01*
X560718Y147916D01*
X560888Y148008D01*
X561056Y148104D01*
X561221Y148204D01*
X561384Y148308D01*
X561545Y148416D01*
X561702Y148528D01*
X561857Y148643D01*
X562009Y148763D01*
X562159Y148885D01*
X562305Y149012D01*
X562448Y149142D01*
X562588Y149275D01*
X562725Y149412D01*
X562858Y149552D01*
X562988Y149695D01*
X563115Y149841D01*
X563237Y149991D01*
X563357Y150143D01*
X563472Y150298D01*
X563584Y150455D01*
X563692Y150616D01*
X563796Y150779D01*
X563896Y150944D01*
X563992Y151112D01*
X564084Y151282D01*
X564171Y151454D01*
X564255Y151629D01*
X564334Y151805D01*
X564409Y151983D01*
X564480Y152163D01*
X564546Y152345D01*
X564608Y152528D01*
X564666Y152712D01*
X564719Y152898D01*
X564768Y153085D01*
X564812Y153274D01*
X564851Y153463D01*
X564886Y153653D01*
X564916Y153844D01*
X564942Y154036D01*
X564963Y154228D01*
X564979Y154421D01*
X564991Y154613D01*
X564998Y154807D01*
X565000Y155000D01*
X565000Y162000D01*
X565007Y162604D01*
X565029Y163208D01*
X565066Y163811D01*
X565117Y164413D01*
X565182Y165013D01*
X565262Y165612D01*
X565357Y166209D01*
X565466Y166803D01*
X565589Y167395D01*
X565726Y167983D01*
X565878Y168568D01*
X566044Y169149D01*
X566224Y169725D01*
X566417Y170298D01*
X566625Y170865D01*
X566846Y171427D01*
X567080Y171984D01*
X567328Y172535D01*
X567589Y173080D01*
X567864Y173618D01*
X568151Y174150D01*
X568451Y174674D01*
X568763Y175191D01*
X569088Y175700D01*
X569425Y176202D01*
X569775Y176695D01*
X570136Y177179D01*
X570508Y177655D01*
X570892Y178121D01*
X571287Y178578D01*
X571693Y179025D01*
X572110Y179463D01*
X572537Y179890D01*
X572975Y180307D01*
X573422Y180713D01*
X573879Y181108D01*
X574345Y181492D01*
X574821Y181864D01*
X575305Y182225D01*
X575798Y182575D01*
X576300Y182912D01*
X576809Y183237D01*
X577326Y183549D01*
X577850Y183849D01*
X578382Y184136D01*
X578920Y184411D01*
X579465Y184672D01*
X580016Y184920D01*
X580573Y185154D01*
X581135Y185375D01*
X581702Y185583D01*
X582275Y185776D01*
X582851Y185956D01*
X583432Y186122D01*
X584017Y186274D01*
X584605Y186411D01*
X585197Y186534D01*
X585791Y186643D01*
X586388Y186738D01*
X586987Y186818D01*
X587587Y186883D01*
X588189Y186934D01*
X588792Y186971D01*
X589396Y186993D01*
X590000Y187000D01*
X631000Y187000D01*
D16*
X631000Y187000D03*
X525000Y127000D03*
D17*
X525000Y60400D01*
X524993Y59786D01*
X524970Y59173D01*
X524933Y58560D01*
X524881Y57949D01*
X524815Y57338D01*
X524733Y56730D01*
X524637Y56124D01*
X524527Y55520D01*
X524402Y54919D01*
X524262Y54321D01*
X524108Y53727D01*
X523939Y53137D01*
X523757Y52551D01*
X523560Y51970D01*
X523349Y51393D01*
X523125Y50822D01*
X522887Y50256D01*
X522635Y49696D01*
X522369Y49143D01*
X522091Y48596D01*
X521799Y48056D01*
X521494Y47523D01*
X521176Y46998D01*
X520846Y46480D01*
X520504Y45971D01*
X520149Y45470D01*
X519782Y44978D01*
X519404Y44495D01*
X519014Y44021D01*
X518612Y43557D01*
X518200Y43102D01*
X517776Y42658D01*
X517342Y42224D01*
X516898Y41800D01*
X516443Y41388D01*
X515979Y40986D01*
X515505Y40596D01*
X515022Y40218D01*
X514530Y39851D01*
X514029Y39496D01*
X513520Y39154D01*
X513002Y38824D01*
X512477Y38506D01*
X511944Y38201D01*
X511404Y37909D01*
X510857Y37631D01*
X510304Y37365D01*
X509744Y37113D01*
X509178Y36875D01*
X508607Y36651D01*
X508030Y36440D01*
X507449Y36243D01*
X506863Y36061D01*
X506273Y35892D01*
X505679Y35738D01*
X505081Y35598D01*
X504480Y35473D01*
X503876Y35363D01*
X503270Y35267D01*
X502662Y35185D01*
X502051Y35119D01*
X501440Y35067D01*
X500827Y35030D01*
X500214Y35007D01*
X499600Y35000D01*
X409400Y35000D02*
X408786Y35007D01*
X408173Y35030D01*
X407560Y35067D01*
X406949Y35119D01*
X406338Y35185D01*
X405730Y35267D01*
X405124Y35363D01*
X404520Y35473D01*
X403919Y35598D01*
X403321Y35738D01*
X402727Y35892D01*
X402137Y36061D01*
X401551Y36243D01*
X400970Y36440D01*
X400393Y36651D01*
X399822Y36875D01*
X399256Y37113D01*
X398696Y37365D01*
X398143Y37631D01*
X397596Y37909D01*
X397056Y38201D01*
X396523Y38506D01*
X395998Y38824D01*
X395480Y39154D01*
X394971Y39496D01*
X394470Y39851D01*
X393978Y40218D01*
X393495Y40596D01*
X393021Y40986D01*
X392557Y41388D01*
X392102Y41800D01*
X391658Y42224D01*
X391224Y42658D01*
X390800Y43102D01*
X390388Y43557D01*
X389986Y44021D01*
X389596Y44495D01*
X389218Y44978D01*
X388851Y45470D01*
X388496Y45971D01*
X388154Y46480D01*
X387824Y46998D01*
X387506Y47523D01*
X387201Y48056D01*
X386909Y48596D01*
X386631Y49143D01*
X386365Y49696D01*
X386113Y50256D01*
X385875Y50822D01*
X385651Y51393D01*
X385440Y51970D01*
X385243Y52551D01*
X385061Y53137D01*
X384892Y53727D01*
X384738Y54321D01*
X384598Y54919D01*
X384473Y55520D01*
X384363Y56124D01*
X384267Y56730D01*
X384185Y57338D01*
X384119Y57949D01*
X384067Y58560D01*
X384030Y59173D01*
X384007Y59786D01*
X384000Y60400D01*
X384000Y137000D01*
D16*
X384000Y137000D03*
D17*
X409400Y35000D02*
X499600Y35000D01*
D16*
X862500Y120500D03*
D17*
X862500Y125500D01*
X862498Y125633D01*
X862492Y125767D01*
X862482Y125900D01*
X862468Y126032D01*
X862451Y126164D01*
X862429Y126296D01*
X862404Y126427D01*
X862374Y126557D01*
X862341Y126686D01*
X862304Y126814D01*
X862263Y126941D01*
X862218Y127067D01*
X862170Y127191D01*
X862118Y127314D01*
X862063Y127435D01*
X862003Y127555D01*
X861941Y127673D01*
X861875Y127788D01*
X861805Y127902D01*
X861732Y128014D01*
X861656Y128123D01*
X861577Y128231D01*
X861494Y128335D01*
X861409Y128438D01*
X861320Y128537D01*
X861229Y128634D01*
X861134Y128729D01*
X861037Y128820D01*
X860938Y128909D01*
X860835Y128994D01*
X860731Y129077D01*
X860623Y129156D01*
X860514Y129232D01*
X860402Y129305D01*
X860288Y129375D01*
X860173Y129441D01*
X860055Y129503D01*
X859935Y129563D01*
X859814Y129618D01*
X859691Y129670D01*
X859567Y129718D01*
X859441Y129763D01*
X859314Y129804D01*
X859186Y129841D01*
X859057Y129874D01*
X858927Y129904D01*
X858796Y129929D01*
X858664Y129951D01*
X858532Y129968D01*
X858400Y129982D01*
X858267Y129992D01*
X858133Y129998D01*
X858000Y130000D01*
X705000Y130000D01*
X678500Y156500D01*
X677500Y156500D01*
D16*
X677500Y156500D03*
X743000Y379000D03*
D17*
X742420Y378993D01*
X741840Y378972D01*
X741262Y378937D01*
X740684Y378888D01*
X740107Y378825D01*
X739532Y378748D01*
X738959Y378657D01*
X738389Y378553D01*
X737821Y378435D01*
X737256Y378303D01*
X736695Y378157D01*
X736137Y377998D01*
X735584Y377825D01*
X735034Y377639D01*
X734489Y377440D01*
X733950Y377228D01*
X733415Y377003D01*
X732886Y376765D01*
X732363Y376514D01*
X731847Y376251D01*
X731336Y375975D01*
X730833Y375687D01*
X730337Y375387D01*
X729848Y375075D01*
X729366Y374752D01*
X728893Y374416D01*
X728428Y374070D01*
X727972Y373712D01*
X727524Y373344D01*
X727085Y372964D01*
X726656Y372574D01*
X726236Y372174D01*
X725826Y371764D01*
X725426Y371344D01*
X725036Y370915D01*
X724656Y370476D01*
X724288Y370028D01*
X723930Y369572D01*
X723584Y369107D01*
X723248Y368634D01*
X722925Y368152D01*
X722613Y367663D01*
X722313Y367167D01*
X722025Y366664D01*
X721749Y366153D01*
X721486Y365637D01*
X721235Y365114D01*
X720997Y364585D01*
X720772Y364050D01*
X720560Y363511D01*
X720361Y362966D01*
X720175Y362416D01*
X720002Y361863D01*
X719843Y361305D01*
X719697Y360744D01*
X719565Y360179D01*
X719447Y359611D01*
X719343Y359041D01*
X719252Y358468D01*
X719175Y357893D01*
X719112Y357316D01*
X719063Y356738D01*
X719028Y356160D01*
X719007Y355580D01*
X719000Y355000D01*
X719000Y282000D01*
D16*
X719000Y282000D03*
X938000Y364000D03*
D17*
X904400Y364000D01*
X903472Y363989D01*
X902545Y363955D01*
X901619Y363899D01*
X900694Y363821D01*
X899771Y363720D01*
X898852Y363597D01*
X897935Y363452D01*
X897022Y363285D01*
X896114Y363095D01*
X895210Y362884D01*
X894312Y362651D01*
X893420Y362397D01*
X892534Y362121D01*
X891655Y361823D01*
X890783Y361505D01*
X889920Y361165D01*
X889064Y360805D01*
X888218Y360424D01*
X887381Y360023D01*
X886555Y359602D01*
X885738Y359160D01*
X884933Y358700D01*
X884139Y358220D01*
X883356Y357720D01*
X882586Y357203D01*
X881829Y356666D01*
X881085Y356112D01*
X880354Y355539D01*
X879638Y354950D01*
X878936Y354343D01*
X878249Y353719D01*
X877577Y353079D01*
X876921Y352423D01*
X876281Y351751D01*
X875657Y351064D01*
X875050Y350362D01*
X874461Y349646D01*
X873888Y348915D01*
X873334Y348171D01*
X872797Y347414D01*
X872280Y346644D01*
X871780Y345861D01*
X871300Y345067D01*
X870840Y344262D01*
X870398Y343445D01*
X869977Y342619D01*
X869576Y341782D01*
X869195Y340936D01*
X868835Y340080D01*
X868495Y339217D01*
X868177Y338345D01*
X867879Y337466D01*
X867603Y336580D01*
X867349Y335688D01*
X867116Y334790D01*
X866905Y333886D01*
X866715Y332978D01*
X866548Y332065D01*
X866403Y331148D01*
X866280Y330229D01*
X866179Y329306D01*
X866101Y328381D01*
X866045Y327455D01*
X866011Y326528D01*
X866000Y325600D01*
X866000Y175000D01*
X865992Y174323D01*
X865967Y173647D01*
X865926Y172972D01*
X865869Y172298D01*
X865796Y171625D01*
X865706Y170954D01*
X865600Y170286D01*
X865478Y169620D01*
X865340Y168958D01*
X865186Y168299D01*
X865017Y167644D01*
X864831Y166994D01*
X864630Y166348D01*
X864413Y165707D01*
X864180Y165071D01*
X863933Y164441D01*
X863670Y163818D01*
X863392Y163201D01*
X863100Y162591D01*
X862793Y161988D01*
X862471Y161392D01*
X862135Y160805D01*
X861785Y160226D01*
X861421Y159656D01*
X861044Y159094D01*
X860652Y158542D01*
X860248Y157999D01*
X859831Y157467D01*
X859401Y156944D01*
X858958Y156433D01*
X858504Y155932D01*
X858037Y155442D01*
X857558Y154963D01*
X857068Y154496D01*
X856567Y154042D01*
X856056Y153599D01*
X855533Y153169D01*
X855001Y152752D01*
X854458Y152348D01*
X853906Y151956D01*
X853344Y151579D01*
X852774Y151215D01*
X852195Y150865D01*
X851608Y150529D01*
X851012Y150207D01*
X850409Y149900D01*
X849799Y149608D01*
X849182Y149330D01*
X848559Y149067D01*
X847929Y148820D01*
X847293Y148587D01*
X846652Y148370D01*
X846006Y148169D01*
X845356Y147983D01*
X844701Y147814D01*
X844042Y147660D01*
X843380Y147522D01*
X842714Y147400D01*
X842046Y147294D01*
X841375Y147204D01*
X840702Y147131D01*
X840028Y147074D01*
X839353Y147033D01*
X838677Y147008D01*
X838000Y147000D01*
X736400Y147000D02*
X735738Y147008D01*
X735076Y147032D01*
X734415Y147072D01*
X733756Y147128D01*
X733097Y147200D01*
X732441Y147288D01*
X731787Y147391D01*
X731136Y147510D01*
X730488Y147646D01*
X729843Y147796D01*
X729202Y147962D01*
X728565Y148144D01*
X727933Y148341D01*
X727306Y148553D01*
X726684Y148781D01*
X726068Y149023D01*
X725457Y149280D01*
X724854Y149552D01*
X724257Y149838D01*
X723667Y150139D01*
X723084Y150453D01*
X722509Y150782D01*
X721943Y151125D01*
X721384Y151481D01*
X720835Y151850D01*
X720295Y152233D01*
X719764Y152629D01*
X719243Y153037D01*
X718731Y153458D01*
X718230Y153891D01*
X717740Y154336D01*
X717261Y154793D01*
X716793Y155261D01*
X716336Y155740D01*
X715891Y156230D01*
X715458Y156731D01*
X715037Y157243D01*
X714629Y157764D01*
X714233Y158295D01*
X713850Y158835D01*
X713481Y159384D01*
X713125Y159943D01*
X712782Y160509D01*
X712453Y161084D01*
X712139Y161667D01*
X711838Y162257D01*
X711552Y162854D01*
X711280Y163457D01*
X711023Y164068D01*
X710781Y164684D01*
X710553Y165306D01*
X710341Y165933D01*
X710144Y166565D01*
X709962Y167202D01*
X709796Y167843D01*
X709646Y168488D01*
X709510Y169136D01*
X709391Y169787D01*
X709288Y170441D01*
X709200Y171097D01*
X709128Y171756D01*
X709072Y172415D01*
X709032Y173076D01*
X709008Y173738D01*
X709000Y174400D01*
X709000Y205000D01*
D16*
X709000Y205000D03*
D17*
X736400Y147000D02*
X838000Y147000D01*
D16*
X554000Y479000D03*
D17*
X493000Y391000D02*
X492995Y390613D01*
X492981Y390227D01*
X492958Y389841D01*
X492925Y389456D01*
X492883Y389071D01*
X492832Y388688D01*
X492772Y388306D01*
X492702Y387926D01*
X492623Y387547D01*
X492535Y387171D01*
X492438Y386797D01*
X492332Y386425D01*
X492217Y386056D01*
X492093Y385689D01*
X491960Y385326D01*
X491819Y384966D01*
X491669Y384610D01*
X491510Y384258D01*
X491343Y383909D01*
X491167Y383564D01*
X490983Y383224D01*
X490792Y382889D01*
X490591Y382558D01*
X490384Y382232D01*
X490168Y381911D01*
X489944Y381595D01*
X489713Y381285D01*
X489475Y380981D01*
X489229Y380683D01*
X488976Y380390D01*
X488716Y380104D01*
X488450Y379824D01*
X488176Y379550D01*
X487896Y379284D01*
X487610Y379024D01*
X487317Y378771D01*
X487019Y378525D01*
X486715Y378287D01*
X486405Y378056D01*
X486089Y377832D01*
X485768Y377616D01*
X485442Y377409D01*
X485111Y377208D01*
X484776Y377017D01*
X484436Y376833D01*
X484091Y376657D01*
X483742Y376490D01*
X483390Y376331D01*
X483034Y376181D01*
X482674Y376040D01*
X482311Y375907D01*
X481944Y375783D01*
X481575Y375668D01*
X481203Y375562D01*
X480829Y375465D01*
X480453Y375377D01*
X480074Y375298D01*
X479694Y375228D01*
X479312Y375168D01*
X478929Y375117D01*
X478544Y375075D01*
X478159Y375042D01*
X477773Y375019D01*
X477387Y375005D01*
X477000Y375000D01*
X429400Y375000D02*
X428786Y374993D01*
X428173Y374970D01*
X427560Y374933D01*
X426949Y374881D01*
X426338Y374815D01*
X425730Y374733D01*
X425124Y374637D01*
X424520Y374527D01*
X423919Y374402D01*
X423321Y374262D01*
X422727Y374108D01*
X422137Y373939D01*
X421551Y373757D01*
X420970Y373560D01*
X420393Y373349D01*
X419822Y373125D01*
X419256Y372887D01*
X418696Y372635D01*
X418143Y372369D01*
X417596Y372091D01*
X417056Y371799D01*
X416523Y371494D01*
X415998Y371176D01*
X415480Y370846D01*
X414971Y370504D01*
X414470Y370149D01*
X413978Y369782D01*
X413495Y369404D01*
X413021Y369014D01*
X412557Y368612D01*
X412102Y368200D01*
X411658Y367776D01*
X411224Y367342D01*
X410800Y366898D01*
X410388Y366443D01*
X409986Y365979D01*
X409596Y365505D01*
X409218Y365022D01*
X408851Y364530D01*
X408496Y364029D01*
X408154Y363520D01*
X407824Y363002D01*
X407506Y362477D01*
X407201Y361944D01*
X406909Y361404D01*
X406631Y360857D01*
X406365Y360304D01*
X406113Y359744D01*
X405875Y359178D01*
X405651Y358607D01*
X405440Y358030D01*
X405243Y357449D01*
X405061Y356863D01*
X404892Y356273D01*
X404738Y355679D01*
X404598Y355081D01*
X404473Y354480D01*
X404363Y353876D01*
X404267Y353270D01*
X404185Y352662D01*
X404119Y352051D01*
X404067Y351440D01*
X404030Y350827D01*
X404007Y350214D01*
X404000Y349600D01*
X404000Y250000D01*
D16*
X404000Y250000D03*
D17*
X429400Y375000D02*
X477000Y375000D01*
X493000Y391000D02*
X493000Y407600D01*
X493007Y408214D01*
X493030Y408827D01*
X493067Y409440D01*
X493119Y410051D01*
X493185Y410662D01*
X493267Y411270D01*
X493363Y411876D01*
X493473Y412480D01*
X493598Y413081D01*
X493738Y413679D01*
X493892Y414273D01*
X494061Y414863D01*
X494243Y415449D01*
X494440Y416030D01*
X494651Y416607D01*
X494875Y417178D01*
X495113Y417744D01*
X495365Y418304D01*
X495631Y418857D01*
X495909Y419404D01*
X496201Y419944D01*
X496506Y420477D01*
X496824Y421002D01*
X497154Y421520D01*
X497496Y422029D01*
X497851Y422530D01*
X498218Y423022D01*
X498596Y423505D01*
X498986Y423979D01*
X499388Y424443D01*
X499800Y424898D01*
X500224Y425342D01*
X500658Y425776D01*
X501102Y426200D01*
X501557Y426612D01*
X502021Y427014D01*
X502495Y427404D01*
X502978Y427782D01*
X503470Y428149D01*
X503971Y428504D01*
X504480Y428846D01*
X504998Y429176D01*
X505523Y429494D01*
X506056Y429799D01*
X506596Y430091D01*
X507143Y430369D01*
X507696Y430635D01*
X508256Y430887D01*
X508822Y431125D01*
X509393Y431349D01*
X509970Y431560D01*
X510551Y431757D01*
X511137Y431939D01*
X511727Y432108D01*
X512321Y432262D01*
X512919Y432402D01*
X513520Y432527D01*
X514124Y432637D01*
X514730Y432733D01*
X515338Y432815D01*
X515949Y432881D01*
X516560Y432933D01*
X517173Y432970D01*
X517786Y432993D01*
X518400Y433000D01*
X530000Y433000D01*
X530580Y433007D01*
X531160Y433028D01*
X531738Y433063D01*
X532316Y433112D01*
X532893Y433175D01*
X533468Y433252D01*
X534041Y433343D01*
X534611Y433447D01*
X535179Y433565D01*
X535744Y433697D01*
X536305Y433843D01*
X536863Y434002D01*
X537416Y434175D01*
X537966Y434361D01*
X538511Y434560D01*
X539050Y434772D01*
X539585Y434997D01*
X540114Y435235D01*
X540637Y435486D01*
X541153Y435749D01*
X541664Y436025D01*
X542167Y436313D01*
X542663Y436613D01*
X543152Y436925D01*
X543634Y437248D01*
X544107Y437584D01*
X544572Y437930D01*
X545028Y438288D01*
X545476Y438656D01*
X545915Y439036D01*
X546344Y439426D01*
X546764Y439826D01*
X547174Y440236D01*
X547574Y440656D01*
X547964Y441085D01*
X548344Y441524D01*
X548712Y441972D01*
X549070Y442428D01*
X549416Y442893D01*
X549752Y443366D01*
X550075Y443848D01*
X550387Y444337D01*
X550687Y444833D01*
X550975Y445336D01*
X551251Y445847D01*
X551514Y446363D01*
X551765Y446886D01*
X552003Y447415D01*
X552228Y447950D01*
X552440Y448489D01*
X552639Y449034D01*
X552825Y449584D01*
X552998Y450137D01*
X553157Y450695D01*
X553303Y451256D01*
X553435Y451821D01*
X553553Y452389D01*
X553657Y452959D01*
X553748Y453532D01*
X553825Y454107D01*
X553888Y454684D01*
X553937Y455262D01*
X553972Y455840D01*
X553993Y456420D01*
X554000Y457000D01*
X554000Y479000D01*
D16*
X156000Y427000D03*
D17*
X155783Y426997D01*
X155565Y426989D01*
X155348Y426976D01*
X155131Y426958D01*
X154915Y426934D01*
X154700Y426906D01*
X154485Y426872D01*
X154271Y426832D01*
X154058Y426788D01*
X153846Y426738D01*
X153636Y426684D01*
X153426Y426624D01*
X153219Y426560D01*
X153013Y426490D01*
X152809Y426415D01*
X152606Y426336D01*
X152406Y426251D01*
X152207Y426162D01*
X152011Y426068D01*
X151817Y425969D01*
X151626Y425866D01*
X151437Y425758D01*
X151251Y425645D01*
X151068Y425528D01*
X150887Y425407D01*
X150710Y425281D01*
X150536Y425151D01*
X150364Y425017D01*
X150196Y424879D01*
X150032Y424737D01*
X149871Y424590D01*
X149713Y424440D01*
X149560Y424287D01*
X149410Y424129D01*
X149263Y423968D01*
X149121Y423804D01*
X148983Y423636D01*
X148849Y423464D01*
X148719Y423290D01*
X148593Y423113D01*
X148472Y422932D01*
X148355Y422749D01*
X148242Y422563D01*
X148134Y422374D01*
X148031Y422183D01*
X147932Y421989D01*
X147838Y421793D01*
X147749Y421594D01*
X147664Y421394D01*
X147585Y421191D01*
X147510Y420987D01*
X147440Y420781D01*
X147376Y420574D01*
X147316Y420364D01*
X147262Y420154D01*
X147212Y419942D01*
X147168Y419729D01*
X147128Y419515D01*
X147094Y419300D01*
X147066Y419085D01*
X147042Y418869D01*
X147024Y418652D01*
X147011Y418435D01*
X147003Y418217D01*
X147000Y418000D01*
X147000Y410000D01*
X146996Y409686D01*
X146985Y409372D01*
X146966Y409058D01*
X146939Y408745D01*
X146905Y408433D01*
X146864Y408122D01*
X146814Y407811D01*
X146758Y407502D01*
X146694Y407195D01*
X146622Y406889D01*
X146543Y406585D01*
X146457Y406283D01*
X146364Y405983D01*
X146263Y405685D01*
X146155Y405390D01*
X146040Y405098D01*
X145918Y404808D01*
X145789Y404522D01*
X145654Y404239D01*
X145511Y403959D01*
X145362Y403682D01*
X145206Y403410D01*
X145043Y403141D01*
X144874Y402876D01*
X144699Y402615D01*
X144517Y402359D01*
X144330Y402107D01*
X144136Y401860D01*
X143936Y401617D01*
X143731Y401379D01*
X143519Y401147D01*
X143303Y400919D01*
X143081Y400697D01*
X142853Y400481D01*
X142621Y400269D01*
X142383Y400064D01*
X142140Y399864D01*
X141893Y399670D01*
X141641Y399483D01*
X141385Y399301D01*
X141124Y399126D01*
X140859Y398957D01*
X140590Y398794D01*
X140318Y398638D01*
X140041Y398489D01*
X139761Y398346D01*
X139478Y398211D01*
X139192Y398082D01*
X138902Y397960D01*
X138610Y397845D01*
X138315Y397737D01*
X138017Y397636D01*
X137717Y397543D01*
X137415Y397457D01*
X137111Y397378D01*
X136805Y397306D01*
X136498Y397242D01*
X136189Y397186D01*
X135878Y397136D01*
X135567Y397095D01*
X135255Y397061D01*
X134942Y397034D01*
X134628Y397015D01*
X134314Y397004D01*
X134000Y397000D01*
X55400Y397000D02*
X54786Y396993D01*
X54173Y396970D01*
X53560Y396933D01*
X52949Y396881D01*
X52338Y396815D01*
X51730Y396733D01*
X51124Y396637D01*
X50520Y396527D01*
X49919Y396402D01*
X49321Y396262D01*
X48727Y396108D01*
X48137Y395939D01*
X47551Y395757D01*
X46970Y395560D01*
X46393Y395349D01*
X45822Y395125D01*
X45256Y394887D01*
X44696Y394635D01*
X44143Y394369D01*
X43596Y394091D01*
X43056Y393799D01*
X42523Y393494D01*
X41998Y393176D01*
X41480Y392846D01*
X40971Y392504D01*
X40470Y392149D01*
X39978Y391782D01*
X39495Y391404D01*
X39021Y391014D01*
X38557Y390612D01*
X38102Y390200D01*
X37658Y389776D01*
X37224Y389342D01*
X36800Y388898D01*
X36388Y388443D01*
X35986Y387979D01*
X35596Y387505D01*
X35218Y387022D01*
X34851Y386530D01*
X34496Y386029D01*
X34154Y385520D01*
X33824Y385002D01*
X33506Y384477D01*
X33201Y383944D01*
X32909Y383404D01*
X32631Y382857D01*
X32365Y382304D01*
X32113Y381744D01*
X31875Y381178D01*
X31651Y380607D01*
X31440Y380030D01*
X31243Y379449D01*
X31061Y378863D01*
X30892Y378273D01*
X30738Y377679D01*
X30598Y377081D01*
X30473Y376480D01*
X30363Y375876D01*
X30267Y375270D01*
X30185Y374662D01*
X30119Y374051D01*
X30067Y373440D01*
X30030Y372827D01*
X30007Y372214D01*
X30000Y371600D01*
X30000Y262000D02*
X30005Y261565D01*
X30021Y261130D01*
X30047Y260696D01*
X30084Y260263D01*
X30131Y259830D01*
X30189Y259399D01*
X30257Y258970D01*
X30335Y258542D01*
X30424Y258116D01*
X30523Y257692D01*
X30632Y257271D01*
X30752Y256853D01*
X30881Y256438D01*
X31020Y256026D01*
X31170Y255617D01*
X31329Y255212D01*
X31498Y254811D01*
X31676Y254415D01*
X31864Y254023D01*
X32062Y253635D01*
X32269Y253252D01*
X32485Y252875D01*
X32710Y252502D01*
X32944Y252136D01*
X33186Y251775D01*
X33438Y251420D01*
X33698Y251071D01*
X33966Y250729D01*
X34242Y250393D01*
X34527Y250064D01*
X34819Y249742D01*
X35119Y249427D01*
X35427Y249119D01*
X35742Y248819D01*
X36064Y248527D01*
X36393Y248242D01*
X36729Y247966D01*
X37071Y247698D01*
X37420Y247438D01*
X37775Y247186D01*
X38136Y246944D01*
X38502Y246710D01*
X38875Y246485D01*
X39252Y246269D01*
X39635Y246062D01*
X40023Y245864D01*
X40415Y245676D01*
X40811Y245498D01*
X41212Y245329D01*
X41617Y245170D01*
X42026Y245020D01*
X42438Y244881D01*
X42853Y244752D01*
X43271Y244632D01*
X43692Y244523D01*
X44116Y244424D01*
X44542Y244335D01*
X44970Y244257D01*
X45399Y244189D01*
X45830Y244131D01*
X46263Y244084D01*
X46696Y244047D01*
X47130Y244021D01*
X47565Y244005D01*
X48000Y244000D01*
D16*
X48000Y244000D03*
D17*
X55400Y397000D02*
X134000Y397000D01*
X30000Y371600D02*
X30000Y262000D01*
D16*
X62000Y366000D03*
D17*
X174000Y366000D01*
X174362Y366004D01*
X174725Y366018D01*
X175087Y366039D01*
X175448Y366070D01*
X175808Y366109D01*
X176167Y366157D01*
X176525Y366214D01*
X176882Y366279D01*
X177237Y366353D01*
X177590Y366436D01*
X177941Y366527D01*
X178289Y366626D01*
X178635Y366734D01*
X178979Y366850D01*
X179319Y366975D01*
X179656Y367107D01*
X179990Y367248D01*
X180321Y367397D01*
X180648Y367554D01*
X180971Y367718D01*
X181290Y367890D01*
X181604Y368070D01*
X181915Y368258D01*
X182220Y368453D01*
X182521Y368655D01*
X182817Y368865D01*
X183107Y369081D01*
X183393Y369305D01*
X183673Y369535D01*
X183947Y369772D01*
X184215Y370016D01*
X184478Y370266D01*
X184734Y370522D01*
X184984Y370785D01*
X185228Y371053D01*
X185465Y371327D01*
X185695Y371607D01*
X185919Y371893D01*
X186135Y372183D01*
X186345Y372479D01*
X186547Y372780D01*
X186742Y373085D01*
X186930Y373396D01*
X187110Y373710D01*
X187282Y374029D01*
X187446Y374352D01*
X187603Y374679D01*
X187752Y375010D01*
X187893Y375344D01*
X188025Y375681D01*
X188150Y376021D01*
X188266Y376365D01*
X188374Y376711D01*
X188473Y377059D01*
X188564Y377410D01*
X188647Y377763D01*
X188721Y378118D01*
X188786Y378475D01*
X188843Y378833D01*
X188891Y379192D01*
X188930Y379552D01*
X188961Y379913D01*
X188982Y380275D01*
X188996Y380638D01*
X189000Y381000D01*
D16*
X189000Y381000D03*
D17*
X135500Y500500D02*
X124100Y500500D01*
X135500Y500500D02*
X136092Y500507D01*
X136684Y500529D01*
X137275Y500564D01*
X137865Y500614D01*
X138453Y500679D01*
X139040Y500757D01*
X139625Y500850D01*
X140207Y500956D01*
X140787Y501077D01*
X141363Y501212D01*
X141936Y501361D01*
X142506Y501523D01*
X143071Y501699D01*
X143632Y501889D01*
X144188Y502092D01*
X144739Y502309D01*
X145284Y502539D01*
X145824Y502782D01*
X146358Y503038D01*
X146886Y503306D01*
X147407Y503588D01*
X147921Y503882D01*
X148427Y504188D01*
X148926Y504506D01*
X149418Y504837D01*
X149901Y505179D01*
X150375Y505533D01*
X150842Y505898D01*
X151299Y506274D01*
X151747Y506661D01*
X152185Y507059D01*
X152614Y507468D01*
X153032Y507886D01*
X153441Y508315D01*
X153839Y508753D01*
X154226Y509201D01*
X154602Y509658D01*
X154967Y510125D01*
X155321Y510599D01*
X155663Y511082D01*
X155994Y511574D01*
X156312Y512073D01*
X156618Y512579D01*
X156912Y513093D01*
X157194Y513614D01*
X157462Y514142D01*
X157718Y514676D01*
X157961Y515216D01*
X158191Y515761D01*
X158408Y516312D01*
X158611Y516868D01*
X158801Y517429D01*
X158977Y517994D01*
X159139Y518564D01*
X159288Y519137D01*
X159423Y519713D01*
X159544Y520293D01*
X159650Y520875D01*
X159743Y521460D01*
X159821Y522047D01*
X159886Y522635D01*
X159936Y523225D01*
X159971Y523816D01*
X159993Y524408D01*
X160000Y525000D01*
X160000Y530600D01*
X160007Y531214D01*
X160030Y531827D01*
X160067Y532440D01*
X160119Y533051D01*
X160185Y533662D01*
X160267Y534270D01*
X160363Y534876D01*
X160473Y535480D01*
X160598Y536081D01*
X160738Y536679D01*
X160892Y537273D01*
X161061Y537863D01*
X161243Y538449D01*
X161440Y539030D01*
X161651Y539607D01*
X161875Y540178D01*
X162113Y540744D01*
X162365Y541304D01*
X162631Y541857D01*
X162909Y542404D01*
X163201Y542944D01*
X163506Y543477D01*
X163824Y544002D01*
X164154Y544520D01*
X164496Y545029D01*
X164851Y545530D01*
X165218Y546022D01*
X165596Y546505D01*
X165986Y546979D01*
X166388Y547443D01*
X166800Y547898D01*
X167224Y548342D01*
X167658Y548776D01*
X168102Y549200D01*
X168557Y549612D01*
X169021Y550014D01*
X169495Y550404D01*
X169978Y550782D01*
X170470Y551149D01*
X170971Y551504D01*
X171480Y551846D01*
X171998Y552176D01*
X172523Y552494D01*
X173056Y552799D01*
X173596Y553091D01*
X174143Y553369D01*
X174696Y553635D01*
X175256Y553887D01*
X175822Y554125D01*
X176393Y554349D01*
X176970Y554560D01*
X177551Y554757D01*
X178137Y554939D01*
X178727Y555108D01*
X179321Y555262D01*
X179919Y555402D01*
X180520Y555527D01*
X181124Y555637D01*
X181730Y555733D01*
X182338Y555815D01*
X182949Y555881D01*
X183560Y555933D01*
X184173Y555970D01*
X184786Y555993D01*
X185400Y556000D01*
X326000Y556000D01*
X501000Y556000D01*
X560000Y556000D01*
X684000Y556000D01*
X865000Y556000D01*
X1027000Y556000D01*
X1027459Y555994D01*
X1027918Y555978D01*
X1028376Y555950D01*
X1028834Y555911D01*
X1029290Y555861D01*
X1029745Y555801D01*
X1030199Y555729D01*
X1030650Y555646D01*
X1031100Y555552D01*
X1031547Y555448D01*
X1031991Y555333D01*
X1032433Y555207D01*
X1032871Y555070D01*
X1033306Y554923D01*
X1033737Y554765D01*
X1034165Y554597D01*
X1034588Y554419D01*
X1035007Y554231D01*
X1035421Y554032D01*
X1035830Y553824D01*
X1036234Y553605D01*
X1036632Y553377D01*
X1037025Y553140D01*
X1037412Y552893D01*
X1037793Y552637D01*
X1038168Y552371D01*
X1038536Y552097D01*
X1038898Y551814D01*
X1039252Y551522D01*
X1039599Y551222D01*
X1039939Y550913D01*
X1040272Y550596D01*
X1040596Y550272D01*
X1040913Y549939D01*
X1041222Y549599D01*
X1041522Y549252D01*
X1041814Y548898D01*
X1042097Y548536D01*
X1042371Y548168D01*
X1042637Y547793D01*
X1042893Y547412D01*
X1043140Y547025D01*
X1043377Y546632D01*
X1043605Y546234D01*
X1043824Y545830D01*
X1044032Y545421D01*
X1044231Y545007D01*
X1044419Y544588D01*
X1044597Y544165D01*
X1044765Y543737D01*
X1044923Y543306D01*
X1045070Y542871D01*
X1045207Y542433D01*
X1045333Y541991D01*
X1045448Y541547D01*
X1045552Y541100D01*
X1045646Y540650D01*
X1045729Y540199D01*
X1045801Y539745D01*
X1045861Y539290D01*
X1045911Y538834D01*
X1045950Y538376D01*
X1045978Y537918D01*
X1045994Y537459D01*
X1046000Y537000D01*
X1046000Y520000D01*
X1045995Y519609D01*
X1045981Y519217D01*
X1045957Y518827D01*
X1045924Y518436D01*
X1045882Y518047D01*
X1045830Y517659D01*
X1045769Y517273D01*
X1045698Y516888D01*
X1045618Y516504D01*
X1045529Y516123D01*
X1045431Y515744D01*
X1045324Y515368D01*
X1045207Y514994D01*
X1045082Y514623D01*
X1044947Y514255D01*
X1044804Y513891D01*
X1044652Y513530D01*
X1044491Y513173D01*
X1044322Y512820D01*
X1044144Y512471D01*
X1043958Y512127D01*
X1043764Y511787D01*
X1043561Y511452D01*
X1043351Y511122D01*
X1043132Y510797D01*
X1042906Y510478D01*
X1042672Y510164D01*
X1042431Y509856D01*
X1042182Y509554D01*
X1041926Y509257D01*
X1041663Y508968D01*
X1041393Y508684D01*
X1041116Y508407D01*
X1040832Y508137D01*
X1040543Y507874D01*
X1040246Y507618D01*
X1039944Y507369D01*
X1039636Y507128D01*
X1039322Y506894D01*
X1039003Y506668D01*
X1038678Y506449D01*
X1038348Y506239D01*
X1038013Y506036D01*
X1037673Y505842D01*
X1037329Y505656D01*
X1036980Y505478D01*
X1036627Y505309D01*
X1036270Y505148D01*
X1035909Y504996D01*
X1035545Y504853D01*
X1035177Y504718D01*
X1034806Y504593D01*
X1034432Y504476D01*
X1034056Y504369D01*
X1033677Y504271D01*
X1033296Y504182D01*
X1032912Y504102D01*
X1032527Y504031D01*
X1032141Y503970D01*
X1031753Y503918D01*
X1031364Y503876D01*
X1030973Y503843D01*
X1030583Y503819D01*
X1030191Y503805D01*
X1029800Y503800D01*
X1011100Y503800D01*
X865000Y529400D02*
X865000Y556000D01*
X865000Y529400D02*
X864993Y528786D01*
X864970Y528173D01*
X864933Y527560D01*
X864881Y526949D01*
X864815Y526338D01*
X864733Y525730D01*
X864637Y525124D01*
X864527Y524520D01*
X864402Y523919D01*
X864262Y523321D01*
X864108Y522727D01*
X863939Y522137D01*
X863757Y521551D01*
X863560Y520970D01*
X863349Y520393D01*
X863125Y519822D01*
X862887Y519256D01*
X862635Y518696D01*
X862369Y518143D01*
X862091Y517596D01*
X861799Y517056D01*
X861494Y516523D01*
X861176Y515998D01*
X860846Y515480D01*
X860504Y514971D01*
X860149Y514470D01*
X859782Y513978D01*
X859404Y513495D01*
X859014Y513021D01*
X858612Y512557D01*
X858200Y512102D01*
X857776Y511658D01*
X857342Y511224D01*
X856898Y510800D01*
X856443Y510388D01*
X855979Y509986D01*
X855505Y509596D01*
X855022Y509218D01*
X854530Y508851D01*
X854029Y508496D01*
X853520Y508154D01*
X853002Y507824D01*
X852477Y507506D01*
X851944Y507201D01*
X851404Y506909D01*
X850857Y506631D01*
X850304Y506365D01*
X849744Y506113D01*
X849178Y505875D01*
X848607Y505651D01*
X848030Y505440D01*
X847449Y505243D01*
X846863Y505061D01*
X846273Y504892D01*
X845679Y504738D01*
X845081Y504598D01*
X844480Y504473D01*
X843876Y504363D01*
X843270Y504267D01*
X842662Y504185D01*
X842051Y504119D01*
X841440Y504067D01*
X840827Y504030D01*
X840214Y504007D01*
X839600Y504000D01*
X833300Y504000D01*
X684000Y531200D02*
X684000Y556000D01*
X684000Y531200D02*
X683993Y530586D01*
X683970Y529973D01*
X683933Y529360D01*
X683881Y528749D01*
X683815Y528138D01*
X683733Y527530D01*
X683637Y526924D01*
X683527Y526320D01*
X683402Y525719D01*
X683262Y525121D01*
X683108Y524527D01*
X682939Y523937D01*
X682757Y523351D01*
X682560Y522770D01*
X682349Y522193D01*
X682125Y521622D01*
X681887Y521056D01*
X681635Y520496D01*
X681369Y519943D01*
X681091Y519396D01*
X680799Y518856D01*
X680494Y518323D01*
X680176Y517798D01*
X679846Y517280D01*
X679504Y516771D01*
X679149Y516270D01*
X678782Y515778D01*
X678404Y515295D01*
X678014Y514821D01*
X677612Y514357D01*
X677200Y513902D01*
X676776Y513458D01*
X676342Y513024D01*
X675898Y512600D01*
X675443Y512188D01*
X674979Y511786D01*
X674505Y511396D01*
X674022Y511018D01*
X673530Y510651D01*
X673029Y510296D01*
X672520Y509954D01*
X672002Y509624D01*
X671477Y509306D01*
X670944Y509001D01*
X670404Y508709D01*
X669857Y508431D01*
X669304Y508165D01*
X668744Y507913D01*
X668178Y507675D01*
X667607Y507451D01*
X667030Y507240D01*
X666449Y507043D01*
X665863Y506861D01*
X665273Y506692D01*
X664679Y506538D01*
X664081Y506398D01*
X663480Y506273D01*
X662876Y506163D01*
X662270Y506067D01*
X661662Y505985D01*
X661051Y505919D01*
X660440Y505867D01*
X659827Y505830D01*
X659214Y505807D01*
X658600Y505800D01*
X645800Y505800D01*
X501000Y528200D02*
X501000Y556000D01*
X501000Y528200D02*
X500993Y527586D01*
X500970Y526973D01*
X500933Y526360D01*
X500881Y525749D01*
X500815Y525138D01*
X500733Y524530D01*
X500637Y523924D01*
X500527Y523320D01*
X500402Y522719D01*
X500262Y522121D01*
X500108Y521527D01*
X499939Y520937D01*
X499757Y520351D01*
X499560Y519770D01*
X499349Y519193D01*
X499125Y518622D01*
X498887Y518056D01*
X498635Y517496D01*
X498369Y516943D01*
X498091Y516396D01*
X497799Y515856D01*
X497494Y515323D01*
X497176Y514798D01*
X496846Y514280D01*
X496504Y513771D01*
X496149Y513270D01*
X495782Y512778D01*
X495404Y512295D01*
X495014Y511821D01*
X494612Y511357D01*
X494200Y510902D01*
X493776Y510458D01*
X493342Y510024D01*
X492898Y509600D01*
X492443Y509188D01*
X491979Y508786D01*
X491505Y508396D01*
X491022Y508018D01*
X490530Y507651D01*
X490029Y507296D01*
X489520Y506954D01*
X489002Y506624D01*
X488477Y506306D01*
X487944Y506001D01*
X487404Y505709D01*
X486857Y505431D01*
X486304Y505165D01*
X485744Y504913D01*
X485178Y504675D01*
X484607Y504451D01*
X484030Y504240D01*
X483449Y504043D01*
X482863Y503861D01*
X482273Y503692D01*
X481679Y503538D01*
X481081Y503398D01*
X480480Y503273D01*
X479876Y503163D01*
X479270Y503067D01*
X478662Y502985D01*
X478051Y502919D01*
X477440Y502867D01*
X476827Y502830D01*
X476214Y502807D01*
X475600Y502800D01*
X461500Y502800D01*
X326000Y527200D02*
X326000Y556000D01*
X326000Y527200D02*
X325993Y526586D01*
X325970Y525973D01*
X325933Y525360D01*
X325881Y524749D01*
X325815Y524138D01*
X325733Y523530D01*
X325637Y522924D01*
X325527Y522320D01*
X325402Y521719D01*
X325262Y521121D01*
X325108Y520527D01*
X324939Y519937D01*
X324757Y519351D01*
X324560Y518770D01*
X324349Y518193D01*
X324125Y517622D01*
X323887Y517056D01*
X323635Y516496D01*
X323369Y515943D01*
X323091Y515396D01*
X322799Y514856D01*
X322494Y514323D01*
X322176Y513798D01*
X321846Y513280D01*
X321504Y512771D01*
X321149Y512270D01*
X320782Y511778D01*
X320404Y511295D01*
X320014Y510821D01*
X319612Y510357D01*
X319200Y509902D01*
X318776Y509458D01*
X318342Y509024D01*
X317898Y508600D01*
X317443Y508188D01*
X316979Y507786D01*
X316505Y507396D01*
X316022Y507018D01*
X315530Y506651D01*
X315029Y506296D01*
X314520Y505954D01*
X314002Y505624D01*
X313477Y505306D01*
X312944Y505001D01*
X312404Y504709D01*
X311857Y504431D01*
X311304Y504165D01*
X310744Y503913D01*
X310178Y503675D01*
X309607Y503451D01*
X309030Y503240D01*
X308449Y503043D01*
X307863Y502861D01*
X307273Y502692D01*
X306679Y502538D01*
X306081Y502398D01*
X305480Y502273D01*
X304876Y502163D01*
X304270Y502067D01*
X303662Y501985D01*
X303051Y501919D01*
X302440Y501867D01*
X301827Y501830D01*
X301214Y501807D01*
X300600Y501800D01*
X285200Y501800D01*
X560000Y556000D02*
X560000Y600000D01*
D16*
X560000Y600000D03*
M02*
