M48
;GenerationSoftware,Autodesk,EAGLE,9.5.2*%
;CreationDate,2020-05-19T11:11:24Z*%
FMAT,2
ICI,OFF
METRIC,TZ,000.000
T4C0.600
T3C1.000
T2C1.016
T1C3.000
%
G90
M71
T1
X33000Y2000
X2000Y2000
T2
X9920Y4990
X9920Y7530
X12460Y4990
X12460Y7530
X15000Y4990
X15000Y7530
X21000Y60000
T3
X4000Y47000
X11000Y36000
X28000Y33000
X18000Y43000
X5000Y19000
X20000Y20000
X19000Y26000
X26000Y24000
X19000Y23000
X18000Y54000
X18000Y60000
X26000Y26000
X8000Y48000
X14500Y48000
X8000Y45500
X14500Y45500
X8000Y43000
X14500Y43000
X8000Y40500
X14500Y40500
X8000Y38000
X14500Y38000
X22000Y48000
X28500Y48000
X22000Y45500
X28500Y45500
X22000Y43000
X28500Y43000
X22000Y40500
X28500Y40500
X22000Y38000
X28500Y38000
X7000Y11000
T4
X15050Y30810
X7550Y28310
X7550Y25810
X7550Y23310
X7550Y20810
X7550Y18310
X7550Y30810
X15050Y28310
X15050Y25810
X15050Y23310
X15050Y20810
X15050Y18310
X15050Y15810
X7550Y15810
M30