G04 EAGLE Gerber RS-274X export*
G75*
%MOMM*%
%FSLAX34Y34*%
%LPD*%
%INTop Copper*%
%IPPOS*%
%AMOC8*
5,1,8,0,0,1.08239X$1,22.5*%
G01*
%ADD10C,0.355600*%
%ADD11C,1.524000*%
%ADD12P,1.649562X8X22.500000*%
%ADD13P,1.199288X8X22.500000*%
%ADD14R,1.508000X1.508000*%
%ADD15P,1.632244X8X22.500000*%
%ADD16C,1.500000*%
%ADD17C,1.016000*%


D10*
X878222Y89906D02*
X878222Y81778D01*
X859934Y81778D01*
X859934Y89906D01*
X868062Y87874D02*
X868062Y81778D01*
X859934Y102762D02*
X859936Y102895D01*
X859942Y103028D01*
X859951Y103160D01*
X859965Y103293D01*
X859982Y103425D01*
X860003Y103556D01*
X860028Y103687D01*
X860057Y103816D01*
X860090Y103945D01*
X860126Y104073D01*
X860166Y104200D01*
X860210Y104326D01*
X860257Y104450D01*
X860308Y104573D01*
X860362Y104694D01*
X860420Y104814D01*
X860482Y104932D01*
X860547Y105048D01*
X860615Y105162D01*
X860686Y105274D01*
X860761Y105384D01*
X860839Y105492D01*
X860920Y105598D01*
X861004Y105701D01*
X861091Y105801D01*
X861180Y105899D01*
X861273Y105995D01*
X861369Y106088D01*
X861467Y106177D01*
X861567Y106264D01*
X861670Y106348D01*
X861776Y106429D01*
X861884Y106507D01*
X861994Y106582D01*
X862106Y106653D01*
X862220Y106721D01*
X862336Y106786D01*
X862454Y106848D01*
X862574Y106906D01*
X862695Y106960D01*
X862818Y107011D01*
X862942Y107058D01*
X863068Y107102D01*
X863195Y107142D01*
X863323Y107178D01*
X863452Y107211D01*
X863581Y107240D01*
X863712Y107265D01*
X863843Y107286D01*
X863975Y107303D01*
X864108Y107317D01*
X864240Y107326D01*
X864373Y107332D01*
X864506Y107334D01*
X859934Y102762D02*
X859936Y102611D01*
X859942Y102461D01*
X859951Y102310D01*
X859965Y102160D01*
X859982Y102010D01*
X860004Y101861D01*
X860029Y101712D01*
X860057Y101564D01*
X860090Y101417D01*
X860126Y101271D01*
X860167Y101126D01*
X860210Y100981D01*
X860258Y100838D01*
X860309Y100697D01*
X860364Y100556D01*
X860422Y100417D01*
X860484Y100280D01*
X860550Y100144D01*
X860619Y100010D01*
X860691Y99878D01*
X860767Y99747D01*
X860846Y99619D01*
X860928Y99492D01*
X861014Y99368D01*
X861102Y99246D01*
X861194Y99127D01*
X861289Y99010D01*
X861387Y98895D01*
X861487Y98783D01*
X861591Y98673D01*
X861697Y98566D01*
X861806Y98462D01*
X861918Y98361D01*
X862032Y98262D01*
X862149Y98167D01*
X862268Y98075D01*
X862389Y97985D01*
X862513Y97899D01*
X862639Y97816D01*
X862767Y97737D01*
X862897Y97660D01*
X863029Y97587D01*
X863162Y97517D01*
X863298Y97451D01*
X863435Y97389D01*
X863574Y97330D01*
X863714Y97274D01*
X863855Y97222D01*
X863998Y97174D01*
X868062Y105811D02*
X867966Y105909D01*
X867868Y106004D01*
X867766Y106097D01*
X867663Y106186D01*
X867556Y106273D01*
X867448Y106357D01*
X867337Y106437D01*
X867224Y106515D01*
X867108Y106589D01*
X866991Y106660D01*
X866872Y106728D01*
X866751Y106792D01*
X866628Y106853D01*
X866503Y106910D01*
X866377Y106964D01*
X866250Y107015D01*
X866121Y107062D01*
X865991Y107105D01*
X865860Y107145D01*
X865727Y107181D01*
X865594Y107213D01*
X865460Y107241D01*
X865325Y107266D01*
X865189Y107287D01*
X865053Y107304D01*
X864917Y107318D01*
X864780Y107327D01*
X864643Y107333D01*
X864506Y107335D01*
X868062Y105810D02*
X878222Y97174D01*
X878222Y107334D01*
X869078Y115712D02*
X868718Y115716D01*
X868359Y115729D01*
X868000Y115751D01*
X867641Y115781D01*
X867283Y115819D01*
X866927Y115866D01*
X866571Y115922D01*
X866217Y115986D01*
X865865Y116059D01*
X865514Y116139D01*
X865166Y116229D01*
X864819Y116326D01*
X864475Y116432D01*
X864134Y116546D01*
X863796Y116668D01*
X863460Y116798D01*
X863128Y116936D01*
X862799Y117082D01*
X862474Y117236D01*
X862474Y117237D02*
X862361Y117278D01*
X862250Y117322D01*
X862141Y117370D01*
X862033Y117421D01*
X861926Y117475D01*
X861822Y117533D01*
X861719Y117594D01*
X861618Y117659D01*
X861519Y117726D01*
X861423Y117797D01*
X861329Y117871D01*
X861237Y117947D01*
X861148Y118027D01*
X861061Y118109D01*
X860977Y118194D01*
X860896Y118282D01*
X860817Y118372D01*
X860742Y118465D01*
X860669Y118560D01*
X860600Y118657D01*
X860533Y118756D01*
X860470Y118858D01*
X860410Y118961D01*
X860354Y119067D01*
X860301Y119174D01*
X860251Y119283D01*
X860205Y119393D01*
X860162Y119504D01*
X860123Y119617D01*
X860087Y119732D01*
X860055Y119847D01*
X860027Y119963D01*
X860002Y120080D01*
X859981Y120198D01*
X859964Y120316D01*
X859951Y120435D01*
X859942Y120554D01*
X859936Y120673D01*
X859934Y120793D01*
X859936Y120913D01*
X859942Y121032D01*
X859951Y121151D01*
X859964Y121270D01*
X859981Y121388D01*
X860002Y121506D01*
X860027Y121623D01*
X860055Y121739D01*
X860087Y121854D01*
X860123Y121969D01*
X860162Y122082D01*
X860205Y122193D01*
X860251Y122303D01*
X860301Y122412D01*
X860354Y122519D01*
X860410Y122625D01*
X860470Y122728D01*
X860533Y122830D01*
X860600Y122929D01*
X860669Y123026D01*
X860742Y123121D01*
X860817Y123214D01*
X860896Y123304D01*
X860977Y123392D01*
X861061Y123477D01*
X861148Y123559D01*
X861237Y123639D01*
X861329Y123715D01*
X861423Y123789D01*
X861519Y123860D01*
X861618Y123927D01*
X861719Y123992D01*
X861822Y124053D01*
X861926Y124111D01*
X862033Y124165D01*
X862141Y124216D01*
X862250Y124264D01*
X862361Y124308D01*
X862474Y124349D01*
X862799Y124503D01*
X863128Y124649D01*
X863460Y124787D01*
X863796Y124917D01*
X864134Y125039D01*
X864475Y125153D01*
X864819Y125259D01*
X865166Y125356D01*
X865514Y125446D01*
X865865Y125526D01*
X866217Y125599D01*
X866571Y125663D01*
X866927Y125719D01*
X867283Y125766D01*
X867641Y125804D01*
X868000Y125834D01*
X868359Y125856D01*
X868718Y125869D01*
X869078Y125873D01*
X869078Y115712D02*
X869438Y115716D01*
X869797Y115729D01*
X870156Y115751D01*
X870515Y115781D01*
X870873Y115819D01*
X871229Y115866D01*
X871585Y115922D01*
X871939Y115986D01*
X872291Y116059D01*
X872642Y116139D01*
X872990Y116229D01*
X873337Y116326D01*
X873681Y116432D01*
X874022Y116546D01*
X874360Y116668D01*
X874696Y116798D01*
X875028Y116936D01*
X875357Y117082D01*
X875682Y117236D01*
X875682Y117237D02*
X875795Y117278D01*
X875906Y117322D01*
X876015Y117370D01*
X876123Y117421D01*
X876230Y117475D01*
X876334Y117533D01*
X876437Y117594D01*
X876538Y117659D01*
X876637Y117726D01*
X876733Y117797D01*
X876827Y117871D01*
X876919Y117947D01*
X877008Y118027D01*
X877095Y118109D01*
X877179Y118194D01*
X877260Y118282D01*
X877339Y118372D01*
X877414Y118465D01*
X877487Y118560D01*
X877556Y118657D01*
X877623Y118756D01*
X877686Y118858D01*
X877746Y118961D01*
X877802Y119067D01*
X877855Y119174D01*
X877905Y119283D01*
X877951Y119393D01*
X877994Y119504D01*
X878033Y119617D01*
X878069Y119732D01*
X878101Y119847D01*
X878129Y119963D01*
X878154Y120080D01*
X878175Y120198D01*
X878192Y120316D01*
X878205Y120435D01*
X878214Y120554D01*
X878220Y120673D01*
X878222Y120793D01*
X875682Y124349D02*
X875357Y124503D01*
X875028Y124649D01*
X874696Y124787D01*
X874360Y124917D01*
X874022Y125039D01*
X873681Y125153D01*
X873337Y125259D01*
X872990Y125356D01*
X872642Y125446D01*
X872291Y125526D01*
X871939Y125599D01*
X871585Y125663D01*
X871229Y125719D01*
X870873Y125766D01*
X870515Y125804D01*
X870156Y125834D01*
X869797Y125856D01*
X869438Y125869D01*
X869078Y125873D01*
X875682Y124349D02*
X875795Y124308D01*
X875906Y124264D01*
X876015Y124216D01*
X876123Y124165D01*
X876230Y124111D01*
X876334Y124053D01*
X876437Y123992D01*
X876538Y123927D01*
X876637Y123860D01*
X876733Y123789D01*
X876827Y123715D01*
X876919Y123639D01*
X877008Y123559D01*
X877095Y123477D01*
X877179Y123392D01*
X877260Y123304D01*
X877339Y123214D01*
X877414Y123121D01*
X877487Y123026D01*
X877556Y122929D01*
X877623Y122830D01*
X877686Y122728D01*
X877746Y122625D01*
X877802Y122519D01*
X877855Y122412D01*
X877905Y122303D01*
X877951Y122193D01*
X877994Y122082D01*
X878033Y121969D01*
X878069Y121854D01*
X878101Y121739D01*
X878129Y121623D01*
X878154Y121506D01*
X878175Y121388D01*
X878192Y121270D01*
X878205Y121151D01*
X878214Y121032D01*
X878220Y120913D01*
X878222Y120793D01*
X874158Y116729D02*
X863998Y124857D01*
X869078Y134251D02*
X868718Y134255D01*
X868359Y134268D01*
X868000Y134290D01*
X867641Y134320D01*
X867283Y134358D01*
X866927Y134405D01*
X866571Y134461D01*
X866217Y134525D01*
X865865Y134598D01*
X865514Y134678D01*
X865166Y134768D01*
X864819Y134865D01*
X864475Y134971D01*
X864134Y135085D01*
X863796Y135207D01*
X863460Y135337D01*
X863128Y135475D01*
X862799Y135621D01*
X862474Y135775D01*
X862361Y135816D01*
X862250Y135860D01*
X862141Y135908D01*
X862033Y135959D01*
X861926Y136013D01*
X861822Y136071D01*
X861719Y136132D01*
X861618Y136197D01*
X861519Y136264D01*
X861423Y136335D01*
X861329Y136409D01*
X861237Y136485D01*
X861148Y136565D01*
X861061Y136647D01*
X860977Y136732D01*
X860896Y136820D01*
X860817Y136910D01*
X860742Y137003D01*
X860669Y137098D01*
X860600Y137195D01*
X860533Y137294D01*
X860470Y137396D01*
X860410Y137499D01*
X860354Y137605D01*
X860301Y137712D01*
X860251Y137821D01*
X860205Y137931D01*
X860162Y138042D01*
X860123Y138155D01*
X860087Y138270D01*
X860055Y138385D01*
X860027Y138501D01*
X860002Y138618D01*
X859981Y138736D01*
X859964Y138854D01*
X859951Y138973D01*
X859942Y139092D01*
X859936Y139211D01*
X859934Y139331D01*
X859936Y139451D01*
X859942Y139570D01*
X859951Y139689D01*
X859964Y139808D01*
X859981Y139926D01*
X860002Y140044D01*
X860027Y140161D01*
X860055Y140277D01*
X860087Y140392D01*
X860123Y140507D01*
X860162Y140620D01*
X860205Y140731D01*
X860251Y140841D01*
X860301Y140950D01*
X860354Y141057D01*
X860410Y141163D01*
X860470Y141266D01*
X860533Y141368D01*
X860600Y141467D01*
X860669Y141564D01*
X860742Y141659D01*
X860817Y141752D01*
X860896Y141842D01*
X860977Y141930D01*
X861061Y142015D01*
X861148Y142097D01*
X861237Y142177D01*
X861329Y142253D01*
X861423Y142327D01*
X861519Y142398D01*
X861618Y142465D01*
X861719Y142530D01*
X861822Y142591D01*
X861926Y142649D01*
X862033Y142703D01*
X862141Y142754D01*
X862250Y142802D01*
X862361Y142846D01*
X862474Y142887D01*
X862799Y143041D01*
X863128Y143187D01*
X863460Y143325D01*
X863796Y143455D01*
X864134Y143577D01*
X864475Y143691D01*
X864819Y143797D01*
X865166Y143894D01*
X865514Y143984D01*
X865865Y144064D01*
X866217Y144137D01*
X866571Y144201D01*
X866927Y144257D01*
X867283Y144304D01*
X867641Y144342D01*
X868000Y144372D01*
X868359Y144394D01*
X868718Y144407D01*
X869078Y144411D01*
X869078Y134251D02*
X869438Y134255D01*
X869797Y134268D01*
X870156Y134290D01*
X870515Y134320D01*
X870873Y134358D01*
X871229Y134405D01*
X871585Y134461D01*
X871939Y134525D01*
X872291Y134598D01*
X872642Y134678D01*
X872990Y134768D01*
X873337Y134865D01*
X873681Y134971D01*
X874022Y135085D01*
X874360Y135207D01*
X874696Y135337D01*
X875028Y135475D01*
X875357Y135621D01*
X875682Y135775D01*
X875795Y135816D01*
X875906Y135860D01*
X876015Y135908D01*
X876123Y135959D01*
X876230Y136013D01*
X876334Y136071D01*
X876437Y136132D01*
X876538Y136197D01*
X876637Y136264D01*
X876733Y136335D01*
X876827Y136409D01*
X876919Y136485D01*
X877008Y136565D01*
X877095Y136647D01*
X877179Y136732D01*
X877260Y136820D01*
X877339Y136910D01*
X877414Y137003D01*
X877487Y137098D01*
X877556Y137195D01*
X877623Y137294D01*
X877686Y137396D01*
X877746Y137499D01*
X877802Y137605D01*
X877855Y137712D01*
X877905Y137821D01*
X877951Y137931D01*
X877994Y138042D01*
X878033Y138155D01*
X878069Y138270D01*
X878101Y138385D01*
X878129Y138501D01*
X878154Y138618D01*
X878175Y138736D01*
X878192Y138854D01*
X878205Y138973D01*
X878214Y139092D01*
X878220Y139211D01*
X878222Y139331D01*
X875682Y142887D02*
X875357Y143041D01*
X875028Y143187D01*
X874696Y143325D01*
X874360Y143455D01*
X874022Y143577D01*
X873681Y143691D01*
X873337Y143797D01*
X872990Y143894D01*
X872642Y143984D01*
X872291Y144064D01*
X871939Y144137D01*
X871585Y144201D01*
X871229Y144257D01*
X870873Y144304D01*
X870515Y144342D01*
X870156Y144372D01*
X869797Y144394D01*
X869438Y144407D01*
X869078Y144411D01*
X875682Y142887D02*
X875795Y142846D01*
X875906Y142802D01*
X876015Y142754D01*
X876123Y142703D01*
X876230Y142649D01*
X876334Y142591D01*
X876437Y142530D01*
X876538Y142465D01*
X876637Y142398D01*
X876733Y142327D01*
X876827Y142253D01*
X876919Y142177D01*
X877008Y142097D01*
X877095Y142015D01*
X877179Y141930D01*
X877260Y141842D01*
X877339Y141752D01*
X877414Y141659D01*
X877487Y141564D01*
X877556Y141467D01*
X877623Y141368D01*
X877686Y141266D01*
X877746Y141163D01*
X877802Y141057D01*
X877855Y140950D01*
X877905Y140841D01*
X877951Y140731D01*
X877994Y140620D01*
X878033Y140507D01*
X878069Y140392D01*
X878101Y140277D01*
X878129Y140161D01*
X878154Y140044D01*
X878175Y139926D01*
X878192Y139808D01*
X878205Y139689D01*
X878214Y139570D01*
X878220Y139451D01*
X878222Y139331D01*
X874158Y135267D02*
X863998Y143395D01*
X863998Y152789D02*
X859934Y157869D01*
X878222Y157869D01*
X878222Y152789D02*
X878222Y162949D01*
X878222Y170312D02*
X859934Y176408D01*
X878222Y182504D01*
X873650Y180980D02*
X873650Y171836D01*
X866030Y198915D02*
X878222Y202979D01*
X866030Y207043D01*
X869078Y214583D02*
X868718Y214587D01*
X868359Y214600D01*
X868000Y214622D01*
X867641Y214652D01*
X867283Y214690D01*
X866927Y214737D01*
X866571Y214793D01*
X866217Y214857D01*
X865865Y214930D01*
X865514Y215010D01*
X865166Y215100D01*
X864819Y215197D01*
X864475Y215303D01*
X864134Y215417D01*
X863796Y215539D01*
X863460Y215669D01*
X863128Y215807D01*
X862799Y215953D01*
X862474Y216107D01*
X862474Y216108D02*
X862361Y216149D01*
X862250Y216193D01*
X862141Y216241D01*
X862033Y216292D01*
X861926Y216346D01*
X861822Y216404D01*
X861719Y216465D01*
X861618Y216530D01*
X861519Y216597D01*
X861423Y216668D01*
X861329Y216742D01*
X861237Y216818D01*
X861148Y216898D01*
X861061Y216980D01*
X860977Y217065D01*
X860896Y217153D01*
X860817Y217243D01*
X860742Y217336D01*
X860669Y217431D01*
X860600Y217528D01*
X860533Y217627D01*
X860470Y217729D01*
X860410Y217832D01*
X860354Y217938D01*
X860301Y218045D01*
X860251Y218154D01*
X860205Y218264D01*
X860162Y218375D01*
X860123Y218488D01*
X860087Y218603D01*
X860055Y218718D01*
X860027Y218834D01*
X860002Y218951D01*
X859981Y219069D01*
X859964Y219187D01*
X859951Y219306D01*
X859942Y219425D01*
X859936Y219544D01*
X859934Y219664D01*
X859936Y219784D01*
X859942Y219903D01*
X859951Y220022D01*
X859964Y220141D01*
X859981Y220259D01*
X860002Y220377D01*
X860027Y220494D01*
X860055Y220610D01*
X860087Y220725D01*
X860123Y220840D01*
X860162Y220953D01*
X860205Y221064D01*
X860251Y221174D01*
X860301Y221283D01*
X860354Y221390D01*
X860410Y221496D01*
X860470Y221599D01*
X860533Y221701D01*
X860600Y221800D01*
X860669Y221897D01*
X860742Y221992D01*
X860817Y222085D01*
X860896Y222175D01*
X860977Y222263D01*
X861061Y222348D01*
X861148Y222430D01*
X861237Y222510D01*
X861329Y222586D01*
X861423Y222660D01*
X861519Y222731D01*
X861618Y222798D01*
X861719Y222863D01*
X861822Y222924D01*
X861926Y222982D01*
X862033Y223036D01*
X862141Y223087D01*
X862250Y223135D01*
X862361Y223179D01*
X862474Y223220D01*
X862799Y223374D01*
X863128Y223520D01*
X863460Y223658D01*
X863796Y223788D01*
X864134Y223910D01*
X864475Y224024D01*
X864819Y224130D01*
X865166Y224227D01*
X865514Y224317D01*
X865865Y224397D01*
X866217Y224470D01*
X866571Y224534D01*
X866927Y224590D01*
X867283Y224637D01*
X867641Y224675D01*
X868000Y224705D01*
X868359Y224727D01*
X868718Y224740D01*
X869078Y224744D01*
X869078Y214583D02*
X869438Y214587D01*
X869797Y214600D01*
X870156Y214622D01*
X870515Y214652D01*
X870873Y214690D01*
X871229Y214737D01*
X871585Y214793D01*
X871939Y214857D01*
X872291Y214930D01*
X872642Y215010D01*
X872990Y215100D01*
X873337Y215197D01*
X873681Y215303D01*
X874022Y215417D01*
X874360Y215539D01*
X874696Y215669D01*
X875028Y215807D01*
X875357Y215953D01*
X875682Y216107D01*
X875682Y216108D02*
X875795Y216149D01*
X875906Y216193D01*
X876015Y216241D01*
X876123Y216292D01*
X876230Y216346D01*
X876334Y216404D01*
X876437Y216465D01*
X876538Y216530D01*
X876637Y216597D01*
X876733Y216668D01*
X876827Y216742D01*
X876919Y216818D01*
X877008Y216898D01*
X877095Y216980D01*
X877179Y217065D01*
X877260Y217153D01*
X877339Y217243D01*
X877414Y217336D01*
X877487Y217431D01*
X877556Y217528D01*
X877623Y217627D01*
X877686Y217729D01*
X877746Y217832D01*
X877802Y217938D01*
X877855Y218045D01*
X877905Y218154D01*
X877951Y218264D01*
X877994Y218375D01*
X878033Y218488D01*
X878069Y218603D01*
X878101Y218718D01*
X878129Y218834D01*
X878154Y218951D01*
X878175Y219069D01*
X878192Y219187D01*
X878205Y219306D01*
X878214Y219425D01*
X878220Y219544D01*
X878222Y219664D01*
X875682Y223220D02*
X875357Y223374D01*
X875028Y223520D01*
X874696Y223658D01*
X874360Y223788D01*
X874022Y223910D01*
X873681Y224024D01*
X873337Y224130D01*
X872990Y224227D01*
X872642Y224317D01*
X872291Y224397D01*
X871939Y224470D01*
X871585Y224534D01*
X871229Y224590D01*
X870873Y224637D01*
X870515Y224675D01*
X870156Y224705D01*
X869797Y224727D01*
X869438Y224740D01*
X869078Y224744D01*
X875682Y223220D02*
X875795Y223179D01*
X875906Y223135D01*
X876015Y223087D01*
X876123Y223036D01*
X876230Y222982D01*
X876334Y222924D01*
X876437Y222863D01*
X876538Y222798D01*
X876637Y222731D01*
X876733Y222660D01*
X876827Y222586D01*
X876919Y222510D01*
X877008Y222430D01*
X877095Y222348D01*
X877179Y222263D01*
X877260Y222175D01*
X877339Y222085D01*
X877414Y221992D01*
X877487Y221897D01*
X877556Y221800D01*
X877623Y221701D01*
X877686Y221599D01*
X877746Y221496D01*
X877802Y221390D01*
X877855Y221283D01*
X877905Y221174D01*
X877951Y221064D01*
X877994Y220953D01*
X878033Y220840D01*
X878069Y220725D01*
X878101Y220610D01*
X878129Y220494D01*
X878154Y220377D01*
X878175Y220259D01*
X878192Y220141D01*
X878205Y220022D01*
X878214Y219903D01*
X878220Y219784D01*
X878222Y219664D01*
X874158Y215600D02*
X863998Y223728D01*
X877206Y232133D02*
X878222Y232133D01*
X877206Y232133D02*
X877206Y233149D01*
X878222Y233149D01*
X878222Y232133D01*
X863998Y240537D02*
X859934Y245617D01*
X878222Y245617D01*
X878222Y240537D02*
X878222Y250697D01*
D11*
X268120Y121600D02*
X252880Y121600D01*
X252880Y96200D02*
X268120Y96200D01*
D12*
X409200Y89900D03*
X409200Y115300D03*
X434600Y89900D03*
X434600Y115300D03*
X460000Y89900D03*
X460000Y115300D03*
X130300Y88900D03*
X130300Y114300D03*
X155700Y88900D03*
X155700Y114300D03*
X181100Y88900D03*
X181100Y114300D03*
D11*
X615100Y144880D02*
X615100Y160120D01*
X589700Y160120D02*
X589700Y144880D01*
X344800Y144620D02*
X344800Y129380D01*
X319400Y129380D02*
X319400Y144620D01*
D12*
X695400Y86900D03*
X695400Y112300D03*
X720800Y86900D03*
X720800Y112300D03*
X746200Y86900D03*
X746200Y112300D03*
D11*
X322300Y97120D02*
X322300Y81880D01*
X347700Y81880D02*
X347700Y97120D01*
X579000Y96120D02*
X579000Y80880D01*
X604400Y80880D02*
X604400Y96120D01*
D13*
X118100Y341100D03*
X193100Y341100D03*
X118100Y316100D03*
X118100Y291100D03*
X118100Y266100D03*
X118100Y241100D03*
X118100Y216100D03*
X118100Y191100D03*
X193100Y316100D03*
X193100Y291100D03*
X193100Y266100D03*
X193100Y241100D03*
X193100Y216100D03*
X193100Y191100D03*
D14*
X670000Y520000D03*
X735000Y520000D03*
D15*
X670000Y495000D03*
X735000Y495000D03*
X670000Y470000D03*
X735000Y470000D03*
X670000Y445000D03*
X735000Y445000D03*
X670000Y420000D03*
X735000Y420000D03*
D13*
X679900Y348100D03*
X754900Y348100D03*
X679900Y323100D03*
X679900Y298100D03*
X679900Y273100D03*
X679900Y248100D03*
X679900Y223100D03*
X679900Y198100D03*
X754900Y323100D03*
X754900Y298100D03*
X754900Y273100D03*
X754900Y248100D03*
X754900Y223100D03*
X754900Y198100D03*
D14*
X810000Y520000D03*
X875000Y520000D03*
D15*
X810000Y495000D03*
X875000Y495000D03*
X810000Y470000D03*
X875000Y470000D03*
X810000Y445000D03*
X875000Y445000D03*
X810000Y420000D03*
X875000Y420000D03*
D14*
X390000Y520000D03*
X455000Y520000D03*
D15*
X390000Y495000D03*
X455000Y495000D03*
X390000Y470000D03*
X455000Y470000D03*
X390000Y445000D03*
X455000Y445000D03*
X390000Y420000D03*
X455000Y420000D03*
D14*
X530000Y520000D03*
X595000Y520000D03*
D15*
X530000Y495000D03*
X595000Y495000D03*
X530000Y470000D03*
X595000Y470000D03*
X530000Y445000D03*
X595000Y445000D03*
X530000Y420000D03*
X595000Y420000D03*
D14*
X110000Y520000D03*
X175000Y520000D03*
D15*
X110000Y495000D03*
X175000Y495000D03*
X110000Y470000D03*
X175000Y470000D03*
X110000Y445000D03*
X175000Y445000D03*
X110000Y420000D03*
X175000Y420000D03*
D14*
X250000Y520000D03*
X315000Y520000D03*
D15*
X250000Y495000D03*
X315000Y495000D03*
X250000Y470000D03*
X315000Y470000D03*
X250000Y445000D03*
X315000Y445000D03*
X250000Y420000D03*
X315000Y420000D03*
D13*
X385500Y348100D03*
X460500Y348100D03*
X385500Y323100D03*
X385500Y298100D03*
X385500Y273100D03*
X385500Y248100D03*
X385500Y223100D03*
X385500Y198100D03*
X460500Y323100D03*
X460500Y298100D03*
X460500Y273100D03*
X460500Y248100D03*
X460500Y223100D03*
X460500Y198100D03*
D12*
X520000Y640000D03*
D16*
X380000Y80000D03*
D17*
X360000Y60000D01*
X110000Y60000D01*
X100000Y70000D01*
X100000Y80000D01*
X100000Y100000D01*
X104104Y100000D01*
D16*
X104104Y100000D03*
D17*
X360000Y60000D02*
X550000Y60000D01*
X620000Y60000D01*
X650000Y90000D01*
D16*
X650000Y90000D03*
X510000Y240000D03*
D17*
X520000Y240000D01*
X554104Y144158D02*
X550000Y140054D01*
X550000Y60000D01*
X554104Y205896D02*
X520000Y240000D01*
X554104Y205896D02*
X554104Y144158D01*
D16*
X230000Y360000D03*
D17*
X170000Y360000D01*
X150000Y340000D01*
X150000Y170000D01*
X140000Y160000D01*
X100000Y160000D01*
X80000Y140000D01*
X80000Y100000D01*
X100000Y80000D01*
D16*
X720000Y280000D03*
D17*
X720000Y180000D01*
X700000Y160000D01*
X690000Y160000D01*
X644104Y205896D02*
X554104Y205896D01*
X644104Y205896D02*
X690000Y160000D01*
D16*
X140000Y400000D03*
D17*
X140000Y465000D01*
X127500Y477500D01*
X110000Y495000D01*
D16*
X420000Y400000D03*
D17*
X420000Y410000D01*
X420000Y485000D01*
X417500Y487500D01*
X410000Y495000D01*
X390000Y495000D01*
D16*
X700000Y400000D03*
D17*
X695000Y495000D02*
X700000Y500000D01*
X695000Y495000D02*
X670000Y495000D01*
X700000Y410000D02*
X700000Y400000D01*
D16*
X590000Y370000D03*
D17*
X620000Y400000D01*
X690000Y400000D02*
X700000Y410000D01*
X690000Y400000D02*
X620000Y400000D01*
D16*
X300000Y370000D03*
D17*
X330000Y400000D01*
X410000Y400000D02*
X420000Y410000D01*
X410000Y400000D02*
X330000Y400000D01*
D16*
X880000Y370000D03*
D17*
X870000Y370000D01*
X840000Y400000D01*
X840000Y490000D01*
X835000Y495000D01*
X810000Y495000D01*
X590000Y370000D02*
X570000Y390000D01*
X570000Y455000D02*
X560000Y465000D01*
X562500Y492500D02*
X560000Y495000D01*
X530000Y495000D01*
X570000Y455000D02*
X570000Y390000D01*
X300000Y370000D02*
X300000Y410000D01*
X280000Y430000D01*
X280000Y490000D01*
X275000Y495000D01*
X250000Y495000D01*
X700000Y500000D02*
X700000Y410000D01*
X700000Y500000D02*
X700000Y540000D01*
X705000Y545000D01*
X710000Y550000D01*
X750000Y550000D01*
X775000Y525000D01*
X560000Y550000D02*
X560000Y465000D01*
X560000Y550000D02*
X570000Y560000D01*
X590000Y560000D01*
X630000Y520000D01*
X655000Y545000D02*
X705000Y545000D01*
X655000Y545000D02*
X630000Y520000D01*
X420000Y490000D02*
X417500Y487500D01*
X420000Y490000D02*
X420000Y530000D01*
X440000Y550000D01*
X560000Y550000D01*
X280000Y530000D02*
X280000Y490000D01*
X300000Y550000D02*
X440000Y550000D01*
X300000Y550000D02*
X280000Y530000D01*
X140000Y490000D02*
X127500Y477500D01*
X140000Y490000D02*
X140000Y530000D01*
X160000Y550000D01*
X300000Y550000D01*
X775000Y525000D02*
X800000Y550000D01*
X830000Y550000D01*
X840000Y540000D01*
X840000Y490000D01*
D16*
X380000Y110000D03*
D17*
X360000Y130000D01*
X360000Y190000D01*
D16*
X360000Y190000D03*
X380000Y150000D03*
D17*
X450000Y150000D01*
X480000Y180000D01*
D16*
X500000Y200000D03*
D17*
X480000Y180000D01*
D16*
X530000Y160000D03*
D17*
X520000Y170000D01*
X490000Y170000D01*
X480000Y180000D01*
D16*
X230000Y220000D03*
D17*
X280000Y170000D01*
D16*
X280000Y170000D03*
X640000Y170000D03*
D17*
X640000Y130000D01*
X630000Y120000D01*
D16*
X630000Y120000D03*
X670000Y140000D03*
D17*
X740000Y140000D02*
X750000Y150000D01*
X740000Y140000D02*
X670000Y140000D01*
D16*
X750000Y150000D03*
X770000Y470000D03*
D17*
X770000Y390000D01*
X760000Y380000D01*
X670000Y380000D02*
X650000Y360000D01*
X650000Y230000D01*
D16*
X650000Y230000D03*
D17*
X670000Y380000D02*
X760000Y380000D01*
D16*
X490000Y470000D03*
D17*
X490000Y400000D01*
X470000Y380000D01*
X370000Y380000D01*
X350000Y360000D01*
X350000Y230000D01*
D16*
X350000Y230000D03*
X210000Y470000D03*
D17*
X210000Y390000D01*
X200000Y380000D02*
X110000Y380000D01*
X80000Y350000D01*
D16*
X80000Y220000D03*
D17*
X200000Y380000D02*
X210000Y390000D01*
X80000Y350000D02*
X80000Y220000D01*
D16*
X630000Y560000D03*
D17*
X630000Y620000D01*
X610000Y640000D01*
X560000Y640000D01*
D16*
X560000Y640000D03*
X770000Y570000D03*
D17*
X770000Y610000D01*
X740000Y640000D01*
X610000Y640000D01*
D16*
X910000Y500000D03*
D17*
X910000Y610000D01*
X880000Y640000D01*
X740000Y640000D01*
D16*
X490000Y580000D03*
D17*
X490000Y610000D02*
X460000Y640000D01*
D16*
X460000Y640000D03*
D17*
X490000Y610000D02*
X490000Y580000D01*
D16*
X350000Y590000D03*
D17*
X350000Y620000D01*
X370000Y640000D01*
X460000Y640000D01*
D16*
X210000Y580000D03*
D17*
X210000Y620000D01*
X230000Y640000D01*
X370000Y640000D01*
D16*
X850000Y310000D03*
D17*
X840000Y300000D01*
X800000Y300000D01*
D16*
X800000Y300000D03*
X860000Y290000D03*
D17*
X830000Y260000D01*
X800000Y260000D01*
D16*
X800000Y260000D03*
X570000Y300000D03*
D17*
X500000Y300000D01*
D16*
X500000Y300000D03*
X570000Y280000D03*
D17*
X560000Y270000D01*
X500000Y270000D01*
D16*
X500000Y270000D03*
X290000Y300000D03*
D17*
X220000Y300000D01*
D16*
X220000Y300000D03*
X290000Y280000D03*
D17*
X240000Y280000D01*
X230000Y270000D01*
D16*
X230000Y270000D03*
M02*
