G04 EAGLE Gerber RS-274X export*
G75*
%MOMM*%
%FSLAX34Y34*%
%LPD*%
%INSoldermask Top*%
%IPPOS*%
%AMOC8*
5,1,8,0,0,1.08239X$1,22.5*%
G01*
%ADD10C,1.727200*%
%ADD11P,1.869504X8X22.500000*%
%ADD12P,1.419230X8X22.500000*%
%ADD13R,1.711200X1.711200*%
%ADD14P,1.852186X8X22.500000*%
%ADD15C,1.703200*%


D10*
X252880Y121600D02*
X268120Y121600D01*
X268120Y96200D02*
X252880Y96200D01*
D11*
X409200Y89900D03*
X409200Y115300D03*
X434600Y89900D03*
X434600Y115300D03*
X460000Y89900D03*
X460000Y115300D03*
X130300Y88900D03*
X130300Y114300D03*
X155700Y88900D03*
X155700Y114300D03*
X181100Y88900D03*
X181100Y114300D03*
D10*
X615100Y144880D02*
X615100Y160120D01*
X589700Y160120D02*
X589700Y144880D01*
X344800Y144620D02*
X344800Y129380D01*
X319400Y129380D02*
X319400Y144620D01*
D11*
X695400Y86900D03*
X695400Y112300D03*
X720800Y86900D03*
X720800Y112300D03*
X746200Y86900D03*
X746200Y112300D03*
D10*
X322300Y97120D02*
X322300Y81880D01*
X347700Y81880D02*
X347700Y97120D01*
X579000Y96120D02*
X579000Y80880D01*
X604400Y80880D02*
X604400Y96120D01*
D12*
X118100Y341100D03*
X193100Y341100D03*
X118100Y316100D03*
X118100Y291100D03*
X118100Y266100D03*
X118100Y241100D03*
X118100Y216100D03*
X118100Y191100D03*
X193100Y316100D03*
X193100Y291100D03*
X193100Y266100D03*
X193100Y241100D03*
X193100Y216100D03*
X193100Y191100D03*
D13*
X670000Y520000D03*
X735000Y520000D03*
D14*
X670000Y495000D03*
X735000Y495000D03*
X670000Y470000D03*
X735000Y470000D03*
X670000Y445000D03*
X735000Y445000D03*
X670000Y420000D03*
X735000Y420000D03*
D12*
X679900Y348100D03*
X754900Y348100D03*
X679900Y323100D03*
X679900Y298100D03*
X679900Y273100D03*
X679900Y248100D03*
X679900Y223100D03*
X679900Y198100D03*
X754900Y323100D03*
X754900Y298100D03*
X754900Y273100D03*
X754900Y248100D03*
X754900Y223100D03*
X754900Y198100D03*
D13*
X810000Y520000D03*
X875000Y520000D03*
D14*
X810000Y495000D03*
X875000Y495000D03*
X810000Y470000D03*
X875000Y470000D03*
X810000Y445000D03*
X875000Y445000D03*
X810000Y420000D03*
X875000Y420000D03*
D13*
X390000Y520000D03*
X455000Y520000D03*
D14*
X390000Y495000D03*
X455000Y495000D03*
X390000Y470000D03*
X455000Y470000D03*
X390000Y445000D03*
X455000Y445000D03*
X390000Y420000D03*
X455000Y420000D03*
D13*
X530000Y520000D03*
X595000Y520000D03*
D14*
X530000Y495000D03*
X595000Y495000D03*
X530000Y470000D03*
X595000Y470000D03*
X530000Y445000D03*
X595000Y445000D03*
X530000Y420000D03*
X595000Y420000D03*
D13*
X110000Y520000D03*
X175000Y520000D03*
D14*
X110000Y495000D03*
X175000Y495000D03*
X110000Y470000D03*
X175000Y470000D03*
X110000Y445000D03*
X175000Y445000D03*
X110000Y420000D03*
X175000Y420000D03*
D13*
X250000Y520000D03*
X315000Y520000D03*
D14*
X250000Y495000D03*
X315000Y495000D03*
X250000Y470000D03*
X315000Y470000D03*
X250000Y445000D03*
X315000Y445000D03*
X250000Y420000D03*
X315000Y420000D03*
D12*
X385500Y348100D03*
X460500Y348100D03*
X385500Y323100D03*
X385500Y298100D03*
X385500Y273100D03*
X385500Y248100D03*
X385500Y223100D03*
X385500Y198100D03*
X460500Y323100D03*
X460500Y298100D03*
X460500Y273100D03*
X460500Y248100D03*
X460500Y223100D03*
X460500Y198100D03*
D11*
X520000Y640000D03*
D15*
X380000Y80000D03*
X104104Y100000D03*
X650000Y90000D03*
X510000Y240000D03*
X230000Y360000D03*
X720000Y280000D03*
X140000Y400000D03*
X420000Y400000D03*
X700000Y400000D03*
X590000Y370000D03*
X300000Y370000D03*
X880000Y370000D03*
X380000Y110000D03*
X360000Y190000D03*
X380000Y150000D03*
X500000Y200000D03*
X530000Y160000D03*
X230000Y220000D03*
X280000Y170000D03*
X640000Y170000D03*
X630000Y120000D03*
X670000Y140000D03*
X750000Y150000D03*
X770000Y470000D03*
X650000Y230000D03*
X490000Y470000D03*
X350000Y230000D03*
X210000Y470000D03*
X80000Y220000D03*
X630000Y560000D03*
X560000Y640000D03*
X770000Y570000D03*
X910000Y500000D03*
X490000Y580000D03*
X460000Y640000D03*
X350000Y590000D03*
X210000Y580000D03*
X850000Y310000D03*
X800000Y300000D03*
X860000Y290000D03*
X800000Y260000D03*
X570000Y300000D03*
X500000Y300000D03*
X570000Y280000D03*
X500000Y270000D03*
X290000Y300000D03*
X220000Y300000D03*
X290000Y280000D03*
X230000Y270000D03*
M02*
