G04 EAGLE Gerber RS-274X export*
G75*
%MOMM*%
%FSLAX34Y34*%
%LPD*%
%INTop Copper*%
%IPPOS*%
%AMOC8*
5,1,8,0,0,1.08239X$1,22.5*%
G01*
%ADD10C,0.355600*%
%ADD11P,1.649562X8X22.500000*%
%ADD12R,1.508000X1.508000*%
%ADD13P,1.632244X8X22.500000*%
%ADD14P,1.199288X8X22.500000*%
%ADD15C,1.500000*%
%ADD16C,1.016000*%


D10*
X298222Y59906D02*
X298222Y51778D01*
X279934Y51778D01*
X279934Y59906D01*
X288062Y57874D02*
X288062Y51778D01*
X279934Y72762D02*
X279936Y72895D01*
X279942Y73028D01*
X279951Y73160D01*
X279965Y73293D01*
X279982Y73425D01*
X280003Y73556D01*
X280028Y73687D01*
X280057Y73816D01*
X280090Y73945D01*
X280126Y74073D01*
X280166Y74200D01*
X280210Y74326D01*
X280257Y74450D01*
X280308Y74573D01*
X280362Y74694D01*
X280420Y74814D01*
X280482Y74932D01*
X280547Y75048D01*
X280615Y75162D01*
X280686Y75274D01*
X280761Y75384D01*
X280839Y75492D01*
X280920Y75598D01*
X281004Y75701D01*
X281091Y75801D01*
X281180Y75899D01*
X281273Y75995D01*
X281369Y76088D01*
X281467Y76177D01*
X281567Y76264D01*
X281670Y76348D01*
X281776Y76429D01*
X281884Y76507D01*
X281994Y76582D01*
X282106Y76653D01*
X282220Y76721D01*
X282336Y76786D01*
X282454Y76848D01*
X282574Y76906D01*
X282695Y76960D01*
X282818Y77011D01*
X282942Y77058D01*
X283068Y77102D01*
X283195Y77142D01*
X283323Y77178D01*
X283452Y77211D01*
X283581Y77240D01*
X283712Y77265D01*
X283843Y77286D01*
X283975Y77303D01*
X284108Y77317D01*
X284240Y77326D01*
X284373Y77332D01*
X284506Y77334D01*
X279934Y72762D02*
X279936Y72611D01*
X279942Y72461D01*
X279951Y72310D01*
X279965Y72160D01*
X279982Y72010D01*
X280004Y71861D01*
X280029Y71712D01*
X280057Y71564D01*
X280090Y71417D01*
X280126Y71271D01*
X280167Y71126D01*
X280210Y70981D01*
X280258Y70838D01*
X280309Y70697D01*
X280364Y70556D01*
X280422Y70417D01*
X280484Y70280D01*
X280550Y70144D01*
X280619Y70010D01*
X280691Y69878D01*
X280767Y69747D01*
X280846Y69619D01*
X280928Y69492D01*
X281014Y69368D01*
X281102Y69246D01*
X281194Y69127D01*
X281289Y69010D01*
X281387Y68895D01*
X281487Y68783D01*
X281591Y68673D01*
X281697Y68566D01*
X281806Y68462D01*
X281918Y68361D01*
X282032Y68262D01*
X282149Y68167D01*
X282268Y68075D01*
X282389Y67985D01*
X282513Y67899D01*
X282639Y67816D01*
X282767Y67737D01*
X282897Y67660D01*
X283029Y67587D01*
X283162Y67517D01*
X283298Y67451D01*
X283435Y67389D01*
X283574Y67330D01*
X283714Y67274D01*
X283855Y67222D01*
X283998Y67174D01*
X288062Y75811D02*
X287966Y75909D01*
X287868Y76004D01*
X287766Y76097D01*
X287663Y76186D01*
X287556Y76273D01*
X287448Y76357D01*
X287337Y76437D01*
X287224Y76515D01*
X287108Y76589D01*
X286991Y76660D01*
X286872Y76728D01*
X286751Y76792D01*
X286628Y76853D01*
X286503Y76910D01*
X286377Y76964D01*
X286250Y77015D01*
X286121Y77062D01*
X285991Y77105D01*
X285860Y77145D01*
X285727Y77181D01*
X285594Y77213D01*
X285460Y77241D01*
X285325Y77266D01*
X285189Y77287D01*
X285053Y77304D01*
X284917Y77318D01*
X284780Y77327D01*
X284643Y77333D01*
X284506Y77335D01*
X288062Y75810D02*
X298222Y67174D01*
X298222Y77334D01*
X289078Y85712D02*
X288718Y85716D01*
X288359Y85729D01*
X288000Y85751D01*
X287641Y85781D01*
X287283Y85819D01*
X286927Y85866D01*
X286571Y85922D01*
X286217Y85986D01*
X285865Y86059D01*
X285514Y86139D01*
X285166Y86229D01*
X284819Y86326D01*
X284475Y86432D01*
X284134Y86546D01*
X283796Y86668D01*
X283460Y86798D01*
X283128Y86936D01*
X282799Y87082D01*
X282474Y87236D01*
X282474Y87237D02*
X282361Y87278D01*
X282250Y87322D01*
X282141Y87370D01*
X282033Y87421D01*
X281926Y87475D01*
X281822Y87533D01*
X281719Y87594D01*
X281618Y87659D01*
X281519Y87726D01*
X281423Y87797D01*
X281329Y87871D01*
X281237Y87947D01*
X281148Y88027D01*
X281061Y88109D01*
X280977Y88194D01*
X280896Y88282D01*
X280817Y88372D01*
X280742Y88465D01*
X280669Y88560D01*
X280600Y88657D01*
X280533Y88756D01*
X280470Y88858D01*
X280410Y88961D01*
X280354Y89067D01*
X280301Y89174D01*
X280251Y89283D01*
X280205Y89393D01*
X280162Y89504D01*
X280123Y89617D01*
X280087Y89732D01*
X280055Y89847D01*
X280027Y89963D01*
X280002Y90080D01*
X279981Y90198D01*
X279964Y90316D01*
X279951Y90435D01*
X279942Y90554D01*
X279936Y90673D01*
X279934Y90793D01*
X279936Y90913D01*
X279942Y91032D01*
X279951Y91151D01*
X279964Y91270D01*
X279981Y91388D01*
X280002Y91506D01*
X280027Y91623D01*
X280055Y91739D01*
X280087Y91854D01*
X280123Y91969D01*
X280162Y92082D01*
X280205Y92193D01*
X280251Y92303D01*
X280301Y92412D01*
X280354Y92519D01*
X280410Y92625D01*
X280470Y92728D01*
X280533Y92830D01*
X280600Y92929D01*
X280669Y93026D01*
X280742Y93121D01*
X280817Y93214D01*
X280896Y93304D01*
X280977Y93392D01*
X281061Y93477D01*
X281148Y93559D01*
X281237Y93639D01*
X281329Y93715D01*
X281423Y93789D01*
X281519Y93860D01*
X281618Y93927D01*
X281719Y93992D01*
X281822Y94053D01*
X281926Y94111D01*
X282033Y94165D01*
X282141Y94216D01*
X282250Y94264D01*
X282361Y94308D01*
X282474Y94349D01*
X282799Y94503D01*
X283128Y94649D01*
X283460Y94787D01*
X283796Y94917D01*
X284134Y95039D01*
X284475Y95153D01*
X284819Y95259D01*
X285166Y95356D01*
X285514Y95446D01*
X285865Y95526D01*
X286217Y95599D01*
X286571Y95663D01*
X286927Y95719D01*
X287283Y95766D01*
X287641Y95804D01*
X288000Y95834D01*
X288359Y95856D01*
X288718Y95869D01*
X289078Y95873D01*
X289078Y85712D02*
X289438Y85716D01*
X289797Y85729D01*
X290156Y85751D01*
X290515Y85781D01*
X290873Y85819D01*
X291229Y85866D01*
X291585Y85922D01*
X291939Y85986D01*
X292291Y86059D01*
X292642Y86139D01*
X292990Y86229D01*
X293337Y86326D01*
X293681Y86432D01*
X294022Y86546D01*
X294360Y86668D01*
X294696Y86798D01*
X295028Y86936D01*
X295357Y87082D01*
X295682Y87236D01*
X295682Y87237D02*
X295795Y87278D01*
X295906Y87322D01*
X296015Y87370D01*
X296123Y87421D01*
X296230Y87475D01*
X296334Y87533D01*
X296437Y87594D01*
X296538Y87659D01*
X296637Y87726D01*
X296733Y87797D01*
X296827Y87871D01*
X296919Y87947D01*
X297008Y88027D01*
X297095Y88109D01*
X297179Y88194D01*
X297260Y88282D01*
X297339Y88372D01*
X297414Y88465D01*
X297487Y88560D01*
X297556Y88657D01*
X297623Y88756D01*
X297686Y88858D01*
X297746Y88961D01*
X297802Y89067D01*
X297855Y89174D01*
X297905Y89283D01*
X297951Y89393D01*
X297994Y89504D01*
X298033Y89617D01*
X298069Y89732D01*
X298101Y89847D01*
X298129Y89963D01*
X298154Y90080D01*
X298175Y90198D01*
X298192Y90316D01*
X298205Y90435D01*
X298214Y90554D01*
X298220Y90673D01*
X298222Y90793D01*
X295682Y94349D02*
X295357Y94503D01*
X295028Y94649D01*
X294696Y94787D01*
X294360Y94917D01*
X294022Y95039D01*
X293681Y95153D01*
X293337Y95259D01*
X292990Y95356D01*
X292642Y95446D01*
X292291Y95526D01*
X291939Y95599D01*
X291585Y95663D01*
X291229Y95719D01*
X290873Y95766D01*
X290515Y95804D01*
X290156Y95834D01*
X289797Y95856D01*
X289438Y95869D01*
X289078Y95873D01*
X295682Y94349D02*
X295795Y94308D01*
X295906Y94264D01*
X296015Y94216D01*
X296123Y94165D01*
X296230Y94111D01*
X296334Y94053D01*
X296437Y93992D01*
X296538Y93927D01*
X296637Y93860D01*
X296733Y93789D01*
X296827Y93715D01*
X296919Y93639D01*
X297008Y93559D01*
X297095Y93477D01*
X297179Y93392D01*
X297260Y93304D01*
X297339Y93214D01*
X297414Y93121D01*
X297487Y93026D01*
X297556Y92929D01*
X297623Y92830D01*
X297686Y92728D01*
X297746Y92625D01*
X297802Y92519D01*
X297855Y92412D01*
X297905Y92303D01*
X297951Y92193D01*
X297994Y92082D01*
X298033Y91969D01*
X298069Y91854D01*
X298101Y91739D01*
X298129Y91623D01*
X298154Y91506D01*
X298175Y91388D01*
X298192Y91270D01*
X298205Y91151D01*
X298214Y91032D01*
X298220Y90913D01*
X298222Y90793D01*
X294158Y86729D02*
X283998Y94857D01*
X289078Y104251D02*
X288718Y104255D01*
X288359Y104268D01*
X288000Y104290D01*
X287641Y104320D01*
X287283Y104358D01*
X286927Y104405D01*
X286571Y104461D01*
X286217Y104525D01*
X285865Y104598D01*
X285514Y104678D01*
X285166Y104768D01*
X284819Y104865D01*
X284475Y104971D01*
X284134Y105085D01*
X283796Y105207D01*
X283460Y105337D01*
X283128Y105475D01*
X282799Y105621D01*
X282474Y105775D01*
X282361Y105816D01*
X282250Y105860D01*
X282141Y105908D01*
X282033Y105959D01*
X281926Y106013D01*
X281822Y106071D01*
X281719Y106132D01*
X281618Y106197D01*
X281519Y106264D01*
X281423Y106335D01*
X281329Y106409D01*
X281237Y106485D01*
X281148Y106565D01*
X281061Y106647D01*
X280977Y106732D01*
X280896Y106820D01*
X280817Y106910D01*
X280742Y107003D01*
X280669Y107098D01*
X280600Y107195D01*
X280533Y107294D01*
X280470Y107396D01*
X280410Y107499D01*
X280354Y107605D01*
X280301Y107712D01*
X280251Y107821D01*
X280205Y107931D01*
X280162Y108042D01*
X280123Y108155D01*
X280087Y108270D01*
X280055Y108385D01*
X280027Y108501D01*
X280002Y108618D01*
X279981Y108736D01*
X279964Y108854D01*
X279951Y108973D01*
X279942Y109092D01*
X279936Y109211D01*
X279934Y109331D01*
X279936Y109451D01*
X279942Y109570D01*
X279951Y109689D01*
X279964Y109808D01*
X279981Y109926D01*
X280002Y110044D01*
X280027Y110161D01*
X280055Y110277D01*
X280087Y110392D01*
X280123Y110507D01*
X280162Y110620D01*
X280205Y110731D01*
X280251Y110841D01*
X280301Y110950D01*
X280354Y111057D01*
X280410Y111163D01*
X280470Y111266D01*
X280533Y111368D01*
X280600Y111467D01*
X280669Y111564D01*
X280742Y111659D01*
X280817Y111752D01*
X280896Y111842D01*
X280977Y111930D01*
X281061Y112015D01*
X281148Y112097D01*
X281237Y112177D01*
X281329Y112253D01*
X281423Y112327D01*
X281519Y112398D01*
X281618Y112465D01*
X281719Y112530D01*
X281822Y112591D01*
X281926Y112649D01*
X282033Y112703D01*
X282141Y112754D01*
X282250Y112802D01*
X282361Y112846D01*
X282474Y112887D01*
X282799Y113041D01*
X283128Y113187D01*
X283460Y113325D01*
X283796Y113455D01*
X284134Y113577D01*
X284475Y113691D01*
X284819Y113797D01*
X285166Y113894D01*
X285514Y113984D01*
X285865Y114064D01*
X286217Y114137D01*
X286571Y114201D01*
X286927Y114257D01*
X287283Y114304D01*
X287641Y114342D01*
X288000Y114372D01*
X288359Y114394D01*
X288718Y114407D01*
X289078Y114411D01*
X289078Y104251D02*
X289438Y104255D01*
X289797Y104268D01*
X290156Y104290D01*
X290515Y104320D01*
X290873Y104358D01*
X291229Y104405D01*
X291585Y104461D01*
X291939Y104525D01*
X292291Y104598D01*
X292642Y104678D01*
X292990Y104768D01*
X293337Y104865D01*
X293681Y104971D01*
X294022Y105085D01*
X294360Y105207D01*
X294696Y105337D01*
X295028Y105475D01*
X295357Y105621D01*
X295682Y105775D01*
X295795Y105816D01*
X295906Y105860D01*
X296015Y105908D01*
X296123Y105959D01*
X296230Y106013D01*
X296334Y106071D01*
X296437Y106132D01*
X296538Y106197D01*
X296637Y106264D01*
X296733Y106335D01*
X296827Y106409D01*
X296919Y106485D01*
X297008Y106565D01*
X297095Y106647D01*
X297179Y106732D01*
X297260Y106820D01*
X297339Y106910D01*
X297414Y107003D01*
X297487Y107098D01*
X297556Y107195D01*
X297623Y107294D01*
X297686Y107396D01*
X297746Y107499D01*
X297802Y107605D01*
X297855Y107712D01*
X297905Y107821D01*
X297951Y107931D01*
X297994Y108042D01*
X298033Y108155D01*
X298069Y108270D01*
X298101Y108385D01*
X298129Y108501D01*
X298154Y108618D01*
X298175Y108736D01*
X298192Y108854D01*
X298205Y108973D01*
X298214Y109092D01*
X298220Y109211D01*
X298222Y109331D01*
X295682Y112887D02*
X295357Y113041D01*
X295028Y113187D01*
X294696Y113325D01*
X294360Y113455D01*
X294022Y113577D01*
X293681Y113691D01*
X293337Y113797D01*
X292990Y113894D01*
X292642Y113984D01*
X292291Y114064D01*
X291939Y114137D01*
X291585Y114201D01*
X291229Y114257D01*
X290873Y114304D01*
X290515Y114342D01*
X290156Y114372D01*
X289797Y114394D01*
X289438Y114407D01*
X289078Y114411D01*
X295682Y112887D02*
X295795Y112846D01*
X295906Y112802D01*
X296015Y112754D01*
X296123Y112703D01*
X296230Y112649D01*
X296334Y112591D01*
X296437Y112530D01*
X296538Y112465D01*
X296637Y112398D01*
X296733Y112327D01*
X296827Y112253D01*
X296919Y112177D01*
X297008Y112097D01*
X297095Y112015D01*
X297179Y111930D01*
X297260Y111842D01*
X297339Y111752D01*
X297414Y111659D01*
X297487Y111564D01*
X297556Y111467D01*
X297623Y111368D01*
X297686Y111266D01*
X297746Y111163D01*
X297802Y111057D01*
X297855Y110950D01*
X297905Y110841D01*
X297951Y110731D01*
X297994Y110620D01*
X298033Y110507D01*
X298069Y110392D01*
X298101Y110277D01*
X298129Y110161D01*
X298154Y110044D01*
X298175Y109926D01*
X298192Y109808D01*
X298205Y109689D01*
X298214Y109570D01*
X298220Y109451D01*
X298222Y109331D01*
X294158Y105267D02*
X283998Y113395D01*
X283998Y122789D02*
X279934Y127869D01*
X298222Y127869D01*
X298222Y122789D02*
X298222Y132949D01*
X298222Y140312D02*
X279934Y146408D01*
X298222Y152504D01*
X293650Y150980D02*
X293650Y141836D01*
X286030Y168915D02*
X298222Y172979D01*
X286030Y177043D01*
X289078Y184583D02*
X288718Y184587D01*
X288359Y184600D01*
X288000Y184622D01*
X287641Y184652D01*
X287283Y184690D01*
X286927Y184737D01*
X286571Y184793D01*
X286217Y184857D01*
X285865Y184930D01*
X285514Y185010D01*
X285166Y185100D01*
X284819Y185197D01*
X284475Y185303D01*
X284134Y185417D01*
X283796Y185539D01*
X283460Y185669D01*
X283128Y185807D01*
X282799Y185953D01*
X282474Y186107D01*
X282474Y186108D02*
X282361Y186149D01*
X282250Y186193D01*
X282141Y186241D01*
X282033Y186292D01*
X281926Y186346D01*
X281822Y186404D01*
X281719Y186465D01*
X281618Y186530D01*
X281519Y186597D01*
X281423Y186668D01*
X281329Y186742D01*
X281237Y186818D01*
X281148Y186898D01*
X281061Y186980D01*
X280977Y187065D01*
X280896Y187153D01*
X280817Y187243D01*
X280742Y187336D01*
X280669Y187431D01*
X280600Y187528D01*
X280533Y187627D01*
X280470Y187729D01*
X280410Y187832D01*
X280354Y187938D01*
X280301Y188045D01*
X280251Y188154D01*
X280205Y188264D01*
X280162Y188375D01*
X280123Y188488D01*
X280087Y188603D01*
X280055Y188718D01*
X280027Y188834D01*
X280002Y188951D01*
X279981Y189069D01*
X279964Y189187D01*
X279951Y189306D01*
X279942Y189425D01*
X279936Y189544D01*
X279934Y189664D01*
X279936Y189784D01*
X279942Y189903D01*
X279951Y190022D01*
X279964Y190141D01*
X279981Y190259D01*
X280002Y190377D01*
X280027Y190494D01*
X280055Y190610D01*
X280087Y190725D01*
X280123Y190840D01*
X280162Y190953D01*
X280205Y191064D01*
X280251Y191174D01*
X280301Y191283D01*
X280354Y191390D01*
X280410Y191496D01*
X280470Y191599D01*
X280533Y191701D01*
X280600Y191800D01*
X280669Y191897D01*
X280742Y191992D01*
X280817Y192085D01*
X280896Y192175D01*
X280977Y192263D01*
X281061Y192348D01*
X281148Y192430D01*
X281237Y192510D01*
X281329Y192586D01*
X281423Y192660D01*
X281519Y192731D01*
X281618Y192798D01*
X281719Y192863D01*
X281822Y192924D01*
X281926Y192982D01*
X282033Y193036D01*
X282141Y193087D01*
X282250Y193135D01*
X282361Y193179D01*
X282474Y193220D01*
X282799Y193374D01*
X283128Y193520D01*
X283460Y193658D01*
X283796Y193788D01*
X284134Y193910D01*
X284475Y194024D01*
X284819Y194130D01*
X285166Y194227D01*
X285514Y194317D01*
X285865Y194397D01*
X286217Y194470D01*
X286571Y194534D01*
X286927Y194590D01*
X287283Y194637D01*
X287641Y194675D01*
X288000Y194705D01*
X288359Y194727D01*
X288718Y194740D01*
X289078Y194744D01*
X289078Y184583D02*
X289438Y184587D01*
X289797Y184600D01*
X290156Y184622D01*
X290515Y184652D01*
X290873Y184690D01*
X291229Y184737D01*
X291585Y184793D01*
X291939Y184857D01*
X292291Y184930D01*
X292642Y185010D01*
X292990Y185100D01*
X293337Y185197D01*
X293681Y185303D01*
X294022Y185417D01*
X294360Y185539D01*
X294696Y185669D01*
X295028Y185807D01*
X295357Y185953D01*
X295682Y186107D01*
X295682Y186108D02*
X295795Y186149D01*
X295906Y186193D01*
X296015Y186241D01*
X296123Y186292D01*
X296230Y186346D01*
X296334Y186404D01*
X296437Y186465D01*
X296538Y186530D01*
X296637Y186597D01*
X296733Y186668D01*
X296827Y186742D01*
X296919Y186818D01*
X297008Y186898D01*
X297095Y186980D01*
X297179Y187065D01*
X297260Y187153D01*
X297339Y187243D01*
X297414Y187336D01*
X297487Y187431D01*
X297556Y187528D01*
X297623Y187627D01*
X297686Y187729D01*
X297746Y187832D01*
X297802Y187938D01*
X297855Y188045D01*
X297905Y188154D01*
X297951Y188264D01*
X297994Y188375D01*
X298033Y188488D01*
X298069Y188603D01*
X298101Y188718D01*
X298129Y188834D01*
X298154Y188951D01*
X298175Y189069D01*
X298192Y189187D01*
X298205Y189306D01*
X298214Y189425D01*
X298220Y189544D01*
X298222Y189664D01*
X295682Y193220D02*
X295357Y193374D01*
X295028Y193520D01*
X294696Y193658D01*
X294360Y193788D01*
X294022Y193910D01*
X293681Y194024D01*
X293337Y194130D01*
X292990Y194227D01*
X292642Y194317D01*
X292291Y194397D01*
X291939Y194470D01*
X291585Y194534D01*
X291229Y194590D01*
X290873Y194637D01*
X290515Y194675D01*
X290156Y194705D01*
X289797Y194727D01*
X289438Y194740D01*
X289078Y194744D01*
X295682Y193220D02*
X295795Y193179D01*
X295906Y193135D01*
X296015Y193087D01*
X296123Y193036D01*
X296230Y192982D01*
X296334Y192924D01*
X296437Y192863D01*
X296538Y192798D01*
X296637Y192731D01*
X296733Y192660D01*
X296827Y192586D01*
X296919Y192510D01*
X297008Y192430D01*
X297095Y192348D01*
X297179Y192263D01*
X297260Y192175D01*
X297339Y192085D01*
X297414Y191992D01*
X297487Y191897D01*
X297556Y191800D01*
X297623Y191701D01*
X297686Y191599D01*
X297746Y191496D01*
X297802Y191390D01*
X297855Y191283D01*
X297905Y191174D01*
X297951Y191064D01*
X297994Y190953D01*
X298033Y190840D01*
X298069Y190725D01*
X298101Y190610D01*
X298129Y190494D01*
X298154Y190377D01*
X298175Y190259D01*
X298192Y190141D01*
X298205Y190022D01*
X298214Y189903D01*
X298220Y189784D01*
X298222Y189664D01*
X294158Y185600D02*
X283998Y193728D01*
X297206Y202133D02*
X298222Y202133D01*
X297206Y202133D02*
X297206Y203149D01*
X298222Y203149D01*
X298222Y202133D01*
X283998Y210537D02*
X279934Y215617D01*
X298222Y215617D01*
X298222Y210537D02*
X298222Y220697D01*
D11*
X99200Y49900D03*
X99200Y75300D03*
X124600Y49900D03*
X124600Y75300D03*
X150000Y49900D03*
X150000Y75300D03*
D12*
X80000Y480000D03*
X145000Y480000D03*
D13*
X80000Y455000D03*
X145000Y455000D03*
X80000Y430000D03*
X145000Y430000D03*
X80000Y405000D03*
X145000Y405000D03*
X80000Y380000D03*
X145000Y380000D03*
D12*
X220000Y480000D03*
X285000Y480000D03*
D13*
X220000Y455000D03*
X285000Y455000D03*
X220000Y430000D03*
X285000Y430000D03*
X220000Y405000D03*
X285000Y405000D03*
X220000Y380000D03*
X285000Y380000D03*
D14*
X75500Y308100D03*
X150500Y308100D03*
X75500Y283100D03*
X75500Y258100D03*
X75500Y233100D03*
X75500Y208100D03*
X75500Y183100D03*
X75500Y158100D03*
X150500Y283100D03*
X150500Y258100D03*
X150500Y233100D03*
X150500Y208100D03*
X150500Y183100D03*
X150500Y158100D03*
D11*
X210000Y600000D03*
D15*
X200000Y200000D03*
X70000Y110000D03*
D16*
X80000Y120000D01*
X160000Y120000D01*
X200000Y160000D01*
X200000Y200000D01*
D15*
X40000Y470000D03*
D16*
X30000Y460000D01*
X30000Y160000D01*
X60000Y130000D01*
X70000Y130000D01*
X80000Y120000D01*
D15*
X110000Y360000D03*
D16*
X110000Y445000D02*
X100000Y455000D01*
X80000Y455000D01*
D15*
X280000Y330000D03*
D16*
X260000Y350000D01*
X260000Y415000D02*
X250000Y425000D01*
X252500Y452500D02*
X250000Y455000D01*
X220000Y455000D01*
X260000Y415000D02*
X260000Y350000D01*
X250000Y425000D02*
X250000Y510000D01*
X260000Y520000D01*
X280000Y520000D01*
X130000Y510000D02*
X110000Y490000D01*
X130000Y510000D02*
X250000Y510000D01*
X110000Y490000D02*
X110000Y445000D01*
X110000Y360000D01*
D15*
X180000Y430000D03*
D16*
X180000Y360000D01*
X160000Y340000D01*
X60000Y340000D01*
X50000Y330000D01*
X50000Y190000D01*
D15*
X50000Y190000D03*
X260000Y260000D03*
D16*
X190000Y260000D01*
D15*
X190000Y260000D03*
X260000Y240000D03*
D16*
X250000Y230000D01*
X190000Y230000D01*
D15*
X190000Y230000D03*
X180000Y540000D03*
D16*
X180000Y600000D01*
D15*
X180000Y600000D03*
M02*
