G04 EAGLE Gerber RS-274X export*
G75*
%MOMM*%
%FSLAX34Y34*%
%LPD*%
%INSilkscreen Top*%
%IPPOS*%
%AMOC8*
5,1,8,0,0,1.08239X$1,22.5*%
G01*
%ADD10C,0.152400*%
%ADD11C,0.127000*%
%ADD12C,0.101600*%


D10*
X86500Y43550D02*
X92850Y37200D01*
X105550Y37200D02*
X111900Y43550D01*
X118250Y37200D01*
X130950Y37200D02*
X137300Y43550D01*
X86500Y43550D02*
X86500Y81650D01*
X92850Y88000D01*
X105550Y88000D01*
X111900Y81650D01*
X118250Y88000D01*
X130950Y88000D01*
X137300Y81650D01*
X111900Y81650D02*
X111900Y43550D01*
X137300Y43550D02*
X137300Y81650D01*
X130950Y37200D02*
X118250Y37200D01*
X105550Y37200D02*
X92850Y37200D01*
X137300Y43550D02*
X143650Y37200D01*
X156350Y37200D02*
X162700Y43550D01*
X137300Y81650D02*
X143650Y88000D01*
X156350Y88000D01*
X162700Y81650D01*
X162700Y43550D01*
X156350Y37200D02*
X143650Y37200D01*
D11*
X89945Y102525D02*
X89945Y111415D01*
X89945Y102525D02*
X89943Y102425D01*
X89937Y102326D01*
X89927Y102226D01*
X89914Y102128D01*
X89896Y102029D01*
X89875Y101932D01*
X89850Y101836D01*
X89821Y101740D01*
X89788Y101646D01*
X89752Y101553D01*
X89712Y101462D01*
X89668Y101372D01*
X89621Y101284D01*
X89571Y101198D01*
X89517Y101114D01*
X89460Y101032D01*
X89400Y100953D01*
X89336Y100875D01*
X89270Y100801D01*
X89201Y100729D01*
X89129Y100660D01*
X89055Y100594D01*
X88977Y100530D01*
X88898Y100470D01*
X88816Y100413D01*
X88732Y100359D01*
X88646Y100309D01*
X88558Y100262D01*
X88468Y100218D01*
X88377Y100178D01*
X88284Y100142D01*
X88190Y100109D01*
X88094Y100080D01*
X87998Y100055D01*
X87901Y100034D01*
X87802Y100016D01*
X87704Y100003D01*
X87604Y99993D01*
X87505Y99987D01*
X87405Y99985D01*
X86135Y99985D01*
X95925Y99985D02*
X95925Y111415D01*
X99100Y111415D01*
X99211Y111413D01*
X99321Y111407D01*
X99432Y111398D01*
X99542Y111384D01*
X99651Y111367D01*
X99760Y111346D01*
X99868Y111321D01*
X99975Y111292D01*
X100081Y111260D01*
X100186Y111224D01*
X100289Y111184D01*
X100391Y111141D01*
X100492Y111094D01*
X100591Y111043D01*
X100688Y110990D01*
X100782Y110933D01*
X100875Y110872D01*
X100966Y110809D01*
X101055Y110742D01*
X101141Y110672D01*
X101224Y110599D01*
X101306Y110524D01*
X101384Y110446D01*
X101459Y110364D01*
X101532Y110281D01*
X101602Y110195D01*
X101669Y110106D01*
X101732Y110015D01*
X101793Y109922D01*
X101850Y109827D01*
X101903Y109731D01*
X101954Y109632D01*
X102001Y109531D01*
X102044Y109429D01*
X102084Y109326D01*
X102120Y109221D01*
X102152Y109115D01*
X102181Y109008D01*
X102206Y108900D01*
X102227Y108791D01*
X102244Y108682D01*
X102258Y108572D01*
X102267Y108461D01*
X102273Y108351D01*
X102275Y108240D01*
X102273Y108129D01*
X102267Y108019D01*
X102258Y107908D01*
X102244Y107798D01*
X102227Y107689D01*
X102206Y107580D01*
X102181Y107472D01*
X102152Y107365D01*
X102120Y107259D01*
X102084Y107154D01*
X102044Y107051D01*
X102001Y106949D01*
X101954Y106848D01*
X101903Y106749D01*
X101850Y106652D01*
X101793Y106558D01*
X101732Y106465D01*
X101669Y106374D01*
X101602Y106285D01*
X101532Y106199D01*
X101459Y106116D01*
X101384Y106034D01*
X101306Y105956D01*
X101224Y105881D01*
X101141Y105808D01*
X101055Y105738D01*
X100966Y105671D01*
X100875Y105608D01*
X100782Y105547D01*
X100687Y105490D01*
X100591Y105437D01*
X100492Y105386D01*
X100391Y105339D01*
X100289Y105296D01*
X100186Y105256D01*
X100081Y105220D01*
X99975Y105188D01*
X99868Y105159D01*
X99760Y105134D01*
X99651Y105113D01*
X99542Y105096D01*
X99432Y105082D01*
X99321Y105073D01*
X99211Y105067D01*
X99100Y105065D01*
X95925Y105065D01*
X106784Y108875D02*
X109959Y111415D01*
X109959Y99985D01*
X106784Y99985D02*
X113134Y99985D01*
X165000Y495000D02*
X60000Y495000D01*
X165000Y495000D02*
X165000Y360000D01*
X60000Y360000D01*
X60000Y495000D01*
D12*
X107808Y395508D02*
X119492Y395508D01*
X107808Y395508D02*
X107808Y398754D01*
X107810Y398867D01*
X107816Y398980D01*
X107826Y399093D01*
X107840Y399206D01*
X107857Y399318D01*
X107879Y399429D01*
X107904Y399539D01*
X107934Y399649D01*
X107967Y399757D01*
X108004Y399864D01*
X108044Y399970D01*
X108089Y400074D01*
X108137Y400177D01*
X108188Y400278D01*
X108243Y400377D01*
X108301Y400474D01*
X108363Y400569D01*
X108428Y400662D01*
X108496Y400752D01*
X108567Y400840D01*
X108642Y400926D01*
X108719Y401009D01*
X108799Y401089D01*
X108882Y401166D01*
X108968Y401241D01*
X109056Y401312D01*
X109146Y401380D01*
X109239Y401445D01*
X109334Y401507D01*
X109431Y401565D01*
X109530Y401620D01*
X109631Y401671D01*
X109734Y401719D01*
X109838Y401764D01*
X109944Y401804D01*
X110051Y401841D01*
X110159Y401874D01*
X110269Y401904D01*
X110379Y401929D01*
X110490Y401951D01*
X110602Y401968D01*
X110715Y401982D01*
X110828Y401992D01*
X110941Y401998D01*
X111054Y402000D01*
X111054Y401999D02*
X116246Y401999D01*
X116246Y402000D02*
X116359Y401998D01*
X116472Y401992D01*
X116585Y401982D01*
X116698Y401968D01*
X116810Y401951D01*
X116921Y401929D01*
X117031Y401904D01*
X117141Y401874D01*
X117249Y401841D01*
X117356Y401804D01*
X117462Y401764D01*
X117566Y401719D01*
X117669Y401671D01*
X117770Y401620D01*
X117869Y401565D01*
X117966Y401507D01*
X118061Y401445D01*
X118154Y401380D01*
X118244Y401312D01*
X118332Y401241D01*
X118418Y401166D01*
X118501Y401089D01*
X118581Y401009D01*
X118658Y400926D01*
X118733Y400840D01*
X118804Y400752D01*
X118872Y400662D01*
X118937Y400569D01*
X118999Y400474D01*
X119057Y400377D01*
X119112Y400278D01*
X119163Y400177D01*
X119211Y400074D01*
X119256Y399970D01*
X119296Y399864D01*
X119333Y399757D01*
X119366Y399649D01*
X119396Y399539D01*
X119421Y399429D01*
X119443Y399318D01*
X119460Y399206D01*
X119474Y399093D01*
X119484Y398980D01*
X119490Y398867D01*
X119492Y398754D01*
X119492Y395508D01*
X119492Y407774D02*
X107808Y407774D01*
X107808Y411019D01*
X107810Y411132D01*
X107816Y411245D01*
X107826Y411358D01*
X107840Y411471D01*
X107857Y411583D01*
X107879Y411694D01*
X107904Y411804D01*
X107934Y411914D01*
X107967Y412022D01*
X108004Y412129D01*
X108044Y412235D01*
X108089Y412339D01*
X108137Y412442D01*
X108188Y412543D01*
X108243Y412642D01*
X108301Y412739D01*
X108363Y412834D01*
X108428Y412927D01*
X108496Y413017D01*
X108567Y413105D01*
X108642Y413191D01*
X108719Y413274D01*
X108799Y413354D01*
X108882Y413431D01*
X108968Y413506D01*
X109056Y413577D01*
X109146Y413645D01*
X109239Y413710D01*
X109334Y413772D01*
X109431Y413830D01*
X109530Y413885D01*
X109631Y413936D01*
X109734Y413984D01*
X109838Y414029D01*
X109944Y414069D01*
X110051Y414106D01*
X110159Y414139D01*
X110269Y414169D01*
X110379Y414194D01*
X110490Y414216D01*
X110602Y414233D01*
X110715Y414247D01*
X110828Y414257D01*
X110941Y414263D01*
X111054Y414265D01*
X111167Y414263D01*
X111280Y414257D01*
X111393Y414247D01*
X111506Y414233D01*
X111618Y414216D01*
X111729Y414194D01*
X111839Y414169D01*
X111949Y414139D01*
X112057Y414106D01*
X112164Y414069D01*
X112270Y414029D01*
X112374Y413984D01*
X112477Y413936D01*
X112578Y413885D01*
X112677Y413830D01*
X112774Y413772D01*
X112869Y413710D01*
X112962Y413645D01*
X113052Y413577D01*
X113140Y413506D01*
X113226Y413431D01*
X113309Y413354D01*
X113389Y413274D01*
X113466Y413191D01*
X113541Y413105D01*
X113612Y413017D01*
X113680Y412927D01*
X113745Y412834D01*
X113807Y412739D01*
X113865Y412642D01*
X113920Y412543D01*
X113971Y412442D01*
X114019Y412339D01*
X114064Y412235D01*
X114104Y412129D01*
X114141Y412022D01*
X114174Y411914D01*
X114204Y411804D01*
X114229Y411694D01*
X114251Y411583D01*
X114268Y411471D01*
X114282Y411358D01*
X114292Y411245D01*
X114298Y411132D01*
X114300Y411019D01*
X114299Y411019D02*
X114299Y407774D01*
X114299Y411668D02*
X119492Y414265D01*
X116246Y419129D02*
X116133Y419131D01*
X116020Y419137D01*
X115907Y419147D01*
X115794Y419161D01*
X115682Y419178D01*
X115571Y419200D01*
X115461Y419225D01*
X115351Y419255D01*
X115243Y419288D01*
X115136Y419325D01*
X115030Y419365D01*
X114926Y419410D01*
X114823Y419458D01*
X114722Y419509D01*
X114623Y419564D01*
X114526Y419622D01*
X114431Y419684D01*
X114338Y419749D01*
X114248Y419817D01*
X114160Y419888D01*
X114074Y419963D01*
X113991Y420040D01*
X113911Y420120D01*
X113834Y420203D01*
X113759Y420289D01*
X113688Y420377D01*
X113620Y420467D01*
X113555Y420560D01*
X113493Y420655D01*
X113435Y420752D01*
X113380Y420851D01*
X113329Y420952D01*
X113281Y421055D01*
X113236Y421159D01*
X113196Y421265D01*
X113159Y421372D01*
X113126Y421480D01*
X113096Y421590D01*
X113071Y421700D01*
X113049Y421811D01*
X113032Y421923D01*
X113018Y422036D01*
X113008Y422149D01*
X113002Y422262D01*
X113000Y422375D01*
X113002Y422488D01*
X113008Y422601D01*
X113018Y422714D01*
X113032Y422827D01*
X113049Y422939D01*
X113071Y423050D01*
X113096Y423160D01*
X113126Y423270D01*
X113159Y423378D01*
X113196Y423485D01*
X113236Y423591D01*
X113281Y423695D01*
X113329Y423798D01*
X113380Y423899D01*
X113435Y423998D01*
X113493Y424095D01*
X113555Y424190D01*
X113620Y424283D01*
X113688Y424373D01*
X113759Y424461D01*
X113834Y424547D01*
X113911Y424630D01*
X113991Y424710D01*
X114074Y424787D01*
X114160Y424862D01*
X114248Y424933D01*
X114338Y425001D01*
X114431Y425066D01*
X114526Y425128D01*
X114623Y425186D01*
X114722Y425241D01*
X114823Y425292D01*
X114926Y425340D01*
X115030Y425385D01*
X115136Y425425D01*
X115243Y425462D01*
X115351Y425495D01*
X115461Y425525D01*
X115571Y425550D01*
X115682Y425572D01*
X115794Y425589D01*
X115907Y425603D01*
X116020Y425613D01*
X116133Y425619D01*
X116246Y425621D01*
X116359Y425619D01*
X116472Y425613D01*
X116585Y425603D01*
X116698Y425589D01*
X116810Y425572D01*
X116921Y425550D01*
X117031Y425525D01*
X117141Y425495D01*
X117249Y425462D01*
X117356Y425425D01*
X117462Y425385D01*
X117566Y425340D01*
X117669Y425292D01*
X117770Y425241D01*
X117869Y425186D01*
X117966Y425128D01*
X118061Y425066D01*
X118154Y425001D01*
X118244Y424933D01*
X118332Y424862D01*
X118418Y424787D01*
X118501Y424710D01*
X118581Y424630D01*
X118658Y424547D01*
X118733Y424461D01*
X118804Y424373D01*
X118872Y424283D01*
X118937Y424190D01*
X118999Y424095D01*
X119057Y423998D01*
X119112Y423899D01*
X119163Y423798D01*
X119211Y423695D01*
X119256Y423591D01*
X119296Y423485D01*
X119333Y423378D01*
X119366Y423270D01*
X119396Y423160D01*
X119421Y423050D01*
X119443Y422939D01*
X119460Y422827D01*
X119474Y422714D01*
X119484Y422601D01*
X119490Y422488D01*
X119492Y422375D01*
X119490Y422262D01*
X119484Y422149D01*
X119474Y422036D01*
X119460Y421923D01*
X119443Y421811D01*
X119421Y421700D01*
X119396Y421590D01*
X119366Y421480D01*
X119333Y421372D01*
X119296Y421265D01*
X119256Y421159D01*
X119211Y421055D01*
X119163Y420952D01*
X119112Y420851D01*
X119057Y420752D01*
X118999Y420655D01*
X118937Y420560D01*
X118872Y420467D01*
X118804Y420377D01*
X118733Y420289D01*
X118658Y420203D01*
X118581Y420120D01*
X118501Y420040D01*
X118418Y419963D01*
X118332Y419888D01*
X118244Y419817D01*
X118154Y419749D01*
X118061Y419684D01*
X117966Y419622D01*
X117869Y419564D01*
X117770Y419509D01*
X117669Y419458D01*
X117566Y419410D01*
X117462Y419365D01*
X117356Y419325D01*
X117249Y419288D01*
X117141Y419255D01*
X117031Y419225D01*
X116921Y419200D01*
X116810Y419178D01*
X116698Y419161D01*
X116585Y419147D01*
X116472Y419137D01*
X116359Y419131D01*
X116246Y419129D01*
X110404Y419779D02*
X110303Y419781D01*
X110203Y419787D01*
X110103Y419797D01*
X110003Y419810D01*
X109904Y419828D01*
X109805Y419849D01*
X109708Y419874D01*
X109611Y419903D01*
X109516Y419936D01*
X109422Y419972D01*
X109330Y420012D01*
X109239Y420055D01*
X109150Y420102D01*
X109063Y420152D01*
X108977Y420206D01*
X108894Y420263D01*
X108814Y420323D01*
X108735Y420386D01*
X108659Y420453D01*
X108586Y420522D01*
X108516Y420594D01*
X108448Y420668D01*
X108383Y420745D01*
X108322Y420825D01*
X108263Y420907D01*
X108208Y420991D01*
X108156Y421077D01*
X108107Y421165D01*
X108062Y421255D01*
X108020Y421347D01*
X107982Y421440D01*
X107948Y421535D01*
X107917Y421630D01*
X107890Y421727D01*
X107867Y421825D01*
X107847Y421924D01*
X107832Y422024D01*
X107820Y422124D01*
X107812Y422224D01*
X107808Y422325D01*
X107808Y422425D01*
X107812Y422526D01*
X107820Y422626D01*
X107832Y422726D01*
X107847Y422826D01*
X107867Y422925D01*
X107890Y423023D01*
X107917Y423120D01*
X107948Y423215D01*
X107982Y423310D01*
X108020Y423403D01*
X108062Y423495D01*
X108107Y423585D01*
X108156Y423673D01*
X108208Y423759D01*
X108263Y423843D01*
X108322Y423925D01*
X108383Y424005D01*
X108448Y424082D01*
X108516Y424156D01*
X108586Y424228D01*
X108659Y424297D01*
X108735Y424364D01*
X108814Y424427D01*
X108894Y424487D01*
X108977Y424544D01*
X109063Y424598D01*
X109150Y424648D01*
X109239Y424695D01*
X109330Y424738D01*
X109422Y424778D01*
X109516Y424814D01*
X109611Y424847D01*
X109708Y424876D01*
X109805Y424901D01*
X109904Y424922D01*
X110003Y424940D01*
X110103Y424953D01*
X110203Y424963D01*
X110303Y424969D01*
X110404Y424971D01*
X110505Y424969D01*
X110605Y424963D01*
X110705Y424953D01*
X110805Y424940D01*
X110904Y424922D01*
X111003Y424901D01*
X111100Y424876D01*
X111197Y424847D01*
X111292Y424814D01*
X111386Y424778D01*
X111478Y424738D01*
X111569Y424695D01*
X111658Y424648D01*
X111745Y424598D01*
X111831Y424544D01*
X111914Y424487D01*
X111994Y424427D01*
X112073Y424364D01*
X112149Y424297D01*
X112222Y424228D01*
X112292Y424156D01*
X112360Y424082D01*
X112425Y424005D01*
X112486Y423925D01*
X112545Y423843D01*
X112600Y423759D01*
X112652Y423673D01*
X112701Y423585D01*
X112746Y423495D01*
X112788Y423403D01*
X112826Y423310D01*
X112860Y423215D01*
X112891Y423120D01*
X112918Y423023D01*
X112941Y422925D01*
X112961Y422826D01*
X112976Y422726D01*
X112988Y422626D01*
X112996Y422526D01*
X113000Y422425D01*
X113000Y422325D01*
X112996Y422224D01*
X112988Y422124D01*
X112976Y422024D01*
X112961Y421924D01*
X112941Y421825D01*
X112918Y421727D01*
X112891Y421630D01*
X112860Y421535D01*
X112826Y421440D01*
X112788Y421347D01*
X112746Y421255D01*
X112701Y421165D01*
X112652Y421077D01*
X112600Y420991D01*
X112545Y420907D01*
X112486Y420825D01*
X112425Y420745D01*
X112360Y420668D01*
X112292Y420594D01*
X112222Y420522D01*
X112149Y420453D01*
X112073Y420386D01*
X111994Y420323D01*
X111914Y420263D01*
X111831Y420206D01*
X111745Y420152D01*
X111658Y420102D01*
X111569Y420055D01*
X111478Y420012D01*
X111386Y419972D01*
X111292Y419936D01*
X111197Y419903D01*
X111100Y419874D01*
X111003Y419849D01*
X110904Y419828D01*
X110805Y419810D01*
X110705Y419797D01*
X110605Y419787D01*
X110505Y419781D01*
X110404Y419779D01*
X116246Y430559D02*
X116133Y430561D01*
X116020Y430567D01*
X115907Y430577D01*
X115794Y430591D01*
X115682Y430608D01*
X115571Y430630D01*
X115461Y430655D01*
X115351Y430685D01*
X115243Y430718D01*
X115136Y430755D01*
X115030Y430795D01*
X114926Y430840D01*
X114823Y430888D01*
X114722Y430939D01*
X114623Y430994D01*
X114526Y431052D01*
X114431Y431114D01*
X114338Y431179D01*
X114248Y431247D01*
X114160Y431318D01*
X114074Y431393D01*
X113991Y431470D01*
X113911Y431550D01*
X113834Y431633D01*
X113759Y431719D01*
X113688Y431807D01*
X113620Y431897D01*
X113555Y431990D01*
X113493Y432085D01*
X113435Y432182D01*
X113380Y432281D01*
X113329Y432382D01*
X113281Y432485D01*
X113236Y432589D01*
X113196Y432695D01*
X113159Y432802D01*
X113126Y432910D01*
X113096Y433020D01*
X113071Y433130D01*
X113049Y433241D01*
X113032Y433353D01*
X113018Y433466D01*
X113008Y433579D01*
X113002Y433692D01*
X113000Y433805D01*
X113002Y433918D01*
X113008Y434031D01*
X113018Y434144D01*
X113032Y434257D01*
X113049Y434369D01*
X113071Y434480D01*
X113096Y434590D01*
X113126Y434700D01*
X113159Y434808D01*
X113196Y434915D01*
X113236Y435021D01*
X113281Y435125D01*
X113329Y435228D01*
X113380Y435329D01*
X113435Y435428D01*
X113493Y435525D01*
X113555Y435620D01*
X113620Y435713D01*
X113688Y435803D01*
X113759Y435891D01*
X113834Y435977D01*
X113911Y436060D01*
X113991Y436140D01*
X114074Y436217D01*
X114160Y436292D01*
X114248Y436363D01*
X114338Y436431D01*
X114431Y436496D01*
X114526Y436558D01*
X114623Y436616D01*
X114722Y436671D01*
X114823Y436722D01*
X114926Y436770D01*
X115030Y436815D01*
X115136Y436855D01*
X115243Y436892D01*
X115351Y436925D01*
X115461Y436955D01*
X115571Y436980D01*
X115682Y437002D01*
X115794Y437019D01*
X115907Y437033D01*
X116020Y437043D01*
X116133Y437049D01*
X116246Y437051D01*
X116359Y437049D01*
X116472Y437043D01*
X116585Y437033D01*
X116698Y437019D01*
X116810Y437002D01*
X116921Y436980D01*
X117031Y436955D01*
X117141Y436925D01*
X117249Y436892D01*
X117356Y436855D01*
X117462Y436815D01*
X117566Y436770D01*
X117669Y436722D01*
X117770Y436671D01*
X117869Y436616D01*
X117966Y436558D01*
X118061Y436496D01*
X118154Y436431D01*
X118244Y436363D01*
X118332Y436292D01*
X118418Y436217D01*
X118501Y436140D01*
X118581Y436060D01*
X118658Y435977D01*
X118733Y435891D01*
X118804Y435803D01*
X118872Y435713D01*
X118937Y435620D01*
X118999Y435525D01*
X119057Y435428D01*
X119112Y435329D01*
X119163Y435228D01*
X119211Y435125D01*
X119256Y435021D01*
X119296Y434915D01*
X119333Y434808D01*
X119366Y434700D01*
X119396Y434590D01*
X119421Y434480D01*
X119443Y434369D01*
X119460Y434257D01*
X119474Y434144D01*
X119484Y434031D01*
X119490Y433918D01*
X119492Y433805D01*
X119490Y433692D01*
X119484Y433579D01*
X119474Y433466D01*
X119460Y433353D01*
X119443Y433241D01*
X119421Y433130D01*
X119396Y433020D01*
X119366Y432910D01*
X119333Y432802D01*
X119296Y432695D01*
X119256Y432589D01*
X119211Y432485D01*
X119163Y432382D01*
X119112Y432281D01*
X119057Y432182D01*
X118999Y432085D01*
X118937Y431990D01*
X118872Y431897D01*
X118804Y431807D01*
X118733Y431719D01*
X118658Y431633D01*
X118581Y431550D01*
X118501Y431470D01*
X118418Y431393D01*
X118332Y431318D01*
X118244Y431247D01*
X118154Y431179D01*
X118061Y431114D01*
X117966Y431052D01*
X117869Y430994D01*
X117770Y430939D01*
X117669Y430888D01*
X117566Y430840D01*
X117462Y430795D01*
X117356Y430755D01*
X117249Y430718D01*
X117141Y430685D01*
X117031Y430655D01*
X116921Y430630D01*
X116810Y430608D01*
X116698Y430591D01*
X116585Y430577D01*
X116472Y430567D01*
X116359Y430561D01*
X116246Y430559D01*
X110404Y431209D02*
X110303Y431211D01*
X110203Y431217D01*
X110103Y431227D01*
X110003Y431240D01*
X109904Y431258D01*
X109805Y431279D01*
X109708Y431304D01*
X109611Y431333D01*
X109516Y431366D01*
X109422Y431402D01*
X109330Y431442D01*
X109239Y431485D01*
X109150Y431532D01*
X109063Y431582D01*
X108977Y431636D01*
X108894Y431693D01*
X108814Y431753D01*
X108735Y431816D01*
X108659Y431883D01*
X108586Y431952D01*
X108516Y432024D01*
X108448Y432098D01*
X108383Y432175D01*
X108322Y432255D01*
X108263Y432337D01*
X108208Y432421D01*
X108156Y432507D01*
X108107Y432595D01*
X108062Y432685D01*
X108020Y432777D01*
X107982Y432870D01*
X107948Y432965D01*
X107917Y433060D01*
X107890Y433157D01*
X107867Y433255D01*
X107847Y433354D01*
X107832Y433454D01*
X107820Y433554D01*
X107812Y433654D01*
X107808Y433755D01*
X107808Y433855D01*
X107812Y433956D01*
X107820Y434056D01*
X107832Y434156D01*
X107847Y434256D01*
X107867Y434355D01*
X107890Y434453D01*
X107917Y434550D01*
X107948Y434645D01*
X107982Y434740D01*
X108020Y434833D01*
X108062Y434925D01*
X108107Y435015D01*
X108156Y435103D01*
X108208Y435189D01*
X108263Y435273D01*
X108322Y435355D01*
X108383Y435435D01*
X108448Y435512D01*
X108516Y435586D01*
X108586Y435658D01*
X108659Y435727D01*
X108735Y435794D01*
X108814Y435857D01*
X108894Y435917D01*
X108977Y435974D01*
X109063Y436028D01*
X109150Y436078D01*
X109239Y436125D01*
X109330Y436168D01*
X109422Y436208D01*
X109516Y436244D01*
X109611Y436277D01*
X109708Y436306D01*
X109805Y436331D01*
X109904Y436352D01*
X110003Y436370D01*
X110103Y436383D01*
X110203Y436393D01*
X110303Y436399D01*
X110404Y436401D01*
X110505Y436399D01*
X110605Y436393D01*
X110705Y436383D01*
X110805Y436370D01*
X110904Y436352D01*
X111003Y436331D01*
X111100Y436306D01*
X111197Y436277D01*
X111292Y436244D01*
X111386Y436208D01*
X111478Y436168D01*
X111569Y436125D01*
X111658Y436078D01*
X111745Y436028D01*
X111831Y435974D01*
X111914Y435917D01*
X111994Y435857D01*
X112073Y435794D01*
X112149Y435727D01*
X112222Y435658D01*
X112292Y435586D01*
X112360Y435512D01*
X112425Y435435D01*
X112486Y435355D01*
X112545Y435273D01*
X112600Y435189D01*
X112652Y435103D01*
X112701Y435015D01*
X112746Y434925D01*
X112788Y434833D01*
X112826Y434740D01*
X112860Y434645D01*
X112891Y434550D01*
X112918Y434453D01*
X112941Y434355D01*
X112961Y434256D01*
X112976Y434156D01*
X112988Y434056D01*
X112996Y433956D01*
X113000Y433855D01*
X113000Y433755D01*
X112996Y433654D01*
X112988Y433554D01*
X112976Y433454D01*
X112961Y433354D01*
X112941Y433255D01*
X112918Y433157D01*
X112891Y433060D01*
X112860Y432965D01*
X112826Y432870D01*
X112788Y432777D01*
X112746Y432685D01*
X112701Y432595D01*
X112652Y432507D01*
X112600Y432421D01*
X112545Y432337D01*
X112486Y432255D01*
X112425Y432175D01*
X112360Y432098D01*
X112292Y432024D01*
X112222Y431952D01*
X112149Y431883D01*
X112073Y431816D01*
X111994Y431753D01*
X111914Y431693D01*
X111831Y431636D01*
X111745Y431582D01*
X111658Y431532D01*
X111569Y431485D01*
X111478Y431442D01*
X111386Y431402D01*
X111292Y431366D01*
X111197Y431333D01*
X111100Y431304D01*
X111003Y431279D01*
X110904Y431258D01*
X110805Y431240D01*
X110705Y431227D01*
X110605Y431217D01*
X110505Y431211D01*
X110404Y431209D01*
X119492Y441990D02*
X119492Y445235D01*
X119490Y445348D01*
X119484Y445461D01*
X119474Y445574D01*
X119460Y445687D01*
X119443Y445799D01*
X119421Y445910D01*
X119396Y446020D01*
X119366Y446130D01*
X119333Y446238D01*
X119296Y446345D01*
X119256Y446451D01*
X119211Y446555D01*
X119163Y446658D01*
X119112Y446759D01*
X119057Y446858D01*
X118999Y446955D01*
X118937Y447050D01*
X118872Y447143D01*
X118804Y447233D01*
X118733Y447321D01*
X118658Y447407D01*
X118581Y447490D01*
X118501Y447570D01*
X118418Y447647D01*
X118332Y447722D01*
X118244Y447793D01*
X118154Y447861D01*
X118061Y447926D01*
X117966Y447988D01*
X117869Y448046D01*
X117770Y448101D01*
X117669Y448152D01*
X117566Y448200D01*
X117462Y448245D01*
X117356Y448285D01*
X117249Y448322D01*
X117141Y448355D01*
X117031Y448385D01*
X116921Y448410D01*
X116810Y448432D01*
X116698Y448449D01*
X116585Y448463D01*
X116472Y448473D01*
X116359Y448479D01*
X116246Y448481D01*
X116133Y448479D01*
X116020Y448473D01*
X115907Y448463D01*
X115794Y448449D01*
X115682Y448432D01*
X115571Y448410D01*
X115461Y448385D01*
X115351Y448355D01*
X115243Y448322D01*
X115136Y448285D01*
X115030Y448245D01*
X114926Y448200D01*
X114823Y448152D01*
X114722Y448101D01*
X114623Y448046D01*
X114526Y447988D01*
X114431Y447926D01*
X114338Y447861D01*
X114248Y447793D01*
X114160Y447722D01*
X114074Y447647D01*
X113991Y447570D01*
X113911Y447490D01*
X113834Y447407D01*
X113759Y447321D01*
X113688Y447233D01*
X113620Y447143D01*
X113555Y447050D01*
X113493Y446955D01*
X113435Y446858D01*
X113380Y446759D01*
X113329Y446658D01*
X113281Y446555D01*
X113236Y446451D01*
X113196Y446345D01*
X113159Y446238D01*
X113126Y446130D01*
X113096Y446020D01*
X113071Y445910D01*
X113049Y445799D01*
X113032Y445687D01*
X113018Y445574D01*
X113008Y445461D01*
X113002Y445348D01*
X113000Y445235D01*
X107808Y445885D02*
X107808Y441990D01*
X107808Y445885D02*
X107810Y445986D01*
X107816Y446086D01*
X107826Y446186D01*
X107839Y446286D01*
X107857Y446385D01*
X107878Y446484D01*
X107903Y446581D01*
X107932Y446678D01*
X107965Y446773D01*
X108001Y446867D01*
X108041Y446959D01*
X108084Y447050D01*
X108131Y447139D01*
X108181Y447226D01*
X108235Y447312D01*
X108292Y447395D01*
X108352Y447475D01*
X108415Y447554D01*
X108482Y447630D01*
X108551Y447703D01*
X108623Y447773D01*
X108697Y447841D01*
X108774Y447906D01*
X108854Y447967D01*
X108936Y448026D01*
X109020Y448081D01*
X109106Y448133D01*
X109194Y448182D01*
X109284Y448227D01*
X109376Y448269D01*
X109469Y448307D01*
X109564Y448341D01*
X109659Y448372D01*
X109756Y448399D01*
X109854Y448422D01*
X109953Y448442D01*
X110053Y448457D01*
X110153Y448469D01*
X110253Y448477D01*
X110354Y448481D01*
X110454Y448481D01*
X110555Y448477D01*
X110655Y448469D01*
X110755Y448457D01*
X110855Y448442D01*
X110954Y448422D01*
X111052Y448399D01*
X111149Y448372D01*
X111244Y448341D01*
X111339Y448307D01*
X111432Y448269D01*
X111524Y448227D01*
X111614Y448182D01*
X111702Y448133D01*
X111788Y448081D01*
X111872Y448026D01*
X111954Y447967D01*
X112034Y447906D01*
X112111Y447841D01*
X112185Y447773D01*
X112257Y447703D01*
X112326Y447630D01*
X112393Y447554D01*
X112456Y447475D01*
X112516Y447395D01*
X112573Y447312D01*
X112627Y447226D01*
X112677Y447139D01*
X112724Y447050D01*
X112767Y446959D01*
X112807Y446867D01*
X112843Y446773D01*
X112876Y446678D01*
X112905Y446581D01*
X112930Y446484D01*
X112951Y446385D01*
X112969Y446286D01*
X112982Y446186D01*
X112992Y446086D01*
X112998Y445986D01*
X113000Y445885D01*
X113001Y445885D02*
X113001Y443288D01*
X116246Y453419D02*
X116133Y453421D01*
X116020Y453427D01*
X115907Y453437D01*
X115794Y453451D01*
X115682Y453468D01*
X115571Y453490D01*
X115461Y453515D01*
X115351Y453545D01*
X115243Y453578D01*
X115136Y453615D01*
X115030Y453655D01*
X114926Y453700D01*
X114823Y453748D01*
X114722Y453799D01*
X114623Y453854D01*
X114526Y453912D01*
X114431Y453974D01*
X114338Y454039D01*
X114248Y454107D01*
X114160Y454178D01*
X114074Y454253D01*
X113991Y454330D01*
X113911Y454410D01*
X113834Y454493D01*
X113759Y454579D01*
X113688Y454667D01*
X113620Y454757D01*
X113555Y454850D01*
X113493Y454945D01*
X113435Y455042D01*
X113380Y455141D01*
X113329Y455242D01*
X113281Y455345D01*
X113236Y455449D01*
X113196Y455555D01*
X113159Y455662D01*
X113126Y455770D01*
X113096Y455880D01*
X113071Y455990D01*
X113049Y456101D01*
X113032Y456213D01*
X113018Y456326D01*
X113008Y456439D01*
X113002Y456552D01*
X113000Y456665D01*
X113002Y456778D01*
X113008Y456891D01*
X113018Y457004D01*
X113032Y457117D01*
X113049Y457229D01*
X113071Y457340D01*
X113096Y457450D01*
X113126Y457560D01*
X113159Y457668D01*
X113196Y457775D01*
X113236Y457881D01*
X113281Y457985D01*
X113329Y458088D01*
X113380Y458189D01*
X113435Y458288D01*
X113493Y458385D01*
X113555Y458480D01*
X113620Y458573D01*
X113688Y458663D01*
X113759Y458751D01*
X113834Y458837D01*
X113911Y458920D01*
X113991Y459000D01*
X114074Y459077D01*
X114160Y459152D01*
X114248Y459223D01*
X114338Y459291D01*
X114431Y459356D01*
X114526Y459418D01*
X114623Y459476D01*
X114722Y459531D01*
X114823Y459582D01*
X114926Y459630D01*
X115030Y459675D01*
X115136Y459715D01*
X115243Y459752D01*
X115351Y459785D01*
X115461Y459815D01*
X115571Y459840D01*
X115682Y459862D01*
X115794Y459879D01*
X115907Y459893D01*
X116020Y459903D01*
X116133Y459909D01*
X116246Y459911D01*
X116359Y459909D01*
X116472Y459903D01*
X116585Y459893D01*
X116698Y459879D01*
X116810Y459862D01*
X116921Y459840D01*
X117031Y459815D01*
X117141Y459785D01*
X117249Y459752D01*
X117356Y459715D01*
X117462Y459675D01*
X117566Y459630D01*
X117669Y459582D01*
X117770Y459531D01*
X117869Y459476D01*
X117966Y459418D01*
X118061Y459356D01*
X118154Y459291D01*
X118244Y459223D01*
X118332Y459152D01*
X118418Y459077D01*
X118501Y459000D01*
X118581Y458920D01*
X118658Y458837D01*
X118733Y458751D01*
X118804Y458663D01*
X118872Y458573D01*
X118937Y458480D01*
X118999Y458385D01*
X119057Y458288D01*
X119112Y458189D01*
X119163Y458088D01*
X119211Y457985D01*
X119256Y457881D01*
X119296Y457775D01*
X119333Y457668D01*
X119366Y457560D01*
X119396Y457450D01*
X119421Y457340D01*
X119443Y457229D01*
X119460Y457117D01*
X119474Y457004D01*
X119484Y456891D01*
X119490Y456778D01*
X119492Y456665D01*
X119490Y456552D01*
X119484Y456439D01*
X119474Y456326D01*
X119460Y456213D01*
X119443Y456101D01*
X119421Y455990D01*
X119396Y455880D01*
X119366Y455770D01*
X119333Y455662D01*
X119296Y455555D01*
X119256Y455449D01*
X119211Y455345D01*
X119163Y455242D01*
X119112Y455141D01*
X119057Y455042D01*
X118999Y454945D01*
X118937Y454850D01*
X118872Y454757D01*
X118804Y454667D01*
X118733Y454579D01*
X118658Y454493D01*
X118581Y454410D01*
X118501Y454330D01*
X118418Y454253D01*
X118332Y454178D01*
X118244Y454107D01*
X118154Y454039D01*
X118061Y453974D01*
X117966Y453912D01*
X117869Y453854D01*
X117770Y453799D01*
X117669Y453748D01*
X117566Y453700D01*
X117462Y453655D01*
X117356Y453615D01*
X117249Y453578D01*
X117141Y453545D01*
X117031Y453515D01*
X116921Y453490D01*
X116810Y453468D01*
X116698Y453451D01*
X116585Y453437D01*
X116472Y453427D01*
X116359Y453421D01*
X116246Y453419D01*
X110404Y454069D02*
X110303Y454071D01*
X110203Y454077D01*
X110103Y454087D01*
X110003Y454100D01*
X109904Y454118D01*
X109805Y454139D01*
X109708Y454164D01*
X109611Y454193D01*
X109516Y454226D01*
X109422Y454262D01*
X109330Y454302D01*
X109239Y454345D01*
X109150Y454392D01*
X109063Y454442D01*
X108977Y454496D01*
X108894Y454553D01*
X108814Y454613D01*
X108735Y454676D01*
X108659Y454743D01*
X108586Y454812D01*
X108516Y454884D01*
X108448Y454958D01*
X108383Y455035D01*
X108322Y455115D01*
X108263Y455197D01*
X108208Y455281D01*
X108156Y455367D01*
X108107Y455455D01*
X108062Y455545D01*
X108020Y455637D01*
X107982Y455730D01*
X107948Y455825D01*
X107917Y455920D01*
X107890Y456017D01*
X107867Y456115D01*
X107847Y456214D01*
X107832Y456314D01*
X107820Y456414D01*
X107812Y456514D01*
X107808Y456615D01*
X107808Y456715D01*
X107812Y456816D01*
X107820Y456916D01*
X107832Y457016D01*
X107847Y457116D01*
X107867Y457215D01*
X107890Y457313D01*
X107917Y457410D01*
X107948Y457505D01*
X107982Y457600D01*
X108020Y457693D01*
X108062Y457785D01*
X108107Y457875D01*
X108156Y457963D01*
X108208Y458049D01*
X108263Y458133D01*
X108322Y458215D01*
X108383Y458295D01*
X108448Y458372D01*
X108516Y458446D01*
X108586Y458518D01*
X108659Y458587D01*
X108735Y458654D01*
X108814Y458717D01*
X108894Y458777D01*
X108977Y458834D01*
X109063Y458888D01*
X109150Y458938D01*
X109239Y458985D01*
X109330Y459028D01*
X109422Y459068D01*
X109516Y459104D01*
X109611Y459137D01*
X109708Y459166D01*
X109805Y459191D01*
X109904Y459212D01*
X110003Y459230D01*
X110103Y459243D01*
X110203Y459253D01*
X110303Y459259D01*
X110404Y459261D01*
X110505Y459259D01*
X110605Y459253D01*
X110705Y459243D01*
X110805Y459230D01*
X110904Y459212D01*
X111003Y459191D01*
X111100Y459166D01*
X111197Y459137D01*
X111292Y459104D01*
X111386Y459068D01*
X111478Y459028D01*
X111569Y458985D01*
X111658Y458938D01*
X111745Y458888D01*
X111831Y458834D01*
X111914Y458777D01*
X111994Y458717D01*
X112073Y458654D01*
X112149Y458587D01*
X112222Y458518D01*
X112292Y458446D01*
X112360Y458372D01*
X112425Y458295D01*
X112486Y458215D01*
X112545Y458133D01*
X112600Y458049D01*
X112652Y457963D01*
X112701Y457875D01*
X112746Y457785D01*
X112788Y457693D01*
X112826Y457600D01*
X112860Y457505D01*
X112891Y457410D01*
X112918Y457313D01*
X112941Y457215D01*
X112961Y457116D01*
X112976Y457016D01*
X112988Y456916D01*
X112996Y456816D01*
X113000Y456715D01*
X113000Y456615D01*
X112996Y456514D01*
X112988Y456414D01*
X112976Y456314D01*
X112961Y456214D01*
X112941Y456115D01*
X112918Y456017D01*
X112891Y455920D01*
X112860Y455825D01*
X112826Y455730D01*
X112788Y455637D01*
X112746Y455545D01*
X112701Y455455D01*
X112652Y455367D01*
X112600Y455281D01*
X112545Y455197D01*
X112486Y455115D01*
X112425Y455035D01*
X112360Y454958D01*
X112292Y454884D01*
X112222Y454812D01*
X112149Y454743D01*
X112073Y454676D01*
X111994Y454613D01*
X111914Y454553D01*
X111831Y454496D01*
X111745Y454442D01*
X111658Y454392D01*
X111569Y454345D01*
X111478Y454302D01*
X111386Y454262D01*
X111292Y454226D01*
X111197Y454193D01*
X111100Y454164D01*
X111003Y454139D01*
X110904Y454118D01*
X110805Y454100D01*
X110705Y454087D01*
X110605Y454077D01*
X110505Y454071D01*
X110404Y454069D01*
D11*
X200000Y495000D02*
X305000Y495000D01*
X305000Y360000D01*
X200000Y360000D01*
X200000Y495000D01*
D12*
X247808Y395508D02*
X259492Y395508D01*
X247808Y395508D02*
X247808Y398754D01*
X247810Y398867D01*
X247816Y398980D01*
X247826Y399093D01*
X247840Y399206D01*
X247857Y399318D01*
X247879Y399429D01*
X247904Y399539D01*
X247934Y399649D01*
X247967Y399757D01*
X248004Y399864D01*
X248044Y399970D01*
X248089Y400074D01*
X248137Y400177D01*
X248188Y400278D01*
X248243Y400377D01*
X248301Y400474D01*
X248363Y400569D01*
X248428Y400662D01*
X248496Y400752D01*
X248567Y400840D01*
X248642Y400926D01*
X248719Y401009D01*
X248799Y401089D01*
X248882Y401166D01*
X248968Y401241D01*
X249056Y401312D01*
X249146Y401380D01*
X249239Y401445D01*
X249334Y401507D01*
X249431Y401565D01*
X249530Y401620D01*
X249631Y401671D01*
X249734Y401719D01*
X249838Y401764D01*
X249944Y401804D01*
X250051Y401841D01*
X250159Y401874D01*
X250269Y401904D01*
X250379Y401929D01*
X250490Y401951D01*
X250602Y401968D01*
X250715Y401982D01*
X250828Y401992D01*
X250941Y401998D01*
X251054Y402000D01*
X251054Y401999D02*
X256246Y401999D01*
X256246Y402000D02*
X256359Y401998D01*
X256472Y401992D01*
X256585Y401982D01*
X256698Y401968D01*
X256810Y401951D01*
X256921Y401929D01*
X257031Y401904D01*
X257141Y401874D01*
X257249Y401841D01*
X257356Y401804D01*
X257462Y401764D01*
X257566Y401719D01*
X257669Y401671D01*
X257770Y401620D01*
X257869Y401565D01*
X257966Y401507D01*
X258061Y401445D01*
X258154Y401380D01*
X258244Y401312D01*
X258332Y401241D01*
X258418Y401166D01*
X258501Y401089D01*
X258581Y401009D01*
X258658Y400926D01*
X258733Y400840D01*
X258804Y400752D01*
X258872Y400662D01*
X258937Y400569D01*
X258999Y400474D01*
X259057Y400377D01*
X259112Y400278D01*
X259163Y400177D01*
X259211Y400074D01*
X259256Y399970D01*
X259296Y399864D01*
X259333Y399757D01*
X259366Y399649D01*
X259396Y399539D01*
X259421Y399429D01*
X259443Y399318D01*
X259460Y399206D01*
X259474Y399093D01*
X259484Y398980D01*
X259490Y398867D01*
X259492Y398754D01*
X259492Y395508D01*
X259492Y407774D02*
X247808Y407774D01*
X247808Y411019D01*
X247810Y411132D01*
X247816Y411245D01*
X247826Y411358D01*
X247840Y411471D01*
X247857Y411583D01*
X247879Y411694D01*
X247904Y411804D01*
X247934Y411914D01*
X247967Y412022D01*
X248004Y412129D01*
X248044Y412235D01*
X248089Y412339D01*
X248137Y412442D01*
X248188Y412543D01*
X248243Y412642D01*
X248301Y412739D01*
X248363Y412834D01*
X248428Y412927D01*
X248496Y413017D01*
X248567Y413105D01*
X248642Y413191D01*
X248719Y413274D01*
X248799Y413354D01*
X248882Y413431D01*
X248968Y413506D01*
X249056Y413577D01*
X249146Y413645D01*
X249239Y413710D01*
X249334Y413772D01*
X249431Y413830D01*
X249530Y413885D01*
X249631Y413936D01*
X249734Y413984D01*
X249838Y414029D01*
X249944Y414069D01*
X250051Y414106D01*
X250159Y414139D01*
X250269Y414169D01*
X250379Y414194D01*
X250490Y414216D01*
X250602Y414233D01*
X250715Y414247D01*
X250828Y414257D01*
X250941Y414263D01*
X251054Y414265D01*
X251167Y414263D01*
X251280Y414257D01*
X251393Y414247D01*
X251506Y414233D01*
X251618Y414216D01*
X251729Y414194D01*
X251839Y414169D01*
X251949Y414139D01*
X252057Y414106D01*
X252164Y414069D01*
X252270Y414029D01*
X252374Y413984D01*
X252477Y413936D01*
X252578Y413885D01*
X252677Y413830D01*
X252774Y413772D01*
X252869Y413710D01*
X252962Y413645D01*
X253052Y413577D01*
X253140Y413506D01*
X253226Y413431D01*
X253309Y413354D01*
X253389Y413274D01*
X253466Y413191D01*
X253541Y413105D01*
X253612Y413017D01*
X253680Y412927D01*
X253745Y412834D01*
X253807Y412739D01*
X253865Y412642D01*
X253920Y412543D01*
X253971Y412442D01*
X254019Y412339D01*
X254064Y412235D01*
X254104Y412129D01*
X254141Y412022D01*
X254174Y411914D01*
X254204Y411804D01*
X254229Y411694D01*
X254251Y411583D01*
X254268Y411471D01*
X254282Y411358D01*
X254292Y411245D01*
X254298Y411132D01*
X254300Y411019D01*
X254299Y411019D02*
X254299Y407774D01*
X254299Y411668D02*
X259492Y414265D01*
X256246Y419129D02*
X256133Y419131D01*
X256020Y419137D01*
X255907Y419147D01*
X255794Y419161D01*
X255682Y419178D01*
X255571Y419200D01*
X255461Y419225D01*
X255351Y419255D01*
X255243Y419288D01*
X255136Y419325D01*
X255030Y419365D01*
X254926Y419410D01*
X254823Y419458D01*
X254722Y419509D01*
X254623Y419564D01*
X254526Y419622D01*
X254431Y419684D01*
X254338Y419749D01*
X254248Y419817D01*
X254160Y419888D01*
X254074Y419963D01*
X253991Y420040D01*
X253911Y420120D01*
X253834Y420203D01*
X253759Y420289D01*
X253688Y420377D01*
X253620Y420467D01*
X253555Y420560D01*
X253493Y420655D01*
X253435Y420752D01*
X253380Y420851D01*
X253329Y420952D01*
X253281Y421055D01*
X253236Y421159D01*
X253196Y421265D01*
X253159Y421372D01*
X253126Y421480D01*
X253096Y421590D01*
X253071Y421700D01*
X253049Y421811D01*
X253032Y421923D01*
X253018Y422036D01*
X253008Y422149D01*
X253002Y422262D01*
X253000Y422375D01*
X253002Y422488D01*
X253008Y422601D01*
X253018Y422714D01*
X253032Y422827D01*
X253049Y422939D01*
X253071Y423050D01*
X253096Y423160D01*
X253126Y423270D01*
X253159Y423378D01*
X253196Y423485D01*
X253236Y423591D01*
X253281Y423695D01*
X253329Y423798D01*
X253380Y423899D01*
X253435Y423998D01*
X253493Y424095D01*
X253555Y424190D01*
X253620Y424283D01*
X253688Y424373D01*
X253759Y424461D01*
X253834Y424547D01*
X253911Y424630D01*
X253991Y424710D01*
X254074Y424787D01*
X254160Y424862D01*
X254248Y424933D01*
X254338Y425001D01*
X254431Y425066D01*
X254526Y425128D01*
X254623Y425186D01*
X254722Y425241D01*
X254823Y425292D01*
X254926Y425340D01*
X255030Y425385D01*
X255136Y425425D01*
X255243Y425462D01*
X255351Y425495D01*
X255461Y425525D01*
X255571Y425550D01*
X255682Y425572D01*
X255794Y425589D01*
X255907Y425603D01*
X256020Y425613D01*
X256133Y425619D01*
X256246Y425621D01*
X256359Y425619D01*
X256472Y425613D01*
X256585Y425603D01*
X256698Y425589D01*
X256810Y425572D01*
X256921Y425550D01*
X257031Y425525D01*
X257141Y425495D01*
X257249Y425462D01*
X257356Y425425D01*
X257462Y425385D01*
X257566Y425340D01*
X257669Y425292D01*
X257770Y425241D01*
X257869Y425186D01*
X257966Y425128D01*
X258061Y425066D01*
X258154Y425001D01*
X258244Y424933D01*
X258332Y424862D01*
X258418Y424787D01*
X258501Y424710D01*
X258581Y424630D01*
X258658Y424547D01*
X258733Y424461D01*
X258804Y424373D01*
X258872Y424283D01*
X258937Y424190D01*
X258999Y424095D01*
X259057Y423998D01*
X259112Y423899D01*
X259163Y423798D01*
X259211Y423695D01*
X259256Y423591D01*
X259296Y423485D01*
X259333Y423378D01*
X259366Y423270D01*
X259396Y423160D01*
X259421Y423050D01*
X259443Y422939D01*
X259460Y422827D01*
X259474Y422714D01*
X259484Y422601D01*
X259490Y422488D01*
X259492Y422375D01*
X259490Y422262D01*
X259484Y422149D01*
X259474Y422036D01*
X259460Y421923D01*
X259443Y421811D01*
X259421Y421700D01*
X259396Y421590D01*
X259366Y421480D01*
X259333Y421372D01*
X259296Y421265D01*
X259256Y421159D01*
X259211Y421055D01*
X259163Y420952D01*
X259112Y420851D01*
X259057Y420752D01*
X258999Y420655D01*
X258937Y420560D01*
X258872Y420467D01*
X258804Y420377D01*
X258733Y420289D01*
X258658Y420203D01*
X258581Y420120D01*
X258501Y420040D01*
X258418Y419963D01*
X258332Y419888D01*
X258244Y419817D01*
X258154Y419749D01*
X258061Y419684D01*
X257966Y419622D01*
X257869Y419564D01*
X257770Y419509D01*
X257669Y419458D01*
X257566Y419410D01*
X257462Y419365D01*
X257356Y419325D01*
X257249Y419288D01*
X257141Y419255D01*
X257031Y419225D01*
X256921Y419200D01*
X256810Y419178D01*
X256698Y419161D01*
X256585Y419147D01*
X256472Y419137D01*
X256359Y419131D01*
X256246Y419129D01*
X250404Y419779D02*
X250303Y419781D01*
X250203Y419787D01*
X250103Y419797D01*
X250003Y419810D01*
X249904Y419828D01*
X249805Y419849D01*
X249708Y419874D01*
X249611Y419903D01*
X249516Y419936D01*
X249422Y419972D01*
X249330Y420012D01*
X249239Y420055D01*
X249150Y420102D01*
X249063Y420152D01*
X248977Y420206D01*
X248894Y420263D01*
X248814Y420323D01*
X248735Y420386D01*
X248659Y420453D01*
X248586Y420522D01*
X248516Y420594D01*
X248448Y420668D01*
X248383Y420745D01*
X248322Y420825D01*
X248263Y420907D01*
X248208Y420991D01*
X248156Y421077D01*
X248107Y421165D01*
X248062Y421255D01*
X248020Y421347D01*
X247982Y421440D01*
X247948Y421535D01*
X247917Y421630D01*
X247890Y421727D01*
X247867Y421825D01*
X247847Y421924D01*
X247832Y422024D01*
X247820Y422124D01*
X247812Y422224D01*
X247808Y422325D01*
X247808Y422425D01*
X247812Y422526D01*
X247820Y422626D01*
X247832Y422726D01*
X247847Y422826D01*
X247867Y422925D01*
X247890Y423023D01*
X247917Y423120D01*
X247948Y423215D01*
X247982Y423310D01*
X248020Y423403D01*
X248062Y423495D01*
X248107Y423585D01*
X248156Y423673D01*
X248208Y423759D01*
X248263Y423843D01*
X248322Y423925D01*
X248383Y424005D01*
X248448Y424082D01*
X248516Y424156D01*
X248586Y424228D01*
X248659Y424297D01*
X248735Y424364D01*
X248814Y424427D01*
X248894Y424487D01*
X248977Y424544D01*
X249063Y424598D01*
X249150Y424648D01*
X249239Y424695D01*
X249330Y424738D01*
X249422Y424778D01*
X249516Y424814D01*
X249611Y424847D01*
X249708Y424876D01*
X249805Y424901D01*
X249904Y424922D01*
X250003Y424940D01*
X250103Y424953D01*
X250203Y424963D01*
X250303Y424969D01*
X250404Y424971D01*
X250505Y424969D01*
X250605Y424963D01*
X250705Y424953D01*
X250805Y424940D01*
X250904Y424922D01*
X251003Y424901D01*
X251100Y424876D01*
X251197Y424847D01*
X251292Y424814D01*
X251386Y424778D01*
X251478Y424738D01*
X251569Y424695D01*
X251658Y424648D01*
X251745Y424598D01*
X251831Y424544D01*
X251914Y424487D01*
X251994Y424427D01*
X252073Y424364D01*
X252149Y424297D01*
X252222Y424228D01*
X252292Y424156D01*
X252360Y424082D01*
X252425Y424005D01*
X252486Y423925D01*
X252545Y423843D01*
X252600Y423759D01*
X252652Y423673D01*
X252701Y423585D01*
X252746Y423495D01*
X252788Y423403D01*
X252826Y423310D01*
X252860Y423215D01*
X252891Y423120D01*
X252918Y423023D01*
X252941Y422925D01*
X252961Y422826D01*
X252976Y422726D01*
X252988Y422626D01*
X252996Y422526D01*
X253000Y422425D01*
X253000Y422325D01*
X252996Y422224D01*
X252988Y422124D01*
X252976Y422024D01*
X252961Y421924D01*
X252941Y421825D01*
X252918Y421727D01*
X252891Y421630D01*
X252860Y421535D01*
X252826Y421440D01*
X252788Y421347D01*
X252746Y421255D01*
X252701Y421165D01*
X252652Y421077D01*
X252600Y420991D01*
X252545Y420907D01*
X252486Y420825D01*
X252425Y420745D01*
X252360Y420668D01*
X252292Y420594D01*
X252222Y420522D01*
X252149Y420453D01*
X252073Y420386D01*
X251994Y420323D01*
X251914Y420263D01*
X251831Y420206D01*
X251745Y420152D01*
X251658Y420102D01*
X251569Y420055D01*
X251478Y420012D01*
X251386Y419972D01*
X251292Y419936D01*
X251197Y419903D01*
X251100Y419874D01*
X251003Y419849D01*
X250904Y419828D01*
X250805Y419810D01*
X250705Y419797D01*
X250605Y419787D01*
X250505Y419781D01*
X250404Y419779D01*
X256246Y430559D02*
X256133Y430561D01*
X256020Y430567D01*
X255907Y430577D01*
X255794Y430591D01*
X255682Y430608D01*
X255571Y430630D01*
X255461Y430655D01*
X255351Y430685D01*
X255243Y430718D01*
X255136Y430755D01*
X255030Y430795D01*
X254926Y430840D01*
X254823Y430888D01*
X254722Y430939D01*
X254623Y430994D01*
X254526Y431052D01*
X254431Y431114D01*
X254338Y431179D01*
X254248Y431247D01*
X254160Y431318D01*
X254074Y431393D01*
X253991Y431470D01*
X253911Y431550D01*
X253834Y431633D01*
X253759Y431719D01*
X253688Y431807D01*
X253620Y431897D01*
X253555Y431990D01*
X253493Y432085D01*
X253435Y432182D01*
X253380Y432281D01*
X253329Y432382D01*
X253281Y432485D01*
X253236Y432589D01*
X253196Y432695D01*
X253159Y432802D01*
X253126Y432910D01*
X253096Y433020D01*
X253071Y433130D01*
X253049Y433241D01*
X253032Y433353D01*
X253018Y433466D01*
X253008Y433579D01*
X253002Y433692D01*
X253000Y433805D01*
X253002Y433918D01*
X253008Y434031D01*
X253018Y434144D01*
X253032Y434257D01*
X253049Y434369D01*
X253071Y434480D01*
X253096Y434590D01*
X253126Y434700D01*
X253159Y434808D01*
X253196Y434915D01*
X253236Y435021D01*
X253281Y435125D01*
X253329Y435228D01*
X253380Y435329D01*
X253435Y435428D01*
X253493Y435525D01*
X253555Y435620D01*
X253620Y435713D01*
X253688Y435803D01*
X253759Y435891D01*
X253834Y435977D01*
X253911Y436060D01*
X253991Y436140D01*
X254074Y436217D01*
X254160Y436292D01*
X254248Y436363D01*
X254338Y436431D01*
X254431Y436496D01*
X254526Y436558D01*
X254623Y436616D01*
X254722Y436671D01*
X254823Y436722D01*
X254926Y436770D01*
X255030Y436815D01*
X255136Y436855D01*
X255243Y436892D01*
X255351Y436925D01*
X255461Y436955D01*
X255571Y436980D01*
X255682Y437002D01*
X255794Y437019D01*
X255907Y437033D01*
X256020Y437043D01*
X256133Y437049D01*
X256246Y437051D01*
X256359Y437049D01*
X256472Y437043D01*
X256585Y437033D01*
X256698Y437019D01*
X256810Y437002D01*
X256921Y436980D01*
X257031Y436955D01*
X257141Y436925D01*
X257249Y436892D01*
X257356Y436855D01*
X257462Y436815D01*
X257566Y436770D01*
X257669Y436722D01*
X257770Y436671D01*
X257869Y436616D01*
X257966Y436558D01*
X258061Y436496D01*
X258154Y436431D01*
X258244Y436363D01*
X258332Y436292D01*
X258418Y436217D01*
X258501Y436140D01*
X258581Y436060D01*
X258658Y435977D01*
X258733Y435891D01*
X258804Y435803D01*
X258872Y435713D01*
X258937Y435620D01*
X258999Y435525D01*
X259057Y435428D01*
X259112Y435329D01*
X259163Y435228D01*
X259211Y435125D01*
X259256Y435021D01*
X259296Y434915D01*
X259333Y434808D01*
X259366Y434700D01*
X259396Y434590D01*
X259421Y434480D01*
X259443Y434369D01*
X259460Y434257D01*
X259474Y434144D01*
X259484Y434031D01*
X259490Y433918D01*
X259492Y433805D01*
X259490Y433692D01*
X259484Y433579D01*
X259474Y433466D01*
X259460Y433353D01*
X259443Y433241D01*
X259421Y433130D01*
X259396Y433020D01*
X259366Y432910D01*
X259333Y432802D01*
X259296Y432695D01*
X259256Y432589D01*
X259211Y432485D01*
X259163Y432382D01*
X259112Y432281D01*
X259057Y432182D01*
X258999Y432085D01*
X258937Y431990D01*
X258872Y431897D01*
X258804Y431807D01*
X258733Y431719D01*
X258658Y431633D01*
X258581Y431550D01*
X258501Y431470D01*
X258418Y431393D01*
X258332Y431318D01*
X258244Y431247D01*
X258154Y431179D01*
X258061Y431114D01*
X257966Y431052D01*
X257869Y430994D01*
X257770Y430939D01*
X257669Y430888D01*
X257566Y430840D01*
X257462Y430795D01*
X257356Y430755D01*
X257249Y430718D01*
X257141Y430685D01*
X257031Y430655D01*
X256921Y430630D01*
X256810Y430608D01*
X256698Y430591D01*
X256585Y430577D01*
X256472Y430567D01*
X256359Y430561D01*
X256246Y430559D01*
X250404Y431209D02*
X250303Y431211D01*
X250203Y431217D01*
X250103Y431227D01*
X250003Y431240D01*
X249904Y431258D01*
X249805Y431279D01*
X249708Y431304D01*
X249611Y431333D01*
X249516Y431366D01*
X249422Y431402D01*
X249330Y431442D01*
X249239Y431485D01*
X249150Y431532D01*
X249063Y431582D01*
X248977Y431636D01*
X248894Y431693D01*
X248814Y431753D01*
X248735Y431816D01*
X248659Y431883D01*
X248586Y431952D01*
X248516Y432024D01*
X248448Y432098D01*
X248383Y432175D01*
X248322Y432255D01*
X248263Y432337D01*
X248208Y432421D01*
X248156Y432507D01*
X248107Y432595D01*
X248062Y432685D01*
X248020Y432777D01*
X247982Y432870D01*
X247948Y432965D01*
X247917Y433060D01*
X247890Y433157D01*
X247867Y433255D01*
X247847Y433354D01*
X247832Y433454D01*
X247820Y433554D01*
X247812Y433654D01*
X247808Y433755D01*
X247808Y433855D01*
X247812Y433956D01*
X247820Y434056D01*
X247832Y434156D01*
X247847Y434256D01*
X247867Y434355D01*
X247890Y434453D01*
X247917Y434550D01*
X247948Y434645D01*
X247982Y434740D01*
X248020Y434833D01*
X248062Y434925D01*
X248107Y435015D01*
X248156Y435103D01*
X248208Y435189D01*
X248263Y435273D01*
X248322Y435355D01*
X248383Y435435D01*
X248448Y435512D01*
X248516Y435586D01*
X248586Y435658D01*
X248659Y435727D01*
X248735Y435794D01*
X248814Y435857D01*
X248894Y435917D01*
X248977Y435974D01*
X249063Y436028D01*
X249150Y436078D01*
X249239Y436125D01*
X249330Y436168D01*
X249422Y436208D01*
X249516Y436244D01*
X249611Y436277D01*
X249708Y436306D01*
X249805Y436331D01*
X249904Y436352D01*
X250003Y436370D01*
X250103Y436383D01*
X250203Y436393D01*
X250303Y436399D01*
X250404Y436401D01*
X250505Y436399D01*
X250605Y436393D01*
X250705Y436383D01*
X250805Y436370D01*
X250904Y436352D01*
X251003Y436331D01*
X251100Y436306D01*
X251197Y436277D01*
X251292Y436244D01*
X251386Y436208D01*
X251478Y436168D01*
X251569Y436125D01*
X251658Y436078D01*
X251745Y436028D01*
X251831Y435974D01*
X251914Y435917D01*
X251994Y435857D01*
X252073Y435794D01*
X252149Y435727D01*
X252222Y435658D01*
X252292Y435586D01*
X252360Y435512D01*
X252425Y435435D01*
X252486Y435355D01*
X252545Y435273D01*
X252600Y435189D01*
X252652Y435103D01*
X252701Y435015D01*
X252746Y434925D01*
X252788Y434833D01*
X252826Y434740D01*
X252860Y434645D01*
X252891Y434550D01*
X252918Y434453D01*
X252941Y434355D01*
X252961Y434256D01*
X252976Y434156D01*
X252988Y434056D01*
X252996Y433956D01*
X253000Y433855D01*
X253000Y433755D01*
X252996Y433654D01*
X252988Y433554D01*
X252976Y433454D01*
X252961Y433354D01*
X252941Y433255D01*
X252918Y433157D01*
X252891Y433060D01*
X252860Y432965D01*
X252826Y432870D01*
X252788Y432777D01*
X252746Y432685D01*
X252701Y432595D01*
X252652Y432507D01*
X252600Y432421D01*
X252545Y432337D01*
X252486Y432255D01*
X252425Y432175D01*
X252360Y432098D01*
X252292Y432024D01*
X252222Y431952D01*
X252149Y431883D01*
X252073Y431816D01*
X251994Y431753D01*
X251914Y431693D01*
X251831Y431636D01*
X251745Y431582D01*
X251658Y431532D01*
X251569Y431485D01*
X251478Y431442D01*
X251386Y431402D01*
X251292Y431366D01*
X251197Y431333D01*
X251100Y431304D01*
X251003Y431279D01*
X250904Y431258D01*
X250805Y431240D01*
X250705Y431227D01*
X250605Y431217D01*
X250505Y431211D01*
X250404Y431209D01*
X259492Y441990D02*
X259492Y445235D01*
X259490Y445348D01*
X259484Y445461D01*
X259474Y445574D01*
X259460Y445687D01*
X259443Y445799D01*
X259421Y445910D01*
X259396Y446020D01*
X259366Y446130D01*
X259333Y446238D01*
X259296Y446345D01*
X259256Y446451D01*
X259211Y446555D01*
X259163Y446658D01*
X259112Y446759D01*
X259057Y446858D01*
X258999Y446955D01*
X258937Y447050D01*
X258872Y447143D01*
X258804Y447233D01*
X258733Y447321D01*
X258658Y447407D01*
X258581Y447490D01*
X258501Y447570D01*
X258418Y447647D01*
X258332Y447722D01*
X258244Y447793D01*
X258154Y447861D01*
X258061Y447926D01*
X257966Y447988D01*
X257869Y448046D01*
X257770Y448101D01*
X257669Y448152D01*
X257566Y448200D01*
X257462Y448245D01*
X257356Y448285D01*
X257249Y448322D01*
X257141Y448355D01*
X257031Y448385D01*
X256921Y448410D01*
X256810Y448432D01*
X256698Y448449D01*
X256585Y448463D01*
X256472Y448473D01*
X256359Y448479D01*
X256246Y448481D01*
X256133Y448479D01*
X256020Y448473D01*
X255907Y448463D01*
X255794Y448449D01*
X255682Y448432D01*
X255571Y448410D01*
X255461Y448385D01*
X255351Y448355D01*
X255243Y448322D01*
X255136Y448285D01*
X255030Y448245D01*
X254926Y448200D01*
X254823Y448152D01*
X254722Y448101D01*
X254623Y448046D01*
X254526Y447988D01*
X254431Y447926D01*
X254338Y447861D01*
X254248Y447793D01*
X254160Y447722D01*
X254074Y447647D01*
X253991Y447570D01*
X253911Y447490D01*
X253834Y447407D01*
X253759Y447321D01*
X253688Y447233D01*
X253620Y447143D01*
X253555Y447050D01*
X253493Y446955D01*
X253435Y446858D01*
X253380Y446759D01*
X253329Y446658D01*
X253281Y446555D01*
X253236Y446451D01*
X253196Y446345D01*
X253159Y446238D01*
X253126Y446130D01*
X253096Y446020D01*
X253071Y445910D01*
X253049Y445799D01*
X253032Y445687D01*
X253018Y445574D01*
X253008Y445461D01*
X253002Y445348D01*
X253000Y445235D01*
X247808Y445885D02*
X247808Y441990D01*
X247808Y445885D02*
X247810Y445986D01*
X247816Y446086D01*
X247826Y446186D01*
X247839Y446286D01*
X247857Y446385D01*
X247878Y446484D01*
X247903Y446581D01*
X247932Y446678D01*
X247965Y446773D01*
X248001Y446867D01*
X248041Y446959D01*
X248084Y447050D01*
X248131Y447139D01*
X248181Y447226D01*
X248235Y447312D01*
X248292Y447395D01*
X248352Y447475D01*
X248415Y447554D01*
X248482Y447630D01*
X248551Y447703D01*
X248623Y447773D01*
X248697Y447841D01*
X248774Y447906D01*
X248854Y447967D01*
X248936Y448026D01*
X249020Y448081D01*
X249106Y448133D01*
X249194Y448182D01*
X249284Y448227D01*
X249376Y448269D01*
X249469Y448307D01*
X249564Y448341D01*
X249659Y448372D01*
X249756Y448399D01*
X249854Y448422D01*
X249953Y448442D01*
X250053Y448457D01*
X250153Y448469D01*
X250253Y448477D01*
X250354Y448481D01*
X250454Y448481D01*
X250555Y448477D01*
X250655Y448469D01*
X250755Y448457D01*
X250855Y448442D01*
X250954Y448422D01*
X251052Y448399D01*
X251149Y448372D01*
X251244Y448341D01*
X251339Y448307D01*
X251432Y448269D01*
X251524Y448227D01*
X251614Y448182D01*
X251702Y448133D01*
X251788Y448081D01*
X251872Y448026D01*
X251954Y447967D01*
X252034Y447906D01*
X252111Y447841D01*
X252185Y447773D01*
X252257Y447703D01*
X252326Y447630D01*
X252393Y447554D01*
X252456Y447475D01*
X252516Y447395D01*
X252573Y447312D01*
X252627Y447226D01*
X252677Y447139D01*
X252724Y447050D01*
X252767Y446959D01*
X252807Y446867D01*
X252843Y446773D01*
X252876Y446678D01*
X252905Y446581D01*
X252930Y446484D01*
X252951Y446385D01*
X252969Y446286D01*
X252982Y446186D01*
X252992Y446086D01*
X252998Y445986D01*
X253000Y445885D01*
X253001Y445885D02*
X253001Y443288D01*
X256246Y453419D02*
X256133Y453421D01*
X256020Y453427D01*
X255907Y453437D01*
X255794Y453451D01*
X255682Y453468D01*
X255571Y453490D01*
X255461Y453515D01*
X255351Y453545D01*
X255243Y453578D01*
X255136Y453615D01*
X255030Y453655D01*
X254926Y453700D01*
X254823Y453748D01*
X254722Y453799D01*
X254623Y453854D01*
X254526Y453912D01*
X254431Y453974D01*
X254338Y454039D01*
X254248Y454107D01*
X254160Y454178D01*
X254074Y454253D01*
X253991Y454330D01*
X253911Y454410D01*
X253834Y454493D01*
X253759Y454579D01*
X253688Y454667D01*
X253620Y454757D01*
X253555Y454850D01*
X253493Y454945D01*
X253435Y455042D01*
X253380Y455141D01*
X253329Y455242D01*
X253281Y455345D01*
X253236Y455449D01*
X253196Y455555D01*
X253159Y455662D01*
X253126Y455770D01*
X253096Y455880D01*
X253071Y455990D01*
X253049Y456101D01*
X253032Y456213D01*
X253018Y456326D01*
X253008Y456439D01*
X253002Y456552D01*
X253000Y456665D01*
X253002Y456778D01*
X253008Y456891D01*
X253018Y457004D01*
X253032Y457117D01*
X253049Y457229D01*
X253071Y457340D01*
X253096Y457450D01*
X253126Y457560D01*
X253159Y457668D01*
X253196Y457775D01*
X253236Y457881D01*
X253281Y457985D01*
X253329Y458088D01*
X253380Y458189D01*
X253435Y458288D01*
X253493Y458385D01*
X253555Y458480D01*
X253620Y458573D01*
X253688Y458663D01*
X253759Y458751D01*
X253834Y458837D01*
X253911Y458920D01*
X253991Y459000D01*
X254074Y459077D01*
X254160Y459152D01*
X254248Y459223D01*
X254338Y459291D01*
X254431Y459356D01*
X254526Y459418D01*
X254623Y459476D01*
X254722Y459531D01*
X254823Y459582D01*
X254926Y459630D01*
X255030Y459675D01*
X255136Y459715D01*
X255243Y459752D01*
X255351Y459785D01*
X255461Y459815D01*
X255571Y459840D01*
X255682Y459862D01*
X255794Y459879D01*
X255907Y459893D01*
X256020Y459903D01*
X256133Y459909D01*
X256246Y459911D01*
X256359Y459909D01*
X256472Y459903D01*
X256585Y459893D01*
X256698Y459879D01*
X256810Y459862D01*
X256921Y459840D01*
X257031Y459815D01*
X257141Y459785D01*
X257249Y459752D01*
X257356Y459715D01*
X257462Y459675D01*
X257566Y459630D01*
X257669Y459582D01*
X257770Y459531D01*
X257869Y459476D01*
X257966Y459418D01*
X258061Y459356D01*
X258154Y459291D01*
X258244Y459223D01*
X258332Y459152D01*
X258418Y459077D01*
X258501Y459000D01*
X258581Y458920D01*
X258658Y458837D01*
X258733Y458751D01*
X258804Y458663D01*
X258872Y458573D01*
X258937Y458480D01*
X258999Y458385D01*
X259057Y458288D01*
X259112Y458189D01*
X259163Y458088D01*
X259211Y457985D01*
X259256Y457881D01*
X259296Y457775D01*
X259333Y457668D01*
X259366Y457560D01*
X259396Y457450D01*
X259421Y457340D01*
X259443Y457229D01*
X259460Y457117D01*
X259474Y457004D01*
X259484Y456891D01*
X259490Y456778D01*
X259492Y456665D01*
X259490Y456552D01*
X259484Y456439D01*
X259474Y456326D01*
X259460Y456213D01*
X259443Y456101D01*
X259421Y455990D01*
X259396Y455880D01*
X259366Y455770D01*
X259333Y455662D01*
X259296Y455555D01*
X259256Y455449D01*
X259211Y455345D01*
X259163Y455242D01*
X259112Y455141D01*
X259057Y455042D01*
X258999Y454945D01*
X258937Y454850D01*
X258872Y454757D01*
X258804Y454667D01*
X258733Y454579D01*
X258658Y454493D01*
X258581Y454410D01*
X258501Y454330D01*
X258418Y454253D01*
X258332Y454178D01*
X258244Y454107D01*
X258154Y454039D01*
X258061Y453974D01*
X257966Y453912D01*
X257869Y453854D01*
X257770Y453799D01*
X257669Y453748D01*
X257566Y453700D01*
X257462Y453655D01*
X257356Y453615D01*
X257249Y453578D01*
X257141Y453545D01*
X257031Y453515D01*
X256921Y453490D01*
X256810Y453468D01*
X256698Y453451D01*
X256585Y453437D01*
X256472Y453427D01*
X256359Y453421D01*
X256246Y453419D01*
X250404Y454069D02*
X250303Y454071D01*
X250203Y454077D01*
X250103Y454087D01*
X250003Y454100D01*
X249904Y454118D01*
X249805Y454139D01*
X249708Y454164D01*
X249611Y454193D01*
X249516Y454226D01*
X249422Y454262D01*
X249330Y454302D01*
X249239Y454345D01*
X249150Y454392D01*
X249063Y454442D01*
X248977Y454496D01*
X248894Y454553D01*
X248814Y454613D01*
X248735Y454676D01*
X248659Y454743D01*
X248586Y454812D01*
X248516Y454884D01*
X248448Y454958D01*
X248383Y455035D01*
X248322Y455115D01*
X248263Y455197D01*
X248208Y455281D01*
X248156Y455367D01*
X248107Y455455D01*
X248062Y455545D01*
X248020Y455637D01*
X247982Y455730D01*
X247948Y455825D01*
X247917Y455920D01*
X247890Y456017D01*
X247867Y456115D01*
X247847Y456214D01*
X247832Y456314D01*
X247820Y456414D01*
X247812Y456514D01*
X247808Y456615D01*
X247808Y456715D01*
X247812Y456816D01*
X247820Y456916D01*
X247832Y457016D01*
X247847Y457116D01*
X247867Y457215D01*
X247890Y457313D01*
X247917Y457410D01*
X247948Y457505D01*
X247982Y457600D01*
X248020Y457693D01*
X248062Y457785D01*
X248107Y457875D01*
X248156Y457963D01*
X248208Y458049D01*
X248263Y458133D01*
X248322Y458215D01*
X248383Y458295D01*
X248448Y458372D01*
X248516Y458446D01*
X248586Y458518D01*
X248659Y458587D01*
X248735Y458654D01*
X248814Y458717D01*
X248894Y458777D01*
X248977Y458834D01*
X249063Y458888D01*
X249150Y458938D01*
X249239Y458985D01*
X249330Y459028D01*
X249422Y459068D01*
X249516Y459104D01*
X249611Y459137D01*
X249708Y459166D01*
X249805Y459191D01*
X249904Y459212D01*
X250003Y459230D01*
X250103Y459243D01*
X250203Y459253D01*
X250303Y459259D01*
X250404Y459261D01*
X250505Y459259D01*
X250605Y459253D01*
X250705Y459243D01*
X250805Y459230D01*
X250904Y459212D01*
X251003Y459191D01*
X251100Y459166D01*
X251197Y459137D01*
X251292Y459104D01*
X251386Y459068D01*
X251478Y459028D01*
X251569Y458985D01*
X251658Y458938D01*
X251745Y458888D01*
X251831Y458834D01*
X251914Y458777D01*
X251994Y458717D01*
X252073Y458654D01*
X252149Y458587D01*
X252222Y458518D01*
X252292Y458446D01*
X252360Y458372D01*
X252425Y458295D01*
X252486Y458215D01*
X252545Y458133D01*
X252600Y458049D01*
X252652Y457963D01*
X252701Y457875D01*
X252746Y457785D01*
X252788Y457693D01*
X252826Y457600D01*
X252860Y457505D01*
X252891Y457410D01*
X252918Y457313D01*
X252941Y457215D01*
X252961Y457116D01*
X252976Y457016D01*
X252988Y456916D01*
X252996Y456816D01*
X253000Y456715D01*
X253000Y456615D01*
X252996Y456514D01*
X252988Y456414D01*
X252976Y456314D01*
X252961Y456214D01*
X252941Y456115D01*
X252918Y456017D01*
X252891Y455920D01*
X252860Y455825D01*
X252826Y455730D01*
X252788Y455637D01*
X252746Y455545D01*
X252701Y455455D01*
X252652Y455367D01*
X252600Y455281D01*
X252545Y455197D01*
X252486Y455115D01*
X252425Y455035D01*
X252360Y454958D01*
X252292Y454884D01*
X252222Y454812D01*
X252149Y454743D01*
X252073Y454676D01*
X251994Y454613D01*
X251914Y454553D01*
X251831Y454496D01*
X251745Y454442D01*
X251658Y454392D01*
X251569Y454345D01*
X251478Y454302D01*
X251386Y454262D01*
X251292Y454226D01*
X251197Y454193D01*
X251100Y454164D01*
X251003Y454139D01*
X250904Y454118D01*
X250805Y454100D01*
X250705Y454087D01*
X250605Y454077D01*
X250505Y454071D01*
X250404Y454069D01*
D10*
X153200Y325800D02*
X72800Y325800D01*
X153200Y325800D02*
X153200Y140400D01*
X72800Y140400D01*
X72800Y325800D01*
X113416Y171087D02*
X113416Y167023D01*
X113418Y166911D01*
X113424Y166800D01*
X113434Y166689D01*
X113447Y166578D01*
X113465Y166468D01*
X113487Y166359D01*
X113512Y166250D01*
X113541Y166142D01*
X113574Y166036D01*
X113611Y165930D01*
X113651Y165826D01*
X113695Y165724D01*
X113743Y165623D01*
X113794Y165524D01*
X113849Y165426D01*
X113907Y165331D01*
X113968Y165238D01*
X114033Y165147D01*
X114101Y165058D01*
X114172Y164972D01*
X114245Y164889D01*
X114322Y164808D01*
X114402Y164729D01*
X114484Y164654D01*
X114569Y164582D01*
X114656Y164512D01*
X114746Y164446D01*
X114838Y164383D01*
X114933Y164323D01*
X115029Y164267D01*
X115127Y164214D01*
X115227Y164165D01*
X115329Y164119D01*
X115432Y164077D01*
X115537Y164038D01*
X115643Y164003D01*
X115750Y163972D01*
X115858Y163945D01*
X115967Y163921D01*
X116077Y163902D01*
X116187Y163886D01*
X116298Y163874D01*
X116410Y163866D01*
X116521Y163862D01*
X116633Y163862D01*
X116744Y163866D01*
X116856Y163874D01*
X116967Y163886D01*
X117077Y163902D01*
X117187Y163921D01*
X117296Y163945D01*
X117404Y163972D01*
X117511Y164003D01*
X117617Y164038D01*
X117722Y164077D01*
X117825Y164119D01*
X117927Y164165D01*
X118027Y164214D01*
X118125Y164267D01*
X118221Y164323D01*
X118316Y164383D01*
X118408Y164446D01*
X118498Y164512D01*
X118585Y164582D01*
X118670Y164654D01*
X118752Y164729D01*
X118832Y164808D01*
X118909Y164889D01*
X118982Y164972D01*
X119053Y165058D01*
X119121Y165147D01*
X119186Y165238D01*
X119247Y165331D01*
X119305Y165426D01*
X119360Y165524D01*
X119411Y165623D01*
X119459Y165724D01*
X119503Y165826D01*
X119543Y165930D01*
X119580Y166036D01*
X119613Y166142D01*
X119642Y166250D01*
X119667Y166359D01*
X119689Y166468D01*
X119707Y166578D01*
X119720Y166689D01*
X119730Y166800D01*
X119736Y166911D01*
X119738Y167023D01*
X119738Y171087D01*
X111610Y171087D01*
X111509Y171085D01*
X111408Y171079D01*
X111307Y171070D01*
X111206Y171057D01*
X111106Y171040D01*
X111007Y171019D01*
X110909Y170995D01*
X110812Y170967D01*
X110715Y170935D01*
X110620Y170900D01*
X110527Y170861D01*
X110435Y170819D01*
X110344Y170773D01*
X110256Y170724D01*
X110169Y170672D01*
X110084Y170616D01*
X110001Y170558D01*
X109921Y170496D01*
X109843Y170431D01*
X109767Y170364D01*
X109694Y170294D01*
X109624Y170221D01*
X109557Y170145D01*
X109492Y170067D01*
X109430Y169987D01*
X109372Y169904D01*
X109316Y169819D01*
X109264Y169733D01*
X109215Y169644D01*
X109169Y169553D01*
X109127Y169461D01*
X109088Y169368D01*
X109053Y169273D01*
X109021Y169176D01*
X108993Y169079D01*
X108969Y168981D01*
X108948Y168882D01*
X108931Y168782D01*
X108918Y168681D01*
X108909Y168580D01*
X108903Y168479D01*
X108901Y168378D01*
X108901Y164765D01*
X108901Y176706D02*
X108901Y182125D01*
X103482Y178512D02*
X117029Y178512D01*
X117029Y178513D02*
X117130Y178515D01*
X117231Y178521D01*
X117332Y178530D01*
X117433Y178543D01*
X117533Y178560D01*
X117632Y178581D01*
X117730Y178605D01*
X117827Y178633D01*
X117924Y178665D01*
X118019Y178700D01*
X118112Y178739D01*
X118204Y178781D01*
X118295Y178827D01*
X118383Y178876D01*
X118470Y178928D01*
X118555Y178984D01*
X118638Y179042D01*
X118718Y179104D01*
X118796Y179169D01*
X118872Y179236D01*
X118945Y179306D01*
X119015Y179379D01*
X119082Y179455D01*
X119147Y179533D01*
X119209Y179613D01*
X119267Y179696D01*
X119323Y179781D01*
X119375Y179867D01*
X119424Y179956D01*
X119470Y180047D01*
X119512Y180139D01*
X119551Y180232D01*
X119586Y180327D01*
X119618Y180424D01*
X119646Y180521D01*
X119670Y180619D01*
X119691Y180718D01*
X119708Y180818D01*
X119721Y180919D01*
X119730Y181020D01*
X119736Y181121D01*
X119738Y181222D01*
X119738Y182125D01*
X108901Y186606D02*
X108901Y192025D01*
X103482Y188412D02*
X117029Y188412D01*
X117130Y188414D01*
X117231Y188420D01*
X117332Y188429D01*
X117433Y188442D01*
X117533Y188459D01*
X117632Y188480D01*
X117730Y188504D01*
X117827Y188532D01*
X117924Y188564D01*
X118019Y188599D01*
X118112Y188638D01*
X118204Y188680D01*
X118295Y188726D01*
X118383Y188775D01*
X118470Y188827D01*
X118555Y188883D01*
X118638Y188941D01*
X118718Y189003D01*
X118796Y189068D01*
X118872Y189135D01*
X118945Y189205D01*
X119015Y189278D01*
X119082Y189354D01*
X119147Y189432D01*
X119209Y189512D01*
X119267Y189595D01*
X119323Y189680D01*
X119375Y189766D01*
X119424Y189855D01*
X119470Y189946D01*
X119512Y190038D01*
X119551Y190131D01*
X119586Y190226D01*
X119618Y190323D01*
X119646Y190420D01*
X119670Y190518D01*
X119691Y190617D01*
X119708Y190717D01*
X119721Y190818D01*
X119730Y190919D01*
X119736Y191020D01*
X119738Y191121D01*
X119738Y192025D01*
X119738Y197768D02*
X108901Y197768D01*
X104385Y197316D02*
X103482Y197316D01*
X103482Y198220D01*
X104385Y198220D01*
X104385Y197316D01*
X108901Y204576D02*
X119738Y204576D01*
X108901Y204576D02*
X108901Y209092D01*
X108903Y209196D01*
X108909Y209299D01*
X108919Y209403D01*
X108933Y209506D01*
X108951Y209608D01*
X108972Y209709D01*
X108998Y209810D01*
X109027Y209909D01*
X109060Y210008D01*
X109097Y210105D01*
X109138Y210200D01*
X109182Y210294D01*
X109230Y210386D01*
X109281Y210476D01*
X109336Y210565D01*
X109394Y210651D01*
X109456Y210734D01*
X109520Y210816D01*
X109588Y210894D01*
X109658Y210970D01*
X109731Y211044D01*
X109808Y211114D01*
X109886Y211182D01*
X109968Y211246D01*
X110051Y211308D01*
X110137Y211366D01*
X110226Y211421D01*
X110316Y211472D01*
X110408Y211520D01*
X110502Y211564D01*
X110597Y211605D01*
X110694Y211642D01*
X110793Y211675D01*
X110892Y211704D01*
X110993Y211730D01*
X111094Y211751D01*
X111196Y211769D01*
X111299Y211783D01*
X111403Y211793D01*
X111506Y211799D01*
X111610Y211801D01*
X119738Y211801D01*
X125157Y218123D02*
X125157Y219930D01*
X108901Y225348D01*
X108901Y218123D02*
X119738Y221736D01*
X115222Y231288D02*
X115089Y231290D01*
X114957Y231296D01*
X114825Y231306D01*
X114693Y231319D01*
X114561Y231337D01*
X114431Y231358D01*
X114300Y231383D01*
X114171Y231412D01*
X114043Y231445D01*
X113915Y231481D01*
X113789Y231521D01*
X113664Y231565D01*
X113540Y231613D01*
X113418Y231664D01*
X113297Y231719D01*
X113178Y231777D01*
X113060Y231839D01*
X112945Y231904D01*
X112831Y231973D01*
X112720Y232044D01*
X112611Y232120D01*
X112504Y232198D01*
X112399Y232279D01*
X112297Y232364D01*
X112197Y232451D01*
X112100Y232541D01*
X112005Y232634D01*
X111914Y232730D01*
X111825Y232828D01*
X111739Y232929D01*
X111656Y233033D01*
X111576Y233139D01*
X111500Y233247D01*
X111426Y233357D01*
X111356Y233470D01*
X111289Y233584D01*
X111226Y233701D01*
X111166Y233819D01*
X111109Y233939D01*
X111056Y234061D01*
X111007Y234184D01*
X110961Y234308D01*
X110919Y234434D01*
X110881Y234561D01*
X110846Y234689D01*
X110815Y234818D01*
X110788Y234947D01*
X110765Y235078D01*
X110745Y235209D01*
X110730Y235341D01*
X110718Y235473D01*
X110710Y235605D01*
X110706Y235738D01*
X110706Y235870D01*
X110710Y236003D01*
X110718Y236135D01*
X110730Y236267D01*
X110745Y236399D01*
X110765Y236530D01*
X110788Y236661D01*
X110815Y236790D01*
X110846Y236919D01*
X110881Y237047D01*
X110919Y237174D01*
X110961Y237300D01*
X111007Y237424D01*
X111056Y237547D01*
X111109Y237669D01*
X111166Y237789D01*
X111226Y237907D01*
X111289Y238024D01*
X111356Y238138D01*
X111426Y238251D01*
X111500Y238361D01*
X111576Y238469D01*
X111656Y238575D01*
X111739Y238679D01*
X111825Y238780D01*
X111914Y238878D01*
X112005Y238974D01*
X112100Y239067D01*
X112197Y239157D01*
X112297Y239244D01*
X112399Y239329D01*
X112504Y239410D01*
X112611Y239488D01*
X112720Y239564D01*
X112831Y239635D01*
X112945Y239704D01*
X113060Y239769D01*
X113178Y239831D01*
X113297Y239889D01*
X113418Y239944D01*
X113540Y239995D01*
X113664Y240043D01*
X113789Y240087D01*
X113915Y240127D01*
X114043Y240163D01*
X114171Y240196D01*
X114300Y240225D01*
X114431Y240250D01*
X114561Y240271D01*
X114693Y240289D01*
X114825Y240302D01*
X114957Y240312D01*
X115089Y240318D01*
X115222Y240320D01*
X115355Y240318D01*
X115487Y240312D01*
X115619Y240302D01*
X115751Y240289D01*
X115883Y240271D01*
X116013Y240250D01*
X116144Y240225D01*
X116273Y240196D01*
X116401Y240163D01*
X116529Y240127D01*
X116655Y240087D01*
X116780Y240043D01*
X116904Y239995D01*
X117026Y239944D01*
X117147Y239889D01*
X117266Y239831D01*
X117384Y239769D01*
X117499Y239704D01*
X117613Y239635D01*
X117724Y239564D01*
X117833Y239488D01*
X117940Y239410D01*
X118045Y239329D01*
X118147Y239244D01*
X118247Y239157D01*
X118344Y239067D01*
X118439Y238974D01*
X118530Y238878D01*
X118619Y238780D01*
X118705Y238679D01*
X118788Y238575D01*
X118868Y238469D01*
X118944Y238361D01*
X119018Y238251D01*
X119088Y238138D01*
X119155Y238024D01*
X119218Y237907D01*
X119278Y237789D01*
X119335Y237669D01*
X119388Y237547D01*
X119437Y237424D01*
X119483Y237300D01*
X119525Y237174D01*
X119563Y237047D01*
X119598Y236919D01*
X119629Y236790D01*
X119656Y236661D01*
X119679Y236530D01*
X119699Y236399D01*
X119714Y236267D01*
X119726Y236135D01*
X119734Y236003D01*
X119738Y235870D01*
X119738Y235738D01*
X119734Y235605D01*
X119726Y235473D01*
X119714Y235341D01*
X119699Y235209D01*
X119679Y235078D01*
X119656Y234947D01*
X119629Y234818D01*
X119598Y234689D01*
X119563Y234561D01*
X119525Y234434D01*
X119483Y234308D01*
X119437Y234184D01*
X119388Y234061D01*
X119335Y233939D01*
X119278Y233819D01*
X119218Y233701D01*
X119155Y233584D01*
X119088Y233470D01*
X119018Y233357D01*
X118944Y233247D01*
X118868Y233139D01*
X118788Y233033D01*
X118705Y232929D01*
X118619Y232828D01*
X118530Y232730D01*
X118439Y232634D01*
X118344Y232541D01*
X118247Y232451D01*
X118147Y232364D01*
X118045Y232279D01*
X117940Y232198D01*
X117833Y232120D01*
X117724Y232044D01*
X117613Y231973D01*
X117499Y231904D01*
X117384Y231839D01*
X117266Y231777D01*
X117147Y231719D01*
X117026Y231664D01*
X116904Y231613D01*
X116780Y231565D01*
X116655Y231521D01*
X116529Y231481D01*
X116401Y231445D01*
X116273Y231412D01*
X116144Y231383D01*
X116013Y231358D01*
X115883Y231337D01*
X115751Y231319D01*
X115619Y231306D01*
X115487Y231296D01*
X115355Y231290D01*
X115222Y231288D01*
X107094Y232192D02*
X106975Y232194D01*
X106855Y232200D01*
X106736Y232210D01*
X106618Y232224D01*
X106499Y232241D01*
X106382Y232263D01*
X106265Y232288D01*
X106150Y232318D01*
X106035Y232351D01*
X105921Y232388D01*
X105809Y232428D01*
X105698Y232473D01*
X105589Y232521D01*
X105481Y232572D01*
X105375Y232627D01*
X105271Y232686D01*
X105169Y232748D01*
X105069Y232813D01*
X104971Y232882D01*
X104875Y232954D01*
X104782Y233029D01*
X104692Y233106D01*
X104604Y233187D01*
X104519Y233271D01*
X104437Y233358D01*
X104357Y233447D01*
X104281Y233539D01*
X104207Y233633D01*
X104137Y233730D01*
X104070Y233828D01*
X104006Y233929D01*
X103946Y234033D01*
X103889Y234138D01*
X103836Y234245D01*
X103786Y234353D01*
X103740Y234463D01*
X103698Y234575D01*
X103659Y234688D01*
X103624Y234802D01*
X103593Y234917D01*
X103565Y235034D01*
X103542Y235151D01*
X103522Y235268D01*
X103506Y235387D01*
X103494Y235506D01*
X103486Y235625D01*
X103482Y235744D01*
X103482Y235864D01*
X103486Y235983D01*
X103494Y236102D01*
X103506Y236221D01*
X103522Y236340D01*
X103542Y236457D01*
X103565Y236574D01*
X103593Y236691D01*
X103624Y236806D01*
X103659Y236920D01*
X103698Y237033D01*
X103740Y237145D01*
X103786Y237255D01*
X103836Y237363D01*
X103889Y237470D01*
X103946Y237575D01*
X104006Y237679D01*
X104070Y237780D01*
X104137Y237878D01*
X104207Y237975D01*
X104281Y238069D01*
X104357Y238161D01*
X104437Y238250D01*
X104519Y238337D01*
X104604Y238421D01*
X104692Y238502D01*
X104782Y238579D01*
X104875Y238654D01*
X104971Y238726D01*
X105069Y238795D01*
X105169Y238860D01*
X105271Y238922D01*
X105375Y238981D01*
X105481Y239036D01*
X105589Y239087D01*
X105698Y239135D01*
X105809Y239180D01*
X105921Y239220D01*
X106035Y239257D01*
X106150Y239290D01*
X106265Y239320D01*
X106382Y239345D01*
X106499Y239367D01*
X106618Y239384D01*
X106736Y239398D01*
X106855Y239408D01*
X106975Y239414D01*
X107094Y239416D01*
X107213Y239414D01*
X107333Y239408D01*
X107452Y239398D01*
X107570Y239384D01*
X107689Y239367D01*
X107806Y239345D01*
X107923Y239320D01*
X108038Y239290D01*
X108153Y239257D01*
X108267Y239220D01*
X108379Y239180D01*
X108490Y239135D01*
X108599Y239087D01*
X108707Y239036D01*
X108813Y238981D01*
X108917Y238922D01*
X109019Y238860D01*
X109119Y238795D01*
X109217Y238726D01*
X109313Y238654D01*
X109406Y238579D01*
X109496Y238502D01*
X109584Y238421D01*
X109669Y238337D01*
X109751Y238250D01*
X109831Y238161D01*
X109907Y238069D01*
X109981Y237975D01*
X110051Y237878D01*
X110118Y237780D01*
X110182Y237679D01*
X110242Y237575D01*
X110299Y237470D01*
X110352Y237363D01*
X110402Y237255D01*
X110448Y237145D01*
X110490Y237033D01*
X110529Y236920D01*
X110564Y236806D01*
X110595Y236691D01*
X110623Y236574D01*
X110646Y236457D01*
X110666Y236340D01*
X110682Y236221D01*
X110694Y236102D01*
X110702Y235983D01*
X110706Y235864D01*
X110706Y235744D01*
X110702Y235625D01*
X110694Y235506D01*
X110682Y235387D01*
X110666Y235268D01*
X110646Y235151D01*
X110623Y235034D01*
X110595Y234917D01*
X110564Y234802D01*
X110529Y234688D01*
X110490Y234575D01*
X110448Y234463D01*
X110402Y234353D01*
X110352Y234245D01*
X110299Y234138D01*
X110242Y234033D01*
X110182Y233929D01*
X110118Y233828D01*
X110051Y233730D01*
X109981Y233633D01*
X109907Y233539D01*
X109831Y233447D01*
X109751Y233358D01*
X109669Y233271D01*
X109584Y233187D01*
X109496Y233106D01*
X109406Y233029D01*
X109313Y232954D01*
X109217Y232882D01*
X109119Y232813D01*
X109019Y232748D01*
X108917Y232686D01*
X108813Y232627D01*
X108707Y232572D01*
X108599Y232521D01*
X108490Y232473D01*
X108379Y232428D01*
X108267Y232388D01*
X108153Y232351D01*
X108038Y232318D01*
X107923Y232288D01*
X107806Y232263D01*
X107689Y232241D01*
X107570Y232224D01*
X107452Y232210D01*
X107333Y232200D01*
X107213Y232194D01*
X107094Y232192D01*
X116126Y246920D02*
X103482Y250532D01*
X116126Y246920D02*
X116126Y255951D01*
X119738Y253241D02*
X112513Y253241D01*
X113416Y265499D02*
X113416Y269563D01*
X113416Y265499D02*
X113418Y265387D01*
X113424Y265276D01*
X113434Y265165D01*
X113447Y265054D01*
X113465Y264944D01*
X113487Y264835D01*
X113512Y264726D01*
X113541Y264618D01*
X113574Y264512D01*
X113611Y264406D01*
X113651Y264302D01*
X113695Y264200D01*
X113743Y264099D01*
X113794Y264000D01*
X113849Y263902D01*
X113907Y263807D01*
X113968Y263714D01*
X114033Y263623D01*
X114101Y263534D01*
X114172Y263448D01*
X114245Y263365D01*
X114322Y263284D01*
X114402Y263205D01*
X114484Y263130D01*
X114569Y263058D01*
X114656Y262988D01*
X114746Y262922D01*
X114838Y262859D01*
X114933Y262799D01*
X115029Y262743D01*
X115127Y262690D01*
X115227Y262641D01*
X115329Y262595D01*
X115432Y262553D01*
X115537Y262514D01*
X115643Y262479D01*
X115750Y262448D01*
X115858Y262421D01*
X115967Y262397D01*
X116077Y262378D01*
X116187Y262362D01*
X116298Y262350D01*
X116410Y262342D01*
X116521Y262338D01*
X116633Y262338D01*
X116744Y262342D01*
X116856Y262350D01*
X116967Y262362D01*
X117077Y262378D01*
X117187Y262397D01*
X117296Y262421D01*
X117404Y262448D01*
X117511Y262479D01*
X117617Y262514D01*
X117722Y262553D01*
X117825Y262595D01*
X117927Y262641D01*
X118027Y262690D01*
X118125Y262743D01*
X118221Y262799D01*
X118316Y262859D01*
X118408Y262922D01*
X118498Y262988D01*
X118585Y263058D01*
X118670Y263130D01*
X118752Y263205D01*
X118832Y263284D01*
X118909Y263365D01*
X118982Y263448D01*
X119053Y263534D01*
X119121Y263623D01*
X119186Y263714D01*
X119247Y263807D01*
X119305Y263902D01*
X119360Y264000D01*
X119411Y264099D01*
X119459Y264200D01*
X119503Y264302D01*
X119543Y264406D01*
X119580Y264512D01*
X119613Y264618D01*
X119642Y264726D01*
X119667Y264835D01*
X119689Y264944D01*
X119707Y265054D01*
X119720Y265165D01*
X119730Y265276D01*
X119736Y265387D01*
X119738Y265499D01*
X119738Y269563D01*
X111610Y269563D01*
X111509Y269561D01*
X111408Y269555D01*
X111307Y269546D01*
X111206Y269533D01*
X111106Y269516D01*
X111007Y269495D01*
X110909Y269471D01*
X110812Y269443D01*
X110715Y269411D01*
X110620Y269376D01*
X110527Y269337D01*
X110435Y269295D01*
X110344Y269249D01*
X110256Y269200D01*
X110169Y269148D01*
X110084Y269092D01*
X110001Y269034D01*
X109921Y268972D01*
X109843Y268907D01*
X109767Y268840D01*
X109694Y268770D01*
X109624Y268697D01*
X109557Y268621D01*
X109492Y268543D01*
X109430Y268463D01*
X109372Y268380D01*
X109316Y268295D01*
X109264Y268209D01*
X109215Y268120D01*
X109169Y268029D01*
X109127Y267937D01*
X109088Y267844D01*
X109053Y267749D01*
X109021Y267652D01*
X108993Y267555D01*
X108969Y267457D01*
X108948Y267358D01*
X108931Y267258D01*
X108918Y267157D01*
X108909Y267056D01*
X108903Y266955D01*
X108901Y266854D01*
X108901Y263242D01*
X113416Y276758D02*
X113416Y287595D01*
X108901Y294790D02*
X125157Y294790D01*
X108901Y294790D02*
X108901Y299305D01*
X108903Y299409D01*
X108909Y299512D01*
X108919Y299616D01*
X108933Y299719D01*
X108951Y299821D01*
X108972Y299922D01*
X108998Y300023D01*
X109027Y300122D01*
X109060Y300221D01*
X109097Y300318D01*
X109138Y300413D01*
X109182Y300507D01*
X109230Y300599D01*
X109281Y300689D01*
X109336Y300778D01*
X109394Y300864D01*
X109456Y300947D01*
X109520Y301029D01*
X109588Y301107D01*
X109658Y301183D01*
X109731Y301257D01*
X109808Y301327D01*
X109886Y301395D01*
X109968Y301459D01*
X110051Y301521D01*
X110137Y301579D01*
X110226Y301634D01*
X110316Y301685D01*
X110408Y301733D01*
X110502Y301777D01*
X110597Y301818D01*
X110694Y301855D01*
X110793Y301888D01*
X110892Y301917D01*
X110993Y301943D01*
X111094Y301964D01*
X111196Y301982D01*
X111299Y301996D01*
X111403Y302006D01*
X111506Y302012D01*
X111610Y302014D01*
X111610Y302015D02*
X117029Y302015D01*
X117029Y302014D02*
X117130Y302012D01*
X117231Y302006D01*
X117332Y301997D01*
X117433Y301984D01*
X117533Y301967D01*
X117632Y301946D01*
X117730Y301922D01*
X117827Y301894D01*
X117924Y301862D01*
X118019Y301827D01*
X118112Y301788D01*
X118204Y301746D01*
X118295Y301700D01*
X118384Y301651D01*
X118470Y301599D01*
X118555Y301543D01*
X118638Y301485D01*
X118718Y301423D01*
X118796Y301358D01*
X118872Y301291D01*
X118945Y301221D01*
X119015Y301148D01*
X119082Y301072D01*
X119147Y300994D01*
X119209Y300914D01*
X119267Y300831D01*
X119323Y300746D01*
X119375Y300660D01*
X119424Y300571D01*
X119470Y300480D01*
X119512Y300388D01*
X119551Y300295D01*
X119586Y300200D01*
X119618Y300103D01*
X119646Y300006D01*
X119670Y299908D01*
X119691Y299809D01*
X119708Y299709D01*
X119721Y299608D01*
X119730Y299507D01*
X119736Y299406D01*
X119738Y299305D01*
X119738Y294790D01*
X117029Y308784D02*
X108901Y308784D01*
X117029Y308785D02*
X117130Y308787D01*
X117231Y308793D01*
X117332Y308802D01*
X117433Y308815D01*
X117533Y308832D01*
X117632Y308853D01*
X117730Y308877D01*
X117827Y308905D01*
X117924Y308937D01*
X118019Y308972D01*
X118112Y309011D01*
X118204Y309053D01*
X118295Y309099D01*
X118383Y309148D01*
X118470Y309200D01*
X118555Y309256D01*
X118638Y309314D01*
X118718Y309376D01*
X118796Y309441D01*
X118872Y309508D01*
X118945Y309578D01*
X119015Y309651D01*
X119082Y309727D01*
X119147Y309805D01*
X119209Y309885D01*
X119267Y309968D01*
X119323Y310053D01*
X119375Y310140D01*
X119424Y310228D01*
X119470Y310319D01*
X119512Y310411D01*
X119551Y310504D01*
X119586Y310599D01*
X119618Y310696D01*
X119646Y310793D01*
X119670Y310891D01*
X119691Y310990D01*
X119708Y311090D01*
X119721Y311191D01*
X119730Y311292D01*
X119736Y311393D01*
X119738Y311494D01*
X119738Y316009D01*
X108901Y316009D01*
X203650Y612700D02*
X216350Y612700D01*
X222700Y606350D01*
X222700Y593650D01*
X216350Y587300D01*
X197300Y593650D02*
X197300Y606350D01*
X203650Y612700D01*
X197300Y593650D02*
X203650Y587300D01*
X216350Y587300D01*
D11*
X200983Y621463D02*
X200983Y630353D01*
X200983Y621463D02*
X200981Y621363D01*
X200975Y621264D01*
X200965Y621164D01*
X200952Y621066D01*
X200934Y620967D01*
X200913Y620870D01*
X200888Y620774D01*
X200859Y620678D01*
X200826Y620584D01*
X200790Y620491D01*
X200750Y620400D01*
X200706Y620310D01*
X200659Y620222D01*
X200609Y620136D01*
X200555Y620052D01*
X200498Y619970D01*
X200438Y619891D01*
X200374Y619813D01*
X200308Y619739D01*
X200239Y619667D01*
X200167Y619598D01*
X200093Y619532D01*
X200015Y619468D01*
X199936Y619408D01*
X199854Y619351D01*
X199770Y619297D01*
X199684Y619247D01*
X199596Y619200D01*
X199506Y619156D01*
X199415Y619116D01*
X199322Y619080D01*
X199228Y619047D01*
X199132Y619018D01*
X199036Y618993D01*
X198939Y618972D01*
X198840Y618954D01*
X198742Y618941D01*
X198642Y618931D01*
X198543Y618925D01*
X198443Y618923D01*
X197173Y618923D01*
X206963Y618923D02*
X206963Y630353D01*
X210138Y630353D01*
X210249Y630351D01*
X210359Y630345D01*
X210470Y630336D01*
X210580Y630322D01*
X210689Y630305D01*
X210798Y630284D01*
X210906Y630259D01*
X211013Y630230D01*
X211119Y630198D01*
X211224Y630162D01*
X211327Y630122D01*
X211429Y630079D01*
X211530Y630032D01*
X211629Y629981D01*
X211726Y629928D01*
X211820Y629871D01*
X211913Y629810D01*
X212004Y629747D01*
X212093Y629680D01*
X212179Y629610D01*
X212262Y629537D01*
X212344Y629462D01*
X212422Y629384D01*
X212497Y629302D01*
X212570Y629219D01*
X212640Y629133D01*
X212707Y629044D01*
X212770Y628953D01*
X212831Y628860D01*
X212888Y628765D01*
X212941Y628669D01*
X212992Y628570D01*
X213039Y628469D01*
X213082Y628367D01*
X213122Y628264D01*
X213158Y628159D01*
X213190Y628053D01*
X213219Y627946D01*
X213244Y627838D01*
X213265Y627729D01*
X213282Y627620D01*
X213296Y627510D01*
X213305Y627399D01*
X213311Y627289D01*
X213313Y627178D01*
X213311Y627067D01*
X213305Y626957D01*
X213296Y626846D01*
X213282Y626736D01*
X213265Y626627D01*
X213244Y626518D01*
X213219Y626410D01*
X213190Y626303D01*
X213158Y626197D01*
X213122Y626092D01*
X213082Y625989D01*
X213039Y625887D01*
X212992Y625786D01*
X212941Y625687D01*
X212888Y625591D01*
X212831Y625496D01*
X212770Y625403D01*
X212707Y625312D01*
X212640Y625223D01*
X212570Y625137D01*
X212497Y625054D01*
X212422Y624972D01*
X212344Y624894D01*
X212262Y624819D01*
X212179Y624746D01*
X212093Y624676D01*
X212004Y624609D01*
X211913Y624546D01*
X211820Y624485D01*
X211725Y624428D01*
X211629Y624375D01*
X211530Y624324D01*
X211429Y624277D01*
X211327Y624234D01*
X211224Y624194D01*
X211119Y624158D01*
X211013Y624126D01*
X210906Y624097D01*
X210798Y624072D01*
X210689Y624051D01*
X210580Y624034D01*
X210470Y624020D01*
X210359Y624011D01*
X210249Y624005D01*
X210138Y624003D01*
X206963Y624003D01*
X217822Y618923D02*
X220997Y618923D01*
X221108Y618925D01*
X221218Y618931D01*
X221329Y618940D01*
X221439Y618954D01*
X221548Y618971D01*
X221657Y618992D01*
X221765Y619017D01*
X221872Y619046D01*
X221978Y619078D01*
X222083Y619114D01*
X222186Y619154D01*
X222288Y619197D01*
X222389Y619244D01*
X222488Y619295D01*
X222584Y619348D01*
X222679Y619405D01*
X222772Y619466D01*
X222863Y619529D01*
X222952Y619596D01*
X223038Y619666D01*
X223121Y619739D01*
X223203Y619814D01*
X223281Y619892D01*
X223356Y619974D01*
X223429Y620057D01*
X223499Y620143D01*
X223566Y620232D01*
X223629Y620323D01*
X223690Y620416D01*
X223747Y620511D01*
X223800Y620607D01*
X223851Y620706D01*
X223898Y620807D01*
X223941Y620909D01*
X223981Y621012D01*
X224017Y621117D01*
X224049Y621223D01*
X224078Y621330D01*
X224103Y621438D01*
X224124Y621547D01*
X224141Y621656D01*
X224155Y621766D01*
X224164Y621877D01*
X224170Y621987D01*
X224172Y622098D01*
X224170Y622209D01*
X224164Y622319D01*
X224155Y622430D01*
X224141Y622540D01*
X224124Y622649D01*
X224103Y622758D01*
X224078Y622866D01*
X224049Y622973D01*
X224017Y623079D01*
X223981Y623184D01*
X223941Y623287D01*
X223898Y623389D01*
X223851Y623490D01*
X223800Y623589D01*
X223747Y623685D01*
X223690Y623780D01*
X223629Y623873D01*
X223566Y623964D01*
X223499Y624053D01*
X223429Y624139D01*
X223356Y624222D01*
X223281Y624304D01*
X223203Y624382D01*
X223121Y624457D01*
X223038Y624530D01*
X222952Y624600D01*
X222863Y624667D01*
X222772Y624730D01*
X222679Y624791D01*
X222585Y624848D01*
X222488Y624901D01*
X222389Y624952D01*
X222288Y624999D01*
X222186Y625042D01*
X222083Y625082D01*
X221978Y625118D01*
X221872Y625150D01*
X221765Y625179D01*
X221657Y625204D01*
X221548Y625225D01*
X221439Y625242D01*
X221329Y625256D01*
X221218Y625265D01*
X221108Y625271D01*
X220997Y625273D01*
X221632Y630353D02*
X217822Y630353D01*
X221632Y630353D02*
X221732Y630351D01*
X221831Y630345D01*
X221931Y630335D01*
X222029Y630322D01*
X222128Y630304D01*
X222225Y630283D01*
X222321Y630258D01*
X222417Y630229D01*
X222511Y630196D01*
X222604Y630160D01*
X222695Y630120D01*
X222785Y630076D01*
X222873Y630029D01*
X222959Y629979D01*
X223043Y629925D01*
X223125Y629868D01*
X223204Y629808D01*
X223282Y629744D01*
X223356Y629678D01*
X223428Y629609D01*
X223497Y629537D01*
X223563Y629463D01*
X223627Y629385D01*
X223687Y629306D01*
X223744Y629224D01*
X223798Y629140D01*
X223848Y629054D01*
X223895Y628966D01*
X223939Y628876D01*
X223979Y628785D01*
X224015Y628692D01*
X224048Y628598D01*
X224077Y628502D01*
X224102Y628406D01*
X224123Y628309D01*
X224141Y628210D01*
X224154Y628112D01*
X224164Y628012D01*
X224170Y627913D01*
X224172Y627813D01*
X224170Y627713D01*
X224164Y627614D01*
X224154Y627514D01*
X224141Y627416D01*
X224123Y627317D01*
X224102Y627220D01*
X224077Y627124D01*
X224048Y627028D01*
X224015Y626934D01*
X223979Y626841D01*
X223939Y626750D01*
X223895Y626660D01*
X223848Y626572D01*
X223798Y626486D01*
X223744Y626402D01*
X223687Y626320D01*
X223627Y626241D01*
X223563Y626163D01*
X223497Y626089D01*
X223428Y626017D01*
X223356Y625948D01*
X223282Y625882D01*
X223204Y625818D01*
X223125Y625758D01*
X223043Y625701D01*
X222959Y625647D01*
X222873Y625597D01*
X222785Y625550D01*
X222695Y625506D01*
X222604Y625466D01*
X222511Y625430D01*
X222417Y625397D01*
X222321Y625368D01*
X222225Y625343D01*
X222128Y625322D01*
X222029Y625304D01*
X221931Y625291D01*
X221831Y625281D01*
X221732Y625275D01*
X221632Y625273D01*
X219092Y625273D01*
M02*
