M48
;GenerationSoftware,Autodesk,EAGLE,9.5.2*%
;CreationDate,2020-05-17T13:13:13Z*%
FMAT,2
ICI,OFF
METRIC,TZ,000.000
T3C0.600
T2C1.000
T1C1.016
%
G90
M71
T1
X13030Y11430
X15570Y8890
X15570Y11430
X18110Y8890
X18110Y11430
X61510Y15250
X58970Y15250
X34480Y13700
X31940Y13700
X69540Y8690
X69540Y11230
X72080Y8690
X72080Y11230
X74620Y8690
X74620Y11230
X32230Y8950
X34770Y8950
X57900Y8850
X60440Y8850
X52000Y64000
X26050Y12160
X26050Y9620
X40920Y8990
X40920Y11530
X43460Y8990
X43460Y11530
X46000Y8990
X46000Y11530
X13030Y8890
T2
X38000Y8000
X10410Y10000
X65000Y9000
X51000Y24000
X23000Y36000
X72000Y28000
X14000Y40000
X42000Y40000
X70000Y40000
X59000Y37000
X30000Y37000
X88000Y37000
X38000Y11000
X36000Y19000
X38000Y15000
X50000Y20000
X53000Y16000
X23000Y22000
X28000Y17000
X64000Y17000
X63000Y12000
X67000Y14000
X75000Y15000
X77000Y47000
X65000Y23000
X49000Y47000
X35000Y23000
X21000Y47000
X8000Y22000
X63000Y56000
X56000Y64000
X77000Y57000
X91000Y50000
X49000Y58000
X46000Y64000
X35000Y59000
X21000Y58000
X85000Y31000
X80000Y30000
X86000Y29000
X80000Y26000
X57000Y30000
X50000Y30000
X57000Y28000
X50000Y27000
X29000Y30000
X22000Y30000
X29000Y28000
X23000Y27000
X11000Y42000
X17500Y42000
X25000Y52000
X31500Y52000
X31500Y49500
X25000Y47000
X31500Y47000
X25000Y44500
X31500Y44500
X25000Y42000
X31500Y42000
X25000Y49500
X53000Y52000
X67000Y52000
X73500Y52000
X67000Y49500
X73500Y49500
X67000Y47000
X73500Y47000
X67000Y44500
X73500Y44500
X67000Y42000
X73500Y42000
X81000Y52000
X87500Y52000
X81000Y49500
X87500Y49500
X81000Y47000
X87500Y47000
X81000Y44500
X87500Y44500
X81000Y42000
X87500Y42000
X39000Y52000
X45500Y52000
X39000Y49500
X45500Y49500
X39000Y47000
X45500Y47000
X39000Y44500
X45500Y44500
X39000Y42000
X45500Y42000
X59500Y52000
X53000Y49500
X59500Y49500
X53000Y47000
X59500Y47000
X53000Y44500
X59500Y44500
X53000Y42000
X59500Y42000
X11000Y52000
X17500Y52000
X11000Y49500
X17500Y49500
X11000Y47000
X17500Y47000
X11000Y44500
X17500Y44500
T3
X11810Y34110
X19310Y34110
X11810Y31610
X11810Y29110
X11810Y26610
X11810Y24110
X11810Y21610
X11810Y19110
X19310Y31610
X19310Y29110
X19310Y26610
X19310Y24110
X19310Y21610
X67990Y22310
X67990Y19810
X75490Y32310
X75490Y29810
X75490Y27310
X75490Y24810
X19310Y19110
X75490Y22310
X75490Y19810
X67990Y34810
X75490Y34810
X67990Y32310
X67990Y29810
X67990Y27310
X38550Y34810
X46050Y34810
X38550Y32310
X38550Y29810
X38550Y27310
X38550Y24810
X38550Y22310
X38550Y19810
X46050Y32310
X46050Y29810
X46050Y27310
X46050Y24810
X46050Y22310
X46050Y19810
X67990Y24810
M30