M48
;GenerationSoftware,Autodesk,EAGLE,9.5.2*%
;CreationDate,2020-05-10T21:37:33Z*%
FMAT,2
ICI,OFF
METRIC,TZ,000.000
T3C0.600
T2C1.000
T1C1.016
%
G90
M71
T1
X10030Y10430
X58900Y9850
X61440Y9850
X25050Y12160
X25050Y9620
X44920Y7990
X44920Y10530
X47460Y7990
X47460Y10530
X50000Y7990
X50000Y10530
X10030Y7890
X55000Y64000
X12570Y7890
X12570Y10430
X15110Y7890
X15110Y10430
X61510Y14250
X58970Y14250
X33480Y13700
X30940Y13700
X77540Y7690
X77540Y10230
X80080Y7690
X80080Y10230
X82620Y7690
X82620Y10230
X31230Y9950
X33770Y9950
T2
X101110Y45380
X94610Y42880
X101110Y42880
X58080Y53080
X64580Y53080
X58080Y50580
X64580Y50580
X58080Y48080
X64580Y48080
X58080Y45580
X64580Y45580
X58080Y43080
X64580Y43080
X39650Y52780
X46150Y52780
X39650Y50280
X46150Y50280
X46150Y47780
X39650Y45280
X94610Y47880
X46150Y45280
X39650Y42780
X46150Y42780
X22020Y52680
X28520Y52680
X22020Y50180
X28520Y50180
X22020Y47680
X28520Y47680
X22020Y45180
X28520Y45180
X22020Y42680
X28520Y42680
X76830Y42900
X5910Y52550
X12410Y52550
X5910Y50050
X12410Y50050
X12410Y47550
X5910Y45050
X12410Y45050
X5910Y42550
X12410Y42550
X5910Y47550
X76830Y52900
X83330Y52900
X76830Y50400
X83330Y50400
X76830Y47900
X83330Y47900
X76830Y45400
X83330Y45400
X39650Y47780
X83330Y42900
X94610Y52880
X101110Y52880
X94610Y50380
X101110Y50380
X101110Y47880
X94610Y45380
T3
X20400Y24500
X7400Y14300
X43000Y14400
X54800Y21100
X54250Y31550
X5600Y56500
X89900Y31300
X91200Y16900
X71900Y7600
X60150Y35350
X19700Y67300
X28400Y19800
X19800Y13300
X54900Y9200
X63100Y18700
X52500Y12700
X38400Y13700
X86250Y12050
X67750Y15650
X71900Y28200
X93800Y36400
X70900Y20500
X55400Y47900
X40400Y25000
X15600Y42700
X4800Y24400
X6200Y36600
X18900Y38100
X56000Y60000
X74300Y37900
X8810Y34110
X16310Y34110
X8810Y29110
X8810Y26610
X8810Y24110
X8810Y21610
X8810Y19110
X16310Y31610
X16310Y29110
X16310Y26610
X16310Y24110
X16310Y21610
X75990Y28810
X8810Y31610
X75990Y26310
X75990Y23810
X75990Y21310
X75990Y18810
X16310Y19110
X83490Y31310
X83490Y28810
X83490Y26310
X21600Y36600
X83490Y23810
X83490Y21310
X83490Y18810
X75990Y33810
X83490Y33810
X43550Y33810
X51050Y33810
X43550Y31310
X43550Y28810
X43550Y26310
X43550Y23810
X43550Y21310
X43550Y18810
X51050Y31310
X51050Y28810
X51050Y26310
X51050Y23810
X51050Y21310
X51050Y18810
X75990Y31310
M30